<svg width="72" height="73" viewBox="0 0 72 73" fill="none" xmlns="http://www.w3.org/2000/svg">
<rect y="0.5" width="72" height="72" rx="36" fill="#FFEDCE"/>
<g clip-path="url(#clip0_2540_208)">
<path d="M49.6549 41.2166C48.3074 41.3506 47.0299 41.4771 45.6775 41.6111C46.3832 42.6131 47.0565 43.5694 47.754 44.5598C46.3857 45.5377 45.0391 46.5006 43.6052 47.5251C43.6052 47.1964 43.6068 46.9675 43.6052 46.7395C43.5985 45.7691 43.641 44.7953 43.5735 43.8291C43.4021 41.3664 41.4405 39.4381 38.9711 39.3715C36.6566 39.3091 34.338 39.3057 32.0243 39.3732C29.4851 39.4472 27.4643 41.5462 27.4061 44.0937C27.3703 45.6717 27.3994 47.2513 27.3994 48.8825C28.3257 48.8825 29.2237 48.8825 30.1226 48.8825C31.0214 48.8825 31.9119 48.8825 32.8058 48.8825C32.8133 48.9125 32.8216 48.9425 32.8291 48.9724C32.0884 49.4768 31.3477 49.9811 30.6078 50.4855C29.8404 51.0081 29.0639 51.5183 28.3108 52.0618C28.0161 52.2748 27.8039 52.2673 27.5093 52.0584C24.4765 49.9079 22.4159 47.0666 21.686 43.4096C20.5075 37.5047 22.2985 32.5794 27.0898 28.935C31.182 25.8223 35.8186 25.2314 40.5841 27.0915C45.5393 29.0257 48.4897 32.7717 49.4643 38.0224C49.5874 38.6865 49.6057 39.3715 49.6507 40.0481C49.6757 40.4201 49.6549 40.7947 49.6549 41.2174V41.2166ZM39.8417 34.0126C39.7926 31.6015 37.7835 29.6407 35.4182 29.6957C32.9714 29.7523 31.093 31.7289 31.1479 34.1882C31.2004 36.5435 33.2252 38.4627 35.6122 38.4202C37.9691 38.3778 39.89 36.377 39.8417 34.0126Z" fill="#FE9F0F"/>
<path d="M41.483 53.0506C40.4252 51.7315 39.4031 50.4573 38.3612 49.1573C34.9955 51.4418 31.6498 53.7122 28.2783 56.001C27.8356 55.3418 27.412 54.7118 26.9634 54.0443C30.9224 51.3478 34.8582 48.6654 38.8355 45.9564C39.87 47.2464 40.8904 48.5164 41.9315 49.8148C44.2843 48.1336 46.6163 46.4674 48.9883 44.773C48.4298 43.979 47.8839 43.2025 47.2821 42.3478C50.0411 42.0798 52.7301 41.8184 55.5265 41.5471C54.3655 44.1046 53.2428 46.5781 52.0976 49.1015C51.51 48.2843 50.9541 47.5119 50.3723 46.703C47.4036 48.8227 44.4633 50.9225 41.4838 53.0506H41.483Z" fill="#FE9F0F"/>
<path d="M17.1302 25.2697C17.5738 25.2697 18.0183 25.2572 18.4618 25.2739C18.759 25.2855 18.9146 25.1757 19.0028 24.886C19.2616 24.0388 19.538 23.1966 19.8284 22.3601C19.8792 22.2128 20.0323 22.1013 20.138 21.9731C20.2412 22.1063 20.3877 22.2245 20.4393 22.376C20.7256 23.1999 20.9961 24.0297 21.2541 24.8627C21.3423 25.1465 21.4938 25.2564 21.795 25.2506C22.6689 25.2339 23.5428 25.2348 24.4167 25.2522C24.5706 25.2556 24.7221 25.3738 24.8752 25.4395C24.7837 25.5785 24.7204 25.7566 24.5948 25.8515C23.909 26.37 23.2149 26.8768 22.5091 27.3678C22.2345 27.5584 22.1729 27.7582 22.2827 28.0719C22.5474 28.8293 22.7954 29.5941 23.0251 30.3631C23.0859 30.5662 23.0559 30.7967 23.0676 31.0148C22.8512 30.9374 22.6073 30.9008 22.4242 30.7759C21.7717 30.3307 21.1317 29.8654 20.5034 29.3861C20.2404 29.1855 20.039 29.1747 19.7685 29.3794C19.0719 29.9062 18.3586 30.4106 17.6404 30.9083C17.5222 30.9898 17.3483 30.9907 17.2001 31.0289C17.186 30.8675 17.1219 30.6902 17.1652 30.5462C17.4065 29.7373 17.6546 28.9292 17.9417 28.1352C18.0823 27.7474 17.9866 27.5268 17.6571 27.3054C17.0012 26.8652 16.3646 26.3958 15.7345 25.9189C15.5847 25.8057 15.4932 25.6151 15.375 25.4595C15.5714 25.3962 15.7653 25.293 15.9651 25.2772C16.3512 25.2481 16.7416 25.2689 17.1294 25.2689L17.1302 25.2697Z" fill="#FE9F0F"/>
<path d="M32.5411 19.2758C32.9431 19.2758 33.3467 19.2525 33.7462 19.2824C34.1149 19.3099 34.2972 19.1742 34.4012 18.8189C34.6401 18.0099 34.9039 17.2076 35.1819 16.412C35.2368 16.2547 35.4016 16.1365 35.5164 16C35.6163 16.1357 35.757 16.258 35.8094 16.4103C36.0899 17.2209 36.3604 18.0349 36.6067 18.8563C36.7041 19.1817 36.8813 19.2891 37.2084 19.2833C38.0673 19.2674 38.927 19.2708 39.7859 19.2849C39.9316 19.2874 40.0747 19.3823 40.2195 19.4339C40.1355 19.577 40.0847 19.7635 39.9624 19.8575C39.3032 20.3635 38.6399 20.867 37.95 21.3289C37.5938 21.567 37.5413 21.8008 37.6845 22.1895C37.9716 22.9677 38.2171 23.7616 38.4576 24.5556C38.5018 24.7013 38.4393 24.8785 38.426 25.0408C38.2646 24.9984 38.074 24.9967 37.9458 24.906C37.2317 24.4041 36.5276 23.8881 35.8327 23.3605C35.5922 23.1782 35.4033 23.1849 35.1661 23.363C34.4695 23.889 33.7662 24.4058 33.0513 24.9077C32.924 24.9975 32.7317 24.995 32.5694 25.0358C32.5619 24.8702 32.5078 24.6913 32.5536 24.5415C32.7975 23.7333 33.0471 22.9269 33.3334 22.1329C33.4683 21.7592 33.3709 21.552 33.0563 21.3389C32.3564 20.8654 31.6756 20.3635 30.9998 19.8567C30.8849 19.7701 30.8308 19.602 30.7493 19.4713C30.8883 19.4073 31.0256 19.2949 31.1679 19.2874C31.624 19.2633 32.0825 19.2783 32.5395 19.2783V19.2766L32.5411 19.2758Z" fill="#FE9F0F"/>
<path d="M47.928 25.2447C48.3582 25.2447 48.7885 25.2297 49.218 25.2496C49.5167 25.263 49.6715 25.1531 49.7598 24.8643C50.0161 24.0304 50.2874 23.2015 50.5729 22.3775C50.6253 22.2269 50.7693 22.1079 50.8717 21.9739C50.9757 22.1054 51.1238 22.2211 51.1754 22.37C51.4517 23.1682 51.7214 23.9696 51.9569 24.7803C52.061 25.1398 52.2457 25.258 52.6094 25.2488C53.4275 25.228 54.2465 25.233 55.0646 25.2555C55.2477 25.2605 55.4283 25.3803 55.6097 25.4469C55.5032 25.5934 55.4233 25.7765 55.2851 25.8813C54.6118 26.3932 53.9302 26.8942 53.2369 27.3786C52.9756 27.5608 52.919 27.7456 53.023 28.046C53.3085 28.87 53.574 29.7014 53.8253 30.5362C53.8695 30.6826 53.8079 30.8607 53.7954 31.0247C53.6364 30.9822 53.45 30.9797 53.3243 30.8915C52.6102 30.3888 51.9053 29.872 51.2079 29.3452C50.9699 29.1654 50.7826 29.1654 50.5421 29.3477C49.8355 29.8837 49.1164 30.4055 48.3907 30.9165C48.275 30.9981 48.0986 30.9922 47.9504 31.0264C47.933 30.8757 47.8655 30.7093 47.9063 30.5761C48.1693 29.7155 48.4465 28.8591 48.7419 28.0086C48.8376 27.7339 48.771 27.5691 48.5472 27.4094C47.8256 26.8925 47.109 26.369 46.4016 25.8331C46.2859 25.7448 46.2293 25.5784 46.1453 25.4486C46.2967 25.3811 46.4449 25.2655 46.5988 25.2563C47.0416 25.2297 47.486 25.2471 47.9296 25.2471V25.2455L47.928 25.2447Z" fill="#FE9F0F"/>
<path d="M38.1896 50.3448C39.0327 51.401 39.8517 52.4271 40.7097 53.5016C38.0482 54.5644 35.3733 54.7658 32.5078 54.2023C34.4536 52.8807 36.3129 51.619 38.1905 50.344L38.1896 50.3448Z" fill="#FE9F0F"/>
</g>
<defs>
<clipPath id="clip0_2540_208">
<rect width="40.2339" height="40" fill="white" transform="translate(15.375 16)"/>
</clipPath>
</defs>
</svg>
