<svg width="72" height="73" viewBox="0 0 72 73" fill="none" xmlns="http://www.w3.org/2000/svg">
<rect y="0.5" width="72" height="72" rx="36" fill="#FFEDCE"/>
<g clip-path="url(#clip0_2540_228)">
<path d="M36.1251 38.6393C39.1067 38.6393 41.5238 36.2222 41.5238 33.2405C41.5238 30.2589 39.1067 27.8418 36.1251 27.8418C33.1434 27.8418 30.7263 30.2589 30.7263 33.2405C30.7263 36.2222 33.1434 38.6393 36.1251 38.6393Z" fill="#FE9F0F"/>
<path d="M44.6724 49.118C44.5786 43.9605 40.7911 39.8105 36.1249 39.8105C31.4586 39.8105 27.6699 43.9618 27.5774 49.118H44.6724Z" fill="#FE9F0F"/>
<path d="M22.5462 30.9943C24.7864 30.9943 26.6025 29.1783 26.6025 26.9381C26.6025 24.6979 24.7864 22.8818 22.5462 22.8818C20.306 22.8818 18.49 24.6979 18.49 26.9381C18.49 29.1783 20.306 30.9943 22.5462 30.9943Z" fill="#FE9F0F"/>
<path d="M28.9688 38.8668C28.8987 34.993 26.0538 31.8743 22.5463 31.8743C19.0388 31.8743 16.195 34.993 16.125 38.8668H28.9688Z" fill="#FE9F0F"/>
<path d="M49.7025 30.9943C51.9427 30.9943 53.7587 29.1783 53.7587 26.9381C53.7587 24.6979 51.9427 22.8818 49.7025 22.8818C47.4623 22.8818 45.6462 24.6979 45.6462 26.9381C45.6462 29.1783 47.4623 30.9943 49.7025 30.9943Z" fill="#FE9F0F"/>
<path d="M56.125 38.8668C56.055 34.993 53.21 31.8743 49.7025 31.8743C46.195 31.8743 43.3513 34.993 43.28 38.8668H56.125Z" fill="#FE9F0F"/>
</g>
<defs>
<clipPath id="clip0_2540_228">
<rect width="40" height="40" fill="white" transform="translate(16.125 16)"/>
</clipPath>
</defs>
</svg>
