<svg width="72" height="73" viewBox="0 0 72 73" fill="none" xmlns="http://www.w3.org/2000/svg">
<rect y="0.5" width="72" height="72" rx="36" fill="#FFEDCE"/>
<g clip-path="url(#clip0_2540_250)">
<path d="M38.9011 39.8794C38.8757 39.8823 38.8496 39.8853 38.8242 39.8875L38.9145 39.9348L38.9011 39.8794ZM36.4653 38.6628L38.1135 39.5179C38.1188 39.5128 38.1232 39.5076 38.1285 39.5024C37.5813 39.2149 37.0707 38.9356 36.5474 38.6835C36.5235 38.6717 36.4959 38.6651 36.4653 38.6628ZM35.7329 38.9437L36.201 38.7072C36.1913 38.7109 36.1823 38.7146 36.1734 38.719C36.0248 38.79 35.8785 38.8661 35.7329 38.9437ZM33.9966 39.821L34.0048 39.8173C34.0048 39.8173 34.0011 39.8173 33.9996 39.8158C33.9988 39.8173 33.9981 39.8195 33.9966 39.821Z" fill="#FE9F0F"/>
<path d="M50.0822 32.2544C50.0613 31.4747 50.0426 31.4747 49.2685 31.4754C49.2685 31.4754 45.6778 31.468 45.0328 31.4813C44.7865 31.4865 44.6842 31.4274 44.6745 31.1584C44.6528 30.556 44.5939 29.9552 44.5431 29.3536C44.4886 28.6958 44.3401 28.5613 43.6884 28.5613H29.2077C28.4866 28.5613 28.347 28.6877 28.2858 29.4083C28.229 30.0815 28.1783 30.7548 28.1208 31.4769H25.6178C25.4498 31.4784 25.2819 31.4799 25.1139 31.4813C24.9407 31.4799 24.7675 31.4784 24.5943 31.4762C24.2696 31.4762 23.9605 31.4732 23.6515 31.4762C23.0132 31.4821 22.7214 31.7142 22.7579 32.335C22.8206 33.4251 22.8632 34.5293 23.0789 35.595C23.5261 37.796 24.5719 39.6813 26.4091 41.0723C27.6012 41.9739 28.9621 42.4802 30.429 42.7396C30.6096 42.7721 30.8523 42.8283 30.9389 42.9576C31.557 43.8778 32.2878 44.69 33.1448 45.3988C33.5479 45.7321 33.8599 46.1748 33.889 46.6848C33.945 47.6729 33.9055 48.6662 33.9055 49.6913H33.5546C32.7334 49.6913 31.9123 49.681 31.0919 49.6958C29.8057 49.7179 28.7128 50.7068 28.5829 51.9455C28.5291 52.4584 28.5918 52.533 29.1092 52.533C33.998 52.5345 38.8869 52.5345 43.7764 52.533C44.2296 52.533 44.2915 52.4614 44.2579 52.0083C44.1646 50.7305 43.0352 49.7046 41.6959 49.6935C40.7666 49.6861 39.8364 49.6921 38.8675 49.6921C38.8675 48.8939 38.8772 48.1334 38.8645 47.3736C38.8503 46.5 39.2213 45.8319 39.8506 45.2318C40.5098 44.6036 41.1174 43.917 41.6922 43.2111C41.9199 42.9325 42.1327 42.7766 42.4895 42.7152C44.62 42.3464 46.4556 41.427 47.8217 39.7309C49.5835 37.5454 50.1553 34.989 50.0822 32.2537V32.2544ZM24.2547 32.9521H28.1477C28.2626 35.762 28.7703 38.4885 29.9296 41.0848C26.9316 40.8971 23.871 36.5033 24.2547 32.9521ZM32.4878 34.6919C33.212 34.5795 33.9375 34.4702 34.6654 34.3829C34.9035 34.3549 35.0416 34.264 35.1439 34.0489C35.4507 33.4037 35.7717 32.7644 36.1009 32.1295C36.1741 31.9876 36.304 31.8738 36.4077 31.7474C36.5025 31.8686 36.6197 31.978 36.6884 32.1118C37.0109 32.737 37.3297 33.3638 37.6283 34.0001C37.7395 34.2366 37.8776 34.3541 38.1516 34.3859C38.8921 34.4702 39.6296 34.5862 40.3657 34.703C40.4881 34.7222 40.6001 34.8064 40.7165 34.8604C40.6553 34.9602 40.6113 35.0769 40.5299 35.1567C39.9842 35.6955 39.4206 36.2181 38.8861 36.7672C38.7786 36.8773 38.7055 37.0879 38.7249 37.2387C38.804 37.8484 38.9287 38.4523 39.0279 39.059C39.0481 39.1817 39.0578 39.3096 39.1093 39.3983L39.1623 40.0634L38.9145 39.9348L38.8242 39.8875L38.1135 39.5187L36.4652 38.6636C36.3823 38.6548 36.2823 38.6755 36.2032 38.7072H36.2009L35.7329 38.9445L35.7262 38.9482L34.0047 39.8173L33.9965 39.821L33.6666 39.9881L33.6957 39.4522C33.8002 38.8425 33.8816 38.2291 34.0279 37.6319C34.1481 37.1419 34.0443 36.8056 33.6457 36.4812C33.1679 36.0909 32.7446 35.6342 32.3079 35.1959C32.2124 35.0998 32.1609 34.9609 32.0892 34.8419C32.2213 34.7902 32.3505 34.7133 32.4878 34.6919ZM46.8267 38.6245C45.845 39.9223 44.5289 40.7175 42.8874 41.1403C44.0609 38.4944 44.5715 35.7776 44.6909 32.9395H48.6242C48.5511 35.0171 48.095 36.9468 46.8267 38.6245Z" fill="#FE9F0F"/>
<path d="M36.4249 54.997C31.8115 54.997 27.1974 54.997 22.584 54.997C21.9853 54.997 21.9308 54.9401 21.9301 54.3363C21.9278 53.2425 21.8196 53.2417 23.0155 53.2425C32.0564 53.2469 41.0965 53.2447 50.1374 53.2447C50.8652 53.2447 50.9003 53.2846 50.9063 53.9852C50.9153 55.0443 50.9287 55.0007 49.8933 55C45.4038 54.9963 40.9151 54.9985 36.4257 54.9978L36.4249 54.997Z" fill="#FE9F0F"/>
<path d="M16.9528 27.9375C16.9409 27.4852 17.2813 27.3182 17.6463 27.5185C18.1778 27.8097 18.6996 28.1193 19.2259 28.4209C19.7739 28.7342 20.321 29.0483 20.8705 29.3573C21.134 29.5058 21.2773 29.7128 21.1064 29.9907C20.9474 30.2486 20.704 30.2279 20.4554 30.0853C19.3827 29.4689 18.3047 28.8614 17.2365 28.2376C17.1021 28.1592 17.0133 28.004 16.9528 27.9383V27.9375Z" fill="#FE9F0F"/>
<path d="M47.504 19.4174C47.4301 19.5867 47.3921 19.7042 47.3316 19.8091C46.7262 20.8534 46.1155 21.8955 45.5101 22.9398C45.372 23.1786 45.1914 23.3463 44.9099 23.2044C44.6166 23.0559 44.6181 22.8061 44.7704 22.5452C45.3974 21.4706 46.014 20.39 46.6635 19.3287C46.7471 19.1928 46.9994 19.0974 47.1733 19.0981C47.2853 19.0981 47.3965 19.3073 47.504 19.4182V19.4174Z" fill="#FE9F0F"/>
<path d="M55.8672 48.5562C55.8642 49.0129 55.5253 49.1674 55.1573 48.9627C54.4548 48.5702 53.7591 48.1667 53.0611 47.7668C52.6744 47.5459 52.2877 47.3249 51.9018 47.1017C51.648 46.9553 51.5457 46.7477 51.7144 46.4875C51.8742 46.2414 52.1033 46.2606 52.3347 46.3929C53.4209 47.0115 54.5093 47.6272 55.5895 48.2576C55.7224 48.3352 55.809 48.4919 55.8679 48.5569L55.8672 48.5562Z" fill="#FE9F0F"/>
<path d="M28.2116 22.8801C28.1018 22.9968 28.0056 23.1905 27.8794 23.2119C27.7323 23.237 27.4972 23.1579 27.4106 23.0426C27.1754 22.7293 26.997 22.3738 26.7977 22.0331C26.3692 21.2992 25.9452 20.5631 25.513 19.8314C25.3599 19.5727 25.2845 19.3259 25.5772 19.1204C25.8004 18.9637 26.0311 19.065 26.2281 19.4005C26.8268 20.4197 27.4225 21.4411 28.0167 22.4632C28.0832 22.5778 28.1302 22.7042 28.2116 22.8808V22.8801Z" fill="#FE9F0F"/>
<path d="M51.6726 29.6662C51.7248 29.6085 51.8054 29.4636 51.9294 29.3912C53.0185 28.7549 54.1151 28.1311 55.211 27.5051C55.4469 27.3699 55.6783 27.375 55.8246 27.6219C55.9649 27.8606 55.8895 28.072 55.6439 28.2124C54.5384 28.8458 53.4365 29.4843 52.3257 30.1089C51.9913 30.2966 51.6606 30.1066 51.6726 29.6662Z" fill="#FE9F0F"/>
<path d="M17.3224 49.1053C17.2157 49.0063 17.041 48.919 17.0134 48.7993C16.9813 48.6611 17.0335 48.4512 17.1306 48.3477C17.2687 48.2007 17.4792 48.1194 17.6621 48.0152C18.5743 47.4926 19.4873 46.9701 20.4017 46.4506C20.766 46.2436 21.0116 46.2613 21.1408 46.5141C21.3222 46.8696 21.0669 47.027 20.8101 47.1748C19.7792 47.7654 18.749 48.3566 17.7166 48.9434C17.6121 49.0033 17.4926 49.0366 17.3232 49.1053H17.3224Z" fill="#FE9F0F"/>
<path d="M36.7257 19.3562C36.7257 19.9703 36.7234 20.5838 36.7264 21.1979C36.7279 21.4832 36.6219 21.6953 36.3106 21.6938C36.0016 21.6924 35.8918 21.4817 35.8926 21.1964C35.8941 19.9689 35.8963 18.7405 35.8926 17.5129C35.8918 17.2299 35.9874 17.0111 36.2957 17C36.6316 16.9874 36.7324 17.2166 36.7309 17.5144C36.7279 18.1286 36.7302 18.742 36.7302 19.3562C36.7287 19.3562 36.7272 19.3562 36.7264 19.3562H36.7257Z" fill="#FE9F0F"/>
<path d="M55.6166 38.6571C55.0089 38.6571 54.4013 38.6578 53.7936 38.6571C53.4092 38.6563 53.2061 38.5151 53.2188 38.2417C53.2345 37.8995 53.4704 37.8352 53.7623 37.8359C54.9895 37.8396 56.2175 37.8411 57.4448 37.8367C57.7314 37.8359 57.9546 37.9246 57.9628 38.2313C57.9711 38.5595 57.7396 38.6615 57.4388 38.6593C56.8311 38.6556 56.2235 38.6578 55.6158 38.6578V38.6563L55.6166 38.6571Z" fill="#FE9F0F"/>
<path d="M17.2503 38.6592C16.6426 38.6592 16.035 38.6563 15.4281 38.6607C15.1384 38.6622 14.8876 38.5964 14.8757 38.2601C14.8637 37.9194 15.1034 37.8381 15.3997 37.8389C16.6397 37.8418 17.8788 37.8418 19.1188 37.8389C19.4107 37.8381 19.6175 37.9438 19.6145 38.2528C19.6115 38.5617 19.398 38.6622 19.1098 38.66C18.4902 38.6555 17.8699 38.6585 17.2503 38.6585V38.66V38.6592Z" fill="#FE9F0F"/>
<path d="M36.4653 38.6628C36.3824 38.6539 36.2824 38.6746 36.2032 38.7064L36.3787 38.6177L36.4653 38.6628Z" fill="#FE9F0F"/>
</g>
<defs>
<clipPath id="clip0_2540_250">
<rect width="47.0886" height="40" fill="white" transform="translate(12.875 15)"/>
</clipPath>
</defs>
</svg>
