<svg width="62" height="44" viewBox="0 0 62 44" fill="none" xmlns="http://www.w3.org/2000/svg">
<path d="M61.038 0.818923C60.938 0.275777 60.4165 -0.0834169 59.8734 0.0166387C59.3303 0.116694 58.9711 0.638111 59.0711 1.18126L61.038 0.818923ZM1.18168 33.4404C0.684349 33.6806 0.475883 34.2784 0.716056 34.7758L4.6299 42.8802C4.87007 43.3775 5.46794 43.586 5.96526 43.3458C6.46259 43.1056 6.67106 42.5078 6.43089 42.0104L2.95191 34.8065L10.1559 31.3275C10.6532 31.0874 10.8616 30.4895 10.6215 29.9922C10.3813 29.4948 9.78344 29.2864 9.28611 29.5265L1.18168 33.4404ZM59.0711 1.18126C60.7213 10.1391 54.8156 21.0439 44.1236 28.3419C33.4974 35.5949 18.342 39.1138 1.94579 33.3966L1.28731 35.2851C18.3292 41.2274 34.1429 37.5759 45.2512 29.9937C56.2937 22.4565 62.888 10.8612 61.038 0.818923L59.0711 1.18126Z" fill="white"/>
</svg>
