<svg width="976" height="260" viewBox="0 0 976 260" fill="none" xmlns="http://www.w3.org/2000/svg">
<path d="M911.18 0C910.628 0 910.18 0.447715 910.18 1C910.18 1.55228 910.628 2 911.18 2V0ZM68.4998 254L58.4998 248.227V259.773L68.4998 254ZM57.3142 253H49.8571V255H57.3142V253ZM42.4001 253H34.943V255H42.4001V253ZM27.4859 253H20.0289V255H27.4859V253ZM12.5718 253H8.84326V255H12.5718V253ZM8.84326 253C8.02787 253 7.25286 252.838 6.5468 252.545L5.78069 254.393C6.72534 254.784 7.76037 255 8.84326 255V253ZM3.29815 249.296C3.00536 248.59 2.84326 247.815 2.84326 247H0.843264C0.843264 248.083 1.05897 249.118 1.4507 250.063L3.29815 249.296ZM2.84326 247L2.84327 243.036H0.843266L0.843264 247H2.84326ZM2.84327 235.107L2.84327 227.179H0.843272L0.843269 235.107H2.84327ZM2.84327 219.25L2.84328 211.321H0.843277L0.843274 219.25H2.84327ZM2.84328 203.393L2.84328 195.464H0.843283L0.84328 203.393H2.84328ZM2.84329 187.536L2.84329 179.607H0.843289L0.843286 187.536H2.84329ZM2.84329 171.679L2.84329 163.75H0.843295L0.843292 171.679H2.84329ZM2.8433 155.821L2.8433 147.893H0.843301L0.843298 155.821H2.8433ZM2.8433 139.964L2.8433 136H0.843305L0.843304 139.964H2.8433ZM2.8433 136C2.84331 135.185 3.0054 134.41 3.2982 133.704L1.45074 132.937C1.05901 133.882 0.843305 134.917 0.843305 136H2.8433ZM6.54685 130.455C7.25291 130.162 8.02792 130 8.84331 130V128C7.76042 128 6.72539 128.216 5.78074 128.607L6.54685 130.455ZM8.84331 130H12.8398V128H8.84331V130ZM20.8328 130H28.8257V128H20.8328V130ZM36.8187 130H44.8117V128H36.8187V130ZM52.8047 130H60.7976V128H52.8047V130ZM68.7906 130H76.7836V128H68.7906V130ZM84.7766 130H92.7695V128H84.7766V130ZM100.762 130H108.755V128H100.762V130ZM116.748 130H124.741V128H116.748V130ZM132.734 130H140.727V128H132.734V130ZM148.72 130H156.713V128H148.72V130ZM164.706 130H172.699V128H164.706V130ZM180.692 130H188.685V128H180.692V130ZM196.678 130H204.671V128H196.678V130ZM212.664 130H220.657V128H212.664V130ZM228.65 130H236.643V128H228.65V130ZM244.636 130H252.629V128H244.636V130ZM260.622 130H268.615V128H260.622V130ZM276.608 130H284.601V128H276.608V130ZM292.594 130H300.587V128H292.594V130ZM308.58 130H316.573V128H308.58V130ZM324.566 130H332.559V128H324.566V130ZM340.552 130H348.545V128H340.552V130ZM356.538 130H364.531V128H356.538V130ZM372.524 130H380.517V128H372.524V130ZM388.51 130H396.503V128H388.51V130ZM404.496 130H412.488V128H404.496V130ZM420.481 130H428.474V128H420.481V130ZM436.467 130H444.46V128H436.467V130ZM452.453 130H460.446V128H452.453V130ZM468.439 130H476.432V128H468.439V130ZM484.425 130H492.418V128H484.425V130ZM500.411 130H508.404V128H500.411V130ZM516.397 130H524.39V128H516.397V130ZM532.383 130H540.376V128H532.383V130ZM548.369 130H556.362V128H548.369V130ZM564.355 130H572.348V128H564.355V130ZM580.341 130H588.334V128H580.341V130ZM596.327 130H604.32V128H596.327V130ZM612.313 130H620.306V128H612.313V130ZM628.299 130H636.292V128H628.299V130ZM644.285 130H652.278V128H644.285V130ZM660.271 130H668.264V128H660.271V130ZM676.257 130H684.25V128H676.257V130ZM692.243 130H700.236V128H692.243V130ZM708.229 130H716.222V128H708.229V130ZM724.215 130H732.208V128H724.215V130ZM740.201 130H748.194V128H740.201V130ZM756.187 130H764.18V128H756.187V130ZM772.173 130H780.166V128H772.173V130ZM788.159 130H796.152V128H788.159V130ZM804.145 130H812.138V128H804.145V130ZM820.13 130H828.123V128H820.13V130ZM836.116 130H844.109V128H836.116V130ZM852.102 130H860.095V128H852.102V130ZM868.088 130H876.081V128H868.088V130ZM884.074 130H892.067V128H884.074V130ZM900.06 130H908.053V128H900.06V130ZM916.046 130H924.039V128H916.046V130ZM932.032 130H940.025V128H932.032V130ZM948.018 130H956.011V128H948.018V130ZM964.004 130H968V128H964.004V130ZM968 130C969.083 130 970.118 129.784 971.062 129.393L970.296 127.545C969.59 127.838 968.815 128 968 128V130ZM975.393 125.063C975.784 124.118 976 123.083 976 122H974C974 122.815 973.838 123.59 973.545 124.296L975.393 125.063ZM976 122V117.929H974V122H976ZM976 109.786V101.643H974V109.786H976ZM976 93.5V85.3571H974V93.5H976ZM976 77.2143V69.0714H974V77.2143H976ZM976 60.9286V52.7857H974V60.9286H976ZM976 44.6429V36.5H974V44.6429H976ZM976 28.3571V20.2143H974V28.3571H976ZM976 12.0714V8H974V12.0714H976ZM976 8C976 6.91711 975.784 5.88208 975.393 4.93743L973.545 5.70354C973.838 6.4096 974 7.18461 974 8H976ZM971.062 0.607437C970.118 0.215707 969.083 0 968 0V2C968.815 2 969.59 2.1621 970.296 2.45489L971.062 0.607437ZM968 0H964.449V2H968V0ZM957.346 0H950.244V2H957.346V0ZM943.141 0H936.039V2H943.141V0ZM928.936 0H921.834V2H928.936V0ZM914.731 0H911.18V2H914.731V0Z" fill="url(#paint0_linear_2418_317)"/>
<defs>
<linearGradient id="paint0_linear_2418_317" x1="-25.7881" y1="261.163" x2="133.944" y2="-353.241" gradientUnits="userSpaceOnUse">
<stop stop-color="#FFBD50"/>
<stop offset="0.13" stop-color="#FFC360"/>
<stop offset="0.47" stop-color="#FFD184"/>
<stop offset="0.74" stop-color="#FFD999"/>
<stop offset="0.91" stop-color="#FFDDA2"/>
</linearGradient>
</defs>
</svg>
