<svg width="43" height="41" viewBox="0 0 43 41" fill="none" xmlns="http://www.w3.org/2000/svg">
<path fill-rule="evenodd" clip-rule="evenodd" d="M30.8752 0.670028C31.9706 1.02778 33.5628 1.73723 34.4141 2.24657C35.265 2.75628 36.7012 4.01359 37.6052 5.04048C38.5092 6.06774 39.702 7.82477 40.2554 8.94511C40.8092 10.0658 41.6071 12.1588 42.0285 13.5963C42.7346 16.0046 42.8061 17.1392 42.9385 28.016C43.0677 38.6398 43.0244 39.8804 42.5052 40.4108C42.0016 40.9251 40.8902 41 33.7726 41C26.8241 41 25.5356 40.9169 25.0681 40.4397C24.5995 39.9606 24.5195 38.6124 24.5195 31.1783C24.5195 22.9411 24.3192 22.9874 25.1948 22.1082C26.4142 21.3824 27.2218 21.739 28.8734 21.739C31.8763 21.739 31.8763 21.739 31.6573 19.8664C31.5369 18.8363 31.1922 17.0554 30.8916 15.908C30.5487 14.6018 29.9408 13.3883 29.2652 12.6614C28.5686 11.9117 27.6907 11.4073 26.7892 11.2375C26.021 11.0931 25.1959 10.8088 24.956 10.6062C24.6466 10.3451 24.5195 8.85166 24.5195 5.47885C24.5195 1.13871 24.5789 0.687149 25.1948 0.350438C25.5663 0.147485 26.5486 -0.0101698 27.3772 0.000530706C28.2061 0.0108746 29.7802 0.312273 30.8752 0.670028ZM6.43298 0.670028C7.52834 1.02778 9.12057 1.73723 9.97186 2.24657C10.8228 2.75628 12.2439 3.99683 13.1301 5.00339C14.016 6.00995 15.2954 7.98028 15.9735 9.38169C16.6861 10.8552 17.4948 13.3598 17.8901 15.3187C18.4805 18.2425 18.5752 20.185 18.579 29.4844C18.5832 39.7769 18.5532 40.2781 17.9083 40.6308C17.4987 40.8545 14.0705 41 9.20367 41C2.37033 41 1.09305 40.9165 0.625851 40.4397C0.157261 39.9606 0.0772972 38.6177 0.0772972 31.2372C0.0772972 24.9909 -0.26659 22.9464 0.496307 22.1671C1.27363 21.5607 2.07493 21.739 4.03834 21.739C7.1617 21.739 7.1617 21.739 6.96372 19.0675C6.83558 17.3365 6.46056 15.7146 5.89874 14.4609C5.42176 13.3965 5.15235 12.6725 4.21292 11.9955C3.51716 11.4941 2.84451 11.3506 2.17235 11.2108C1.50019 11.0706 0.753651 10.7945 0.513767 10.5969C0.205444 10.3433 0.0772972 8.89482 0.0772972 5.67003C0.0772972 1.99297 0.184147 0.992827 0.625851 0.541621C0.975376 0.18458 1.76765 -0.0115966 2.80819 0.000530706C3.70697 0.0108746 5.33796 0.312273 6.43298 0.670028Z" fill="#FE9F0F"/>
</svg>
