<svg width="360" height="266" viewBox="0 0 360 266" fill="none" xmlns="http://www.w3.org/2000/svg">
<path opacity="0.7" d="M358.333 266H1L57.2645 224.962H302.068L358.333 266Z" fill="url(#paint0_radial_2464_7366)"/>
<path opacity="0.3" d="M358.333 251.104H1L57.2645 210.066H302.068L358.333 251.104Z" stroke="#777777" stroke-width="0.5" stroke-linecap="round" stroke-linejoin="round"/>
<path d="M259.573 1.37524H99.7588C95.405 1.37524 91.8755 4.90473 91.8755 9.25857V223.28C91.8755 227.634 95.405 231.163 99.7588 231.163H259.573C263.927 231.163 267.456 227.634 267.456 223.28V9.25857C267.456 4.90473 263.927 1.37524 259.573 1.37524Z" fill="white"/>
<path d="M259.573 1.75079C263.717 1.75079 267.081 5.11435 267.081 9.25873V223.28C267.081 227.424 263.717 230.788 259.573 230.788H99.7587C95.6143 230.788 92.2508 227.424 92.2508 223.28V9.25873C92.2508 5.11435 95.6143 1.75079 99.7587 1.75079H259.573ZM259.573 1H99.7587C95.2089 1 91.5 4.70892 91.5 9.25873V223.28C91.5 227.83 95.2089 231.539 99.7587 231.539H259.573C264.122 231.539 267.831 227.83 267.831 223.28V9.25873C267.831 4.70892 264.122 1 259.573 1Z" fill="#777777"/>
<path d="M259.573 1.75073H99.7587C95.6121 1.75073 92.2507 5.11215 92.2507 9.25867V223.28C92.2507 227.426 95.6121 230.788 99.7587 230.788H259.573C263.719 230.788 267.08 227.426 267.08 223.28V9.25867C267.08 5.11215 263.719 1.75073 259.573 1.75073Z" fill="url(#paint1_linear_2464_7366)"/>
<path d="M246.871 14.0789H112.464C108.11 14.0789 104.58 17.6083 104.58 21.9622V202.693C104.58 207.047 108.11 210.576 112.464 210.576H246.871C251.225 210.576 254.754 207.047 254.754 202.693V21.9622C254.754 17.6083 251.225 14.0789 246.871 14.0789Z" fill="white"/>
<path d="M246.871 14.4542C251.015 14.4542 254.379 17.8177 254.379 21.9621V202.693C254.379 206.837 251.015 210.201 246.871 210.201H112.464C108.319 210.201 104.956 206.837 104.956 202.693V21.9621C104.956 17.8177 108.319 14.4542 112.464 14.4542H246.871ZM246.871 13.7034H112.464C107.914 13.7034 104.205 17.4123 104.205 21.9621V202.693C104.205 207.243 107.914 210.952 112.464 210.952H246.871C251.42 210.952 255.129 207.243 255.129 202.693V21.9621C255.129 17.4123 251.42 13.7034 246.871 13.7034Z" fill="#C1D7FE"/>
<path d="M179.675 225.532C182.453 225.532 184.705 223.28 184.705 220.502C184.705 217.724 182.453 215.472 179.675 215.472C176.896 215.472 174.644 217.724 174.644 220.502C174.644 223.28 176.896 225.532 179.675 225.532Z" stroke="#777777" stroke-width="0.5" stroke-linecap="round" stroke-linejoin="round"/>
<path d="M199.42 100.66C199.42 101.066 199.329 101.486 199.254 101.892C199.179 102.327 199.104 102.763 199.029 103.198C198.999 103.378 198.969 103.573 198.939 103.769C198.924 103.904 198.879 104.099 198.699 104.099C198.308 104.099 198.278 103.513 198.188 103.243C197.993 102.688 197.377 102.207 196.762 102.492C196.506 102.612 196.296 102.853 196.266 103.153C196.251 103.318 196.311 103.468 196.356 103.618C196.416 103.799 196.401 103.949 196.236 104.069C196.116 104.159 195.981 104.219 195.831 104.279C195.651 104.354 195.485 104.444 195.305 104.55C194.99 104.715 194.69 104.91 194.389 105.105C193.774 105.511 193.173 105.946 192.557 106.351C191.806 106.832 191.041 107.177 190.2 107.463C189.299 107.763 188.398 108.048 187.497 108.349C187.542 108.168 187.257 108.108 187.197 108.288C187.001 108.829 187.106 109.475 187.437 109.94C187.602 110.165 187.812 110.331 188.052 110.466C188.278 110.601 188.548 110.706 188.713 110.916C188.938 111.187 188.788 111.502 188.713 111.817C188.623 112.133 188.623 112.448 188.758 112.763C189.014 113.409 189.599 113.889 190.08 114.385C190.665 114.971 191.251 115.571 191.821 116.172C192.302 116.667 192.798 117.178 193.428 117.448C193.744 117.598 194.104 117.673 194.389 117.884C194.659 118.064 194.84 118.334 194.96 118.634C195.095 118.92 195.17 119.25 195.245 119.55C195.29 119.761 195.38 120.091 195.215 120.271C195.035 120.496 194.599 120.226 194.374 120.211C194.074 120.196 193.819 120.406 193.698 120.662C193.548 120.977 193.593 121.337 193.428 121.638C193.278 121.923 192.993 122.088 192.707 122.208C192.092 122.463 191.356 122.523 190.905 123.079C190.71 123.319 190.59 123.605 190.635 123.92C190.665 124.16 190.815 124.37 190.981 124.566C191.146 124.746 191.326 124.911 191.461 125.106C191.626 125.331 191.611 125.542 191.491 125.782C191.371 126.022 191.251 126.307 191.446 126.563C191.611 126.788 191.927 126.788 192.107 126.983C192.287 127.178 192.347 127.494 192.197 127.719C192.047 127.929 191.716 128.004 191.491 127.884C191.221 127.749 191.131 127.389 190.936 127.178C190.725 126.953 190.425 126.863 190.125 126.818C189.764 126.758 189.404 126.743 189.044 126.713C188.833 126.698 188.638 126.683 188.428 126.653C188.338 126.653 188.248 126.638 188.158 126.623C188.037 126.623 187.977 126.638 187.872 126.698C187.122 127.073 186.386 127.434 185.635 127.809C184.929 128.154 184.223 128.515 183.428 128.53C182.647 128.53 181.896 128.305 181.205 128.004C180.86 127.854 180.515 127.689 180.169 127.524C180.064 127.479 179.959 127.554 179.944 127.644C179.794 127.779 179.704 127.959 179.704 128.169C179.704 128.29 179.734 128.41 179.794 128.5C179.839 128.59 180.019 128.695 180.019 128.815C180.019 128.935 179.809 129.07 179.719 129.145C179.569 129.281 179.418 129.401 179.268 129.536C179.163 129.626 179.013 129.806 178.863 129.791C178.713 129.776 178.638 129.611 178.577 129.506C178.307 129.04 178.142 128.485 177.677 128.184C177.181 127.854 176.52 127.929 175.995 127.644C175.499 127.374 175.109 126.938 174.688 126.578C174.343 126.277 173.667 125.662 173.217 126.127C173.037 126.323 173.067 126.593 173.262 126.758C173.352 126.833 173.442 126.878 173.532 126.938C173.577 126.968 173.667 127.043 173.667 127.103C173.667 127.163 173.547 127.148 173.487 127.148C173.322 127.148 173.142 127.118 172.977 127.103C172.796 127.088 172.601 127.088 172.421 127.043C172.091 126.968 171.91 126.668 171.685 126.458C171.445 126.247 171.145 126.082 170.814 126.112C170.514 126.127 170.259 126.307 170.154 126.593C170.109 126.713 170.109 126.863 170.154 126.998C170.199 127.148 170.364 127.254 170.394 127.404C170.394 127.554 170.289 127.689 170.169 127.734C169.988 127.794 169.778 127.719 169.643 127.599C169.598 127.554 169.538 127.554 169.478 127.584C168.907 127.434 168.337 127.704 167.781 127.794C167.481 127.839 167.165 127.824 166.91 127.644C166.625 127.449 166.475 127.118 166.43 126.788C166.4 126.398 166.52 126.037 166.655 125.677C166.79 125.346 166.91 125.001 166.85 124.641C166.79 124.31 166.52 123.995 166.64 123.65C166.76 123.349 167.045 123.094 167.225 122.824C167.661 122.178 167.886 121.427 167.916 120.647C168.412 119.806 168.982 118.995 169.643 118.259C169.718 118.169 169.673 118.049 169.568 118.004C168.096 117.418 166.61 116.832 165.033 116.652C164.658 116.607 164.282 116.592 163.907 116.487C163.562 116.397 163.276 116.202 163.036 115.962C162.811 115.721 162.616 115.451 162.435 115.166C162.24 114.85 162.03 114.55 161.88 114.22C161.549 113.544 161.399 112.643 162 112.072C162.075 111.997 162.045 111.832 161.925 111.817C160.994 111.697 160.273 110.871 160.348 109.91C160.393 109.445 160.603 108.994 160.964 108.694C161.144 108.544 161.354 108.424 161.519 108.243C161.685 108.063 161.76 107.853 161.775 107.613C161.79 107.087 161.459 106.592 161.174 106.171C160.859 105.721 160.498 105.27 160.228 104.79C159.973 104.309 159.808 103.754 159.913 103.213C159.988 102.793 160.183 102.417 160.408 102.072C160.814 101.381 161.339 100.69 161.354 99.8796C161.354 99.8495 161.354 99.8345 161.354 99.8045C161.354 99.7144 161.354 99.6243 161.339 99.5342C161.339 99.4441 161.264 99.4141 161.204 99.4291C161.039 99.1738 160.814 98.9486 160.618 98.7234C160.333 98.408 160.048 97.9575 160.408 97.5821C160.889 97.0716 161.64 97.2969 162.24 97.417C162.781 97.5371 163.472 97.5371 163.727 96.9365C163.772 96.8313 163.787 96.7112 163.772 96.6061C163.742 96.4559 163.652 96.3208 163.667 96.1706C163.667 95.9003 163.952 95.6902 164.162 95.54C164.553 95.2697 165.093 94.9994 165.108 94.4588C165.123 93.8582 164.538 93.5579 164.102 93.2876C163.877 93.1525 163.652 92.9572 163.607 92.6869C163.562 92.3866 163.757 92.2665 164.027 92.2515C164.297 92.2515 164.568 92.2515 164.793 92.0713C164.988 91.9062 165.093 91.6659 165.168 91.4256C165.409 90.7499 165.634 90.0592 165.859 89.3835C165.979 89.0381 166.099 88.6927 166.219 88.3474C166.31 88.0921 166.4 87.8068 166.279 87.5365C166.159 87.2662 165.889 87.2062 165.679 87.041C165.499 86.8908 165.439 86.6356 165.469 86.4103C165.514 85.8397 166.024 85.4944 166.505 85.2841C166.79 85.164 167.09 85.0589 167.391 84.9838C167.706 84.8787 168.036 84.8036 168.367 84.8186C168.652 84.8186 168.937 84.9087 169.163 85.0889C169.403 85.2841 169.493 85.5694 169.598 85.8547C169.748 86.3202 169.988 86.8758 170.529 86.9509C171.085 87.026 171.52 86.5154 171.655 86.0349C171.82 85.4343 171.655 84.8036 171.85 84.218C171.94 83.9778 172.091 83.7525 172.346 83.6624C172.616 83.5573 172.916 83.5723 173.157 83.3921C173.592 83.0618 173.652 82.4461 173.502 81.9506C173.427 81.7404 173.337 81.5302 173.232 81.335C173.322 81.2749 173.367 81.1248 173.232 81.0797C172.917 80.9295 172.977 80.5091 173.097 80.2388C173.262 79.8484 173.607 79.5481 173.697 79.1276C173.862 78.3468 173.082 78.0315 172.676 77.5359C172.436 77.2356 172.466 76.8753 172.751 76.62C173.142 76.2746 173.712 76.3497 174.178 76.4248C175.049 76.5749 175.965 76.7251 176.731 77.2056C177.526 77.7161 177.857 78.6021 178.352 79.3529C178.788 79.9986 179.493 80.6292 180.319 80.5842C180.71 80.5691 181.01 80.374 181.28 80.1037C181.491 79.8935 181.776 79.473 182.136 79.5331C182.467 79.5931 182.497 80.0136 182.422 80.2839C182.316 80.6743 181.941 80.9445 181.656 81.1998C181.385 81.4701 181.16 81.7704 181.16 82.1758C181.16 82.4762 181.265 82.8065 181.551 82.9567C181.701 83.0468 181.896 83.0468 182.061 82.9867C182.271 82.9266 182.467 82.8065 182.677 82.8816C182.857 82.9567 183.007 83.0918 183.202 83.1519C183.398 83.212 183.593 83.1819 183.773 83.0918C183.953 83.0017 184.118 82.8516 184.253 82.7014C184.419 82.5362 184.569 82.3861 184.749 82.2359C185.124 81.9356 185.545 81.6803 185.965 81.4551C186.401 81.2299 186.836 81.0046 187.272 80.8094C187.752 80.5992 188.263 80.3889 188.803 80.3439C190.395 80.2238 191.371 81.6653 192.392 82.6413C192.647 82.8966 192.918 83.1219 193.218 83.3171C193.548 83.5273 193.909 83.6774 194.284 83.7976C194.705 83.9327 195.14 84.0528 195.44 84.4282C195.711 84.7736 195.816 85.2241 195.891 85.6445C196.086 86.6055 196.266 87.6116 195.801 88.5426C195.605 88.918 195.335 89.2934 195.275 89.7438C195.215 90.1343 195.335 90.5096 195.59 90.81C195.846 91.1253 196.191 91.3505 196.491 91.6208C196.822 91.9211 197.092 92.2665 197.287 92.6569C197.738 93.5429 197.828 94.5639 197.798 95.555C197.783 96.0505 197.723 96.546 197.678 97.0566C197.648 97.0716 197.618 97.1016 197.603 97.1467C197.422 97.8524 197.888 98.4981 198.383 98.9636C198.624 99.2039 198.894 99.4291 199.089 99.6994C199.314 99.9997 199.435 100.33 199.435 100.705L199.42 100.66Z" fill="white" stroke="#C1D7FE" stroke-width="0.55" stroke-linecap="round" stroke-linejoin="round"/>
<mask id="mask0_2464_7366" style="mask-type:luminance" maskUnits="userSpaceOnUse" x="104" y="14" width="151" height="197">
<path d="M246.87 14.4543H112.463C108.317 14.4543 104.955 17.8158 104.955 21.9623V202.693C104.955 206.84 108.317 210.201 112.463 210.201H246.87C251.017 210.201 254.378 206.84 254.378 202.693V21.9623C254.378 17.8158 251.017 14.4543 246.87 14.4543Z" fill="white"/>
</mask>
<g mask="url(#mask0_2464_7366)">
<path d="M402.289 233.675L89.6316 -9.37158L67.7165 18.8201L380.374 261.867L402.289 233.675Z" fill="url(#paint2_linear_2464_7366)"/>
<path d="M358.96 267.237L46.3022 24.1902L42.6159 28.9323L355.274 271.979L358.96 267.237Z" fill="url(#paint3_linear_2464_7366)"/>
</g>
<g opacity="0.33">
<mask id="mask1_2464_7366" style="mask-type:luminance" maskUnits="userSpaceOnUse" x="104" y="14" width="151" height="197">
<path d="M246.87 14.4543H112.463C108.317 14.4543 104.955 17.8158 104.955 21.9623V202.693C104.955 206.84 108.317 210.201 112.463 210.201H246.87C251.017 210.201 254.378 206.84 254.378 202.693V21.9623C254.378 17.8158 251.017 14.4543 246.87 14.4543Z" fill="white"/>
</mask>
<g mask="url(#mask1_2464_7366)">
<path d="M227.815 36.3923H131.578C131.106 36.3923 130.722 36.7755 130.722 37.2482V42.4737C130.722 42.9464 131.106 43.3297 131.578 43.3297H227.815C228.288 43.3297 228.671 42.9464 228.671 42.4737V37.2482C228.671 36.7755 228.288 36.3923 227.815 36.3923Z" fill="#C1D7FE"/>
<path d="M218.431 46.603H140.979C140.556 46.603 140.213 46.9459 140.213 47.3689V52.7595C140.213 53.1825 140.556 53.5254 140.979 53.5254H218.431C218.854 53.5254 219.197 53.1825 219.197 52.7595V47.3689C219.197 46.9459 218.854 46.603 218.431 46.603Z" fill="#C1D7FE"/>
<path d="M227.92 152.645H131.473C131.059 152.645 130.722 152.981 130.722 153.396V157.255C130.722 157.67 131.059 158.006 131.473 158.006H227.92C228.335 158.006 228.671 157.67 228.671 157.255V153.396C228.671 152.981 228.335 152.645 227.92 152.645Z" fill="#C1D7FE"/>
<path d="M133.139 175.649H183.773" stroke="#C1D7FE" stroke-width="0.5" stroke-linecap="round" stroke-linejoin="round"/>
<path d="M133.336 172.091H213.055" stroke="#C1D7FE" stroke-width="0.5" stroke-linecap="round" stroke-linejoin="round"/>
<path d="M133.139 195.305H183.773" stroke="#C1D7FE" stroke-width="0.5" stroke-linecap="round" stroke-linejoin="round"/>
<path d="M133.336 191.746H213.055" stroke="#C1D7FE" stroke-width="0.5" stroke-linecap="round" stroke-linejoin="round"/>
<path d="M240.293 167.316H118.725C118.31 167.316 117.974 167.652 117.974 168.066V179.674C117.974 180.088 118.31 180.425 118.725 180.425H240.293C240.708 180.425 241.044 180.088 241.044 179.674V168.066C241.044 167.652 240.708 167.316 240.293 167.316Z" stroke="#C1D7FE" stroke-width="0.5" stroke-linecap="round" stroke-linejoin="round"/>
<path d="M240.293 186.971H118.725C118.31 186.971 117.974 187.308 117.974 187.722V199.33C117.974 199.744 118.31 200.08 118.725 200.08H240.293C240.708 200.08 241.044 199.744 241.044 199.33V187.722C241.044 187.308 240.708 186.971 240.293 186.971Z" stroke="#C1D7FE" stroke-width="0.5" stroke-linecap="round" stroke-linejoin="round"/>
<path d="M128.35 170.905H123.305C123.056 170.905 122.854 171.106 122.854 171.355V176.4C122.854 176.649 123.056 176.851 123.305 176.851H128.35C128.599 176.851 128.801 176.649 128.801 176.4V171.355C128.801 171.106 128.599 170.905 128.35 170.905Z" fill="#C1D7FE"/>
<path d="M128.35 190.56H123.305C123.056 190.56 122.854 190.762 122.854 191.011V196.056C122.854 196.305 123.056 196.507 123.305 196.507H128.35C128.599 196.507 128.801 196.305 128.801 196.056V191.011C128.801 190.762 128.599 190.56 128.35 190.56Z" fill="#C1D7FE"/>
</g>
</g>
<path opacity="0.4" d="M177.691 110.931C180.096 110.931 182.045 108.981 182.045 106.577C182.045 104.172 180.096 102.222 177.691 102.222C175.286 102.222 173.336 104.172 173.336 106.577C173.336 108.981 175.286 110.931 177.691 110.931Z" fill="#C1D7FE"/>
<path opacity="0.3" d="M177.692 109.97C179.566 109.97 181.085 108.451 181.085 106.577C181.085 104.702 179.566 103.183 177.692 103.183C175.817 103.183 174.298 104.702 174.298 106.577C174.298 108.451 175.817 109.97 177.692 109.97Z" fill="#C1D7FE"/>
<path d="M177.69 109.009C179.033 109.009 180.122 107.92 180.122 106.577C180.122 105.233 179.033 104.144 177.69 104.144C176.346 104.144 175.257 105.233 175.257 106.577C175.257 107.92 176.346 109.009 177.69 109.009Z" fill="#C1D7FE"/>
<path d="M136.893 33.1638H39.3052C37.6466 33.1638 36.302 34.5084 36.302 36.167V103.468C36.302 105.127 37.6466 106.471 39.3052 106.471H136.893C138.552 106.471 139.896 105.127 139.896 103.468V36.167C139.896 34.5084 138.552 33.1638 136.893 33.1638Z" fill="url(#paint4_linear_2464_7366)"/>
<path d="M132.808 29.0796H35.8503C34.1917 29.0796 32.8472 30.4242 32.8472 32.0828V98.4229C32.8472 100.081 34.1917 101.426 35.8503 101.426H132.808C134.466 101.426 135.811 100.081 135.811 98.4229V32.0828C135.811 30.4242 134.466 29.0796 132.808 29.0796Z" fill="url(#paint5_linear_2464_7366)"/>
<path d="M132.808 29.0796H35.8503C34.1917 29.0796 32.8472 30.4242 32.8472 32.0828V98.4229C32.8472 100.081 34.1917 101.426 35.8503 101.426H132.808C134.466 101.426 135.811 100.081 135.811 98.4229V32.0828C135.811 30.4242 134.466 29.0796 132.808 29.0796Z" stroke="#777777" stroke-width="0.5" stroke-linecap="round" stroke-linejoin="round"/>
<path opacity="0.65" d="M78.0754 39.9812H43.0584C42.7267 39.9812 42.4578 40.2501 42.4578 40.5818V89.9239C42.4578 90.2557 42.7267 90.5246 43.0584 90.5246H78.0754C78.4071 90.5246 78.676 90.2557 78.676 89.9239V40.5818C78.676 40.2501 78.4071 39.9812 78.0754 39.9812Z" fill="white"/>
<g style="mix-blend-mode:multiply">
<path d="M89.969 57.7297H126.202" stroke="#A4C9FF" stroke-width="0.5" stroke-miterlimit="10" stroke-linecap="round"/>
</g>
<g style="mix-blend-mode:multiply">
<path d="M89.969 63.0757H126.202" stroke="#A4C9FF" stroke-width="0.5" stroke-miterlimit="10" stroke-linecap="round"/>
</g>
<g style="mix-blend-mode:multiply">
<path d="M89.969 68.1057H126.202" stroke="#A4C9FF" stroke-width="0.5" stroke-miterlimit="10" stroke-linecap="round"/>
</g>
<g style="mix-blend-mode:multiply">
<path d="M89.969 73.4514H126.202" stroke="#A4C9FF" stroke-width="0.5" stroke-miterlimit="10" stroke-linecap="round"/>
</g>
<g style="mix-blend-mode:multiply">
<path d="M89.969 78.7971H126.202" stroke="#A4C9FF" stroke-width="0.5" stroke-miterlimit="10" stroke-linecap="round"/>
</g>
<g style="mix-blend-mode:multiply">
<path d="M89.969 84.1279H126.202" stroke="#A4C9FF" stroke-width="0.5" stroke-miterlimit="10" stroke-linecap="round"/>
</g>
<g style="mix-blend-mode:multiply">
<path d="M89.969 89.4734H126.202" stroke="#A4C9FF" stroke-width="0.5" stroke-miterlimit="10" stroke-linecap="round"/>
</g>
<g style="mix-blend-mode:multiply">
<path d="M125.587 39.9812H90.5696C90.2379 39.9812 89.969 40.2501 89.969 40.5818V44.3508C89.969 44.6825 90.2379 44.9514 90.5696 44.9514H125.587C125.918 44.9514 126.187 44.6825 126.187 44.3508V40.5818C126.187 40.2501 125.918 39.9812 125.587 39.9812Z" fill="#A4C9FF"/>
</g>
<g style="mix-blend-mode:multiply">
<path d="M125.587 47.3989H90.5696C90.2379 47.3989 89.969 47.6678 89.969 47.9996V51.7685C89.969 52.1002 90.2379 52.3692 90.5696 52.3692H125.587C125.918 52.3692 126.187 52.1002 126.187 51.7685V47.9996C126.187 47.6678 125.918 47.3989 125.587 47.3989Z" fill="#A4C9FF"/>
</g>
<path d="M48.8112 29.0795C48.3607 24.7399 49.1565 21.1361 51.3489 18.5233C61.5446 6.39051 98.0482 20.3102 132.9 49.5912C154.928 68.1057 171.896 90.164 178.173 105.6" stroke="#C1D7FE" stroke-width="0.5" stroke-linecap="round" stroke-linejoin="round"/>
<path d="M159.116 76.59L156.308 74.9683C155.992 74.7881 155.992 74.3226 156.308 74.1424L159.116 72.5207C159.431 72.3405 159.821 72.5658 159.821 72.9261V76.1695C159.821 76.5299 159.431 76.7552 159.116 76.575V76.59Z" fill="#C1D7FE"/>
<path d="M78.4375 17.4725L74.233 18.4034C73.7675 18.5085 73.3471 18.0581 73.4973 17.5926L74.7886 13.4933C74.9388 13.0278 75.5244 12.9076 75.8548 13.253L78.7678 16.4214C79.0982 16.7817 78.918 17.3524 78.4375 17.4575V17.4725Z" fill="#C1D7FE"/>
<path d="M303.839 68.1509H229.285C227.627 68.1509 226.282 69.4954 226.282 71.1541V190.515C226.282 192.174 227.627 193.518 229.285 193.518H303.839C305.498 193.518 306.842 192.174 306.842 190.515V71.1541C306.842 69.4954 305.498 68.1509 303.839 68.1509Z" fill="url(#paint6_linear_2464_7366)"/>
<path d="M300.267 65.4932H225.713C224.054 65.4932 222.71 66.8377 222.71 68.4963V187.512C222.71 189.171 224.054 190.515 225.713 190.515H300.267C301.925 190.515 303.27 189.171 303.27 187.512V68.4963C303.27 66.8377 301.925 65.4932 300.267 65.4932Z" fill="url(#paint7_linear_2464_7366)"/>
<g style="mix-blend-mode:multiply">
<path d="M295.399 75.0884H230.291C229.959 75.0884 229.69 75.3573 229.69 75.6891V80.8996C229.69 81.2313 229.959 81.5002 230.291 81.5002H295.399C295.731 81.5002 296 81.2313 296 80.8996V75.6891C296 75.3573 295.731 75.0884 295.399 75.0884Z" fill="#FEC972"/>
</g>
<g style="mix-blend-mode:multiply">
<path d="M295.399 85.0439H230.291C229.959 85.0439 229.69 85.3128 229.69 85.6446V90.8551C229.69 91.1868 229.959 91.4557 230.291 91.4557H295.399C295.731 91.4557 296 91.1868 296 90.8551V85.6446C296 85.3128 295.731 85.0439 295.399 85.0439Z" fill="#FEC972"/>
</g>
<g style="mix-blend-mode:multiply">
<path d="M229.992 99.3237H296.002" stroke="#FEC972" stroke-width="0.5" stroke-linecap="round" stroke-linejoin="round"/>
</g>
<g style="mix-blend-mode:multiply">
<path d="M229.992 105.15H296.002" stroke="#FEC972" stroke-width="0.5" stroke-linecap="round" stroke-linejoin="round"/>
</g>
<g style="mix-blend-mode:multiply">
<path d="M229.992 110.961H296.002" stroke="#FEC972" stroke-width="0.5" stroke-linecap="round" stroke-linejoin="round"/>
</g>
<g style="mix-blend-mode:multiply">
<path d="M229.992 116.772H296.002" stroke="#FEC972" stroke-width="0.5" stroke-linecap="round" stroke-linejoin="round"/>
</g>
<g style="mix-blend-mode:multiply">
<path d="M229.992 122.583H296.002" stroke="#FEC972" stroke-width="0.5" stroke-linecap="round" stroke-linejoin="round"/>
</g>
<g style="mix-blend-mode:multiply">
<path d="M229.992 128.41H296.002" stroke="#FEC972" stroke-width="0.5" stroke-linecap="round" stroke-linejoin="round"/>
</g>
<g style="mix-blend-mode:multiply">
<path d="M303.27 138.515H222.71" stroke="#FEC972" stroke-width="0.5" stroke-linecap="round" stroke-linejoin="round"/>
</g>
<path opacity="0.65" d="M246.134 167.316C249.443 167.316 252.125 164.634 252.125 161.325C252.125 158.016 249.443 155.333 246.134 155.333C242.825 155.333 240.142 158.016 240.142 161.325C240.142 164.634 242.825 167.316 246.134 167.316Z" fill="white"/>
<path opacity="0.65" d="M258.13 175.605C255.187 178.848 250.893 180.935 246.148 180.935C241.403 180.935 237.108 178.848 234.165 175.605C236.973 172.091 241.313 169.779 246.148 169.779C250.983 169.779 255.337 172.091 258.13 175.605Z" fill="white"/>
<g style="mix-blend-mode:multiply">
<path d="M246.149 148.636C255.068 148.636 262.291 155.874 262.291 164.793C262.291 173.713 255.053 180.935 246.149 180.935C237.244 180.935 230.007 173.698 230.007 164.793C230.007 155.889 237.244 148.636 246.149 148.636ZM246.149 147.885C236.824 147.885 229.256 155.468 229.256 164.793C229.256 174.118 236.839 181.686 246.149 181.686C255.459 181.686 263.042 174.103 263.042 164.793C263.042 155.483 255.459 147.885 246.149 147.885Z" fill="#FEC972"/>
</g>
<g style="mix-blend-mode:multiply">
<path d="M294.498 150.678C295.324 150.678 296 151.354 296 152.18V177.151C296 177.977 295.324 178.653 294.498 178.653H273.611C272.785 178.653 272.11 177.977 272.11 177.151V152.18C272.11 151.354 272.785 150.678 273.611 150.678H294.498ZM294.498 149.927H273.611C272.365 149.927 271.359 150.933 271.359 152.18V177.151C271.359 178.397 272.365 179.403 273.611 179.403H294.498C295.745 179.403 296.751 178.397 296.751 177.151V152.18C296.751 150.933 295.745 149.927 294.498 149.927Z" fill="#FEC972"/>
</g>
<path opacity="0.65" d="M291.166 154.823H276.916C276.584 154.823 276.315 155.091 276.315 155.423V156.985C276.315 157.317 276.584 157.585 276.916 157.585H291.166C291.498 157.585 291.767 157.317 291.767 156.985V155.423C291.767 155.091 291.498 154.823 291.166 154.823Z" fill="white"/>
<path opacity="0.65" d="M291.166 160.469H276.916C276.584 160.469 276.315 160.737 276.315 161.069V162.631C276.315 162.963 276.584 163.231 276.916 163.231H291.166C291.498 163.231 291.767 162.963 291.767 162.631V161.069C291.767 160.737 291.498 160.469 291.166 160.469Z" fill="white"/>
<path opacity="0.65" d="M291.166 166.1H276.916C276.584 166.1 276.315 166.369 276.315 166.7V168.262C276.315 168.594 276.584 168.863 276.916 168.863H291.166C291.498 168.863 291.767 168.594 291.767 168.262V166.7C291.767 166.369 291.498 166.1 291.166 166.1Z" fill="white"/>
<path opacity="0.65" d="M291.166 171.746H276.916C276.584 171.746 276.315 172.015 276.315 172.346V173.908C276.315 174.24 276.584 174.509 276.916 174.509H291.166C291.498 174.509 291.767 174.24 291.767 173.908V172.346C291.767 172.015 291.498 171.746 291.166 171.746Z" fill="white"/>
<path d="M300.267 65.4932H225.713C224.054 65.4932 222.71 66.8377 222.71 68.4963V187.512C222.71 189.171 224.054 190.515 225.713 190.515H300.267C301.925 190.515 303.27 189.171 303.27 187.512V68.4963C303.27 66.8377 301.925 65.4932 300.267 65.4932Z" stroke="#777777" stroke-width="0.5" stroke-linecap="round" stroke-linejoin="round"/>
<path d="M303.268 91.3354C312.382 82.3559 316.632 73.4966 313.959 66.6193C308.238 51.8437 272.831 51.7836 234.885 66.4842C206.566 77.4608 184.838 93.5578 178.005 107.162" stroke="#C1D7FE" stroke-width="0.5" stroke-linecap="round" stroke-linejoin="round"/>
<path d="M276.271 56.9343L280.13 58.8413C280.566 59.0515 281.061 58.7212 281.031 58.2407L280.746 53.9461C280.716 53.4656 280.175 53.1953 279.77 53.4656L276.196 55.8531C275.79 56.1234 275.836 56.7241 276.271 56.9343Z" fill="#C1D7FE"/>
<path d="M199.389 85.5843L202.618 85.3741C202.978 85.344 203.188 84.9386 202.978 84.6383L201.176 81.9355C200.981 81.6352 200.515 81.6652 200.35 81.9955L198.909 84.9086C198.744 85.2389 198.999 85.6143 199.359 85.5843H199.389Z" fill="#C1D7FE"/>
<defs>
<radialGradient id="paint0_radial_2464_7366" cx="0" cy="0" r="1" gradientUnits="userSpaceOnUse" gradientTransform="translate(179.674 245.473) scale(255.585 255.585)">
<stop stop-color="#FFBD50" stop-opacity="0.8"/>
<stop offset="0.09" stop-color="#FFC05A" stop-opacity="0.49"/>
<stop offset="0.33" stop-color="#FFCA73" stop-opacity="0.2025"/>
<stop offset="0.55" stop-color="#FFD287" stop-opacity="0.0676"/>
<stop offset="0.74" stop-color="#FFD895" stop-opacity="0.0144"/>
<stop offset="0.9" stop-color="#FFDB9E" stop-opacity="0.01"/>
<stop offset="1" stop-color="#FFDDA2" stop-opacity="0"/>
</radialGradient>
<linearGradient id="paint1_linear_2464_7366" x1="179.673" y1="-17.1693" x2="179.673" y2="352.476" gradientUnits="userSpaceOnUse">
<stop stop-color="#D8D8D8" stop-opacity="0"/>
<stop offset="0.14" stop-color="#D8D8D8" stop-opacity="0.01"/>
<stop offset="0.28" stop-color="#D8D8D8" stop-opacity="0.01"/>
<stop offset="0.41" stop-color="#D8D8D8" stop-opacity="0.0256"/>
<stop offset="0.54" stop-color="#D8D8D8" stop-opacity="0.0784"/>
<stop offset="0.67" stop-color="#D8D8D8" stop-opacity="0.2025"/>
<stop offset="0.8" stop-color="#D8D8D8" stop-opacity="0.4096"/>
<stop offset="0.93" stop-color="#D8D8D8" stop-opacity="0.7569"/>
<stop offset="0.99" stop-color="#D8D8D8"/>
</linearGradient>
<linearGradient id="paint2_linear_2464_7366" x1="185.184" y1="183.695" x2="262.368" y2="94.8064" gradientUnits="userSpaceOnUse">
<stop offset="0.13" stop-color="#D8D8D8"/>
<stop offset="0.21" stop-color="#D8D8D8" stop-opacity="0.7056"/>
<stop offset="0.36" stop-color="#D8D8D8" stop-opacity="0.3481"/>
<stop offset="0.51" stop-color="#D8D8D8" stop-opacity="0.1444"/>
<stop offset="0.65" stop-color="#D8D8D8" stop-opacity="0.0441"/>
<stop offset="0.79" stop-color="#D8D8D8" stop-opacity="0.01"/>
<stop offset="0.9" stop-color="#D8D8D8" stop-opacity="0.01"/>
<stop offset="1" stop-color="#D8D8D8" stop-opacity="0"/>
</linearGradient>
<linearGradient id="paint3_linear_2464_7366" x1="516.311" y1="264.899" x2="538.667" y2="239.494" gradientUnits="userSpaceOnUse">
<stop offset="0.13" stop-color="#D8D8D8"/>
<stop offset="0.29" stop-color="#D8D8D8" stop-opacity="0.6084"/>
<stop offset="0.54" stop-color="#D8D8D8" stop-opacity="0.2025"/>
<stop offset="0.75" stop-color="#D8D8D8" stop-opacity="0.04"/>
<stop offset="0.91" stop-color="#D8D8D8" stop-opacity="0.01"/>
<stop offset="1" stop-color="#D8D8D8" stop-opacity="0"/>
</linearGradient>
<linearGradient id="paint4_linear_2464_7366" x1="5.39934" y1="153.351" x2="154.402" y2="2.86179" gradientUnits="userSpaceOnUse">
<stop offset="0.13" stop-color="#D8D8D8"/>
<stop offset="0.14" stop-color="#D8D8D8" stop-opacity="0.9604"/>
<stop offset="0.27" stop-color="#D8D8D8" stop-opacity="0.5184"/>
<stop offset="0.4" stop-color="#D8D8D8" stop-opacity="0.25"/>
<stop offset="0.52" stop-color="#D8D8D8" stop-opacity="0.1024"/>
<stop offset="0.65" stop-color="#D8D8D8" stop-opacity="0.0324"/>
<stop offset="0.77" stop-color="#D8D8D8" stop-opacity="0.01"/>
<stop offset="0.89" stop-color="#D8D8D8" stop-opacity="0.01"/>
<stop offset="1" stop-color="#D8D8D8" stop-opacity="0"/>
</linearGradient>
<linearGradient id="paint5_linear_2464_7366" x1="125.675" y1="14.319" x2="28.5376" y2="133.995" gradientUnits="userSpaceOnUse">
<stop stop-color="#A4C9FF"/>
<stop offset="0.23" stop-color="#A0C6FD"/>
<stop offset="0.43" stop-color="#95BEFA"/>
<stop offset="0.62" stop-color="#83B1F4"/>
<stop offset="0.8" stop-color="#6B9EEB"/>
<stop offset="0.89" stop-color="#5B93E6"/>
</linearGradient>
<linearGradient id="paint6_linear_2464_7366" x1="198.173" y1="221.178" x2="347.626" y2="23.734" gradientUnits="userSpaceOnUse">
<stop offset="0.13" stop-color="#D8D8D8"/>
<stop offset="0.14" stop-color="#D8D8D8" stop-opacity="0.9604"/>
<stop offset="0.27" stop-color="#D8D8D8" stop-opacity="0.5184"/>
<stop offset="0.4" stop-color="#D8D8D8" stop-opacity="0.25"/>
<stop offset="0.52" stop-color="#D8D8D8" stop-opacity="0.1024"/>
<stop offset="0.65" stop-color="#D8D8D8" stop-opacity="0.0324"/>
<stop offset="0.77" stop-color="#D8D8D8" stop-opacity="0.01"/>
<stop offset="0.89" stop-color="#D8D8D8" stop-opacity="0.01"/>
<stop offset="1" stop-color="#D8D8D8" stop-opacity="0"/>
</linearGradient>
<linearGradient id="paint7_linear_2464_7366" x1="188.203" y1="178.458" x2="336.08" y2="78.7222" gradientUnits="userSpaceOnUse">
<stop stop-color="#FFBD50"/>
<stop offset="0.15" stop-color="#FFC360"/>
<stop offset="0.51" stop-color="#FFD184"/>
<stop offset="0.81" stop-color="#FFD999"/>
<stop offset="1" stop-color="#FFDDA2"/>
</linearGradient>
</defs>
</svg>
