<svg width="17" height="16" viewBox="0 0 17 16" fill="none" xmlns="http://www.w3.org/2000/svg">
<g clip-path="url(#clip0_3000_2022)">
<path d="M4.51405 0.623976C3.70338 0.623976 2.95138 0.826643 2.25805 1.23198C1.58605 1.62664 1.05272 2.15998 0.658049 2.83198C0.252715 3.52531 0.0500488 4.27731 0.0500488 5.08798V10.912C0.0500488 11.7226 0.252715 12.4746 0.658049 13.168C1.05272 13.84 1.58605 14.3733 2.25805 14.768C2.95138 15.1733 3.70338 15.376 4.51405 15.376H10.338C11.1487 15.376 11.9007 15.1733 12.594 14.768C13.266 14.3733 13.7994 13.84 14.194 13.168C14.5994 12.4746 14.802 11.7226 14.802 10.912V5.08798C14.802 4.27731 14.5994 3.52531 14.194 2.83198C13.7994 2.15998 13.266 1.62664 12.594 1.23198C11.9007 0.826643 11.1487 0.623976 10.338 0.623976H4.51405ZM11.314 3.34398C11.5274 3.34398 11.7087 3.41864 11.858 3.56798C12.0074 3.71731 12.082 3.89864 12.082 4.11198C12.082 4.32531 12.0074 4.50931 11.858 4.66398C11.7087 4.81864 11.5274 4.89598 11.314 4.89598C11.1007 4.89598 10.9167 4.81864 10.762 4.66398C10.6074 4.50931 10.53 4.32531 10.53 4.11198C10.53 3.89864 10.6074 3.71731 10.762 3.56798C10.9167 3.41864 11.1007 3.34398 11.314 3.34398ZM7.42605 4.11198C8.13005 4.11198 8.78072 4.28531 9.37805 4.63198C9.97538 4.97864 10.4474 5.45064 10.794 6.04798C11.1407 6.64531 11.314 7.29598 11.314 7.99998C11.314 8.70398 11.1407 9.35198 10.794 9.94398C10.4474 10.536 9.97538 11.0053 9.37805 11.352C8.78072 11.6986 8.13005 11.872 7.42605 11.872C6.72205 11.872 6.07405 11.6986 5.48205 11.352C4.89005 11.0053 4.42072 10.536 4.07405 9.94398C3.72738 9.35198 3.55405 8.70398 3.55405 7.99998C3.55405 7.29598 3.72738 6.64531 4.07405 6.04798C4.42072 5.45064 4.89005 4.97864 5.48205 4.63198C6.07405 4.28531 6.72205 4.11198 7.42605 4.11198ZM7.42605 5.27998C7.09538 5.27998 6.74872 5.34931 6.38605 5.48798C6.03405 5.64798 5.73805 5.84798 5.49805 6.08798C5.25805 6.32798 5.06338 6.61864 4.91405 6.95998C4.77538 7.32264 4.70605 7.66931 4.70605 7.99998C4.70605 8.33064 4.77538 8.67731 4.91405 9.03998C5.07405 9.39198 5.27138 9.68531 5.50605 9.91998C5.74072 10.1546 6.03405 10.352 6.38605 10.512C6.74872 10.6506 7.09538 10.72 7.42605 10.72C7.75672 10.72 8.10338 10.6506 8.46605 10.512C8.80738 10.3626 9.09805 10.168 9.33805 9.92798C9.57805 9.68798 9.77805 9.39198 9.93805 9.03998C10.0767 8.67731 10.146 8.33064 10.146 7.99998C10.146 7.66931 10.0767 7.32264 9.93805 6.95998C9.79938 6.61864 9.60472 6.32264 9.35405 6.07198C9.10338 5.82131 8.80738 5.62664 8.46605 5.48798C8.10338 5.34931 7.75672 5.27998 7.42605 5.27998Z" fill="#FE9F0F"/>
</g>
<defs>
<clipPath id="clip0_3000_2022">
<rect width="16.02" height="16" fill="white" transform="matrix(1 0 0 -1 0.0400391 16)"/>
</clipPath>
</defs>
</svg>
