<svg width="17" height="16" viewBox="0 0 17 16" fill="none" xmlns="http://www.w3.org/2000/svg">
<g clip-path="url(#clip0_3000_2024)">
<path d="M0.0708008 2.56027C0.0708008 2.06961 0.236134 1.66961 0.566801 1.36027C0.897467 1.05094 1.34013 0.896273 1.8948 0.896273C2.44947 0.896273 2.89213 1.05361 3.2228 1.36827C3.55347 1.68294 3.7188 2.09627 3.7188 2.60827C3.7188 3.06694 3.54813 3.45361 3.2068 3.76827C2.86547 4.08294 2.4228 4.24027 1.8788 4.24027H1.8628C1.3188 4.24027 0.884134 4.08027 0.558801 3.76027C0.233467 3.44027 0.0708008 3.04027 0.0708008 2.56027ZM0.262801 15.2803V5.56827H3.4948V15.2803H0.262801ZM5.2868 15.2803H8.5348V9.85627C8.5348 9.51494 8.57213 9.25361 8.6468 9.07227C8.7748 8.74161 8.9828 8.46161 9.2708 8.23227C9.5588 8.00294 9.90547 7.88827 10.3108 7.88827C11.3988 7.88827 11.9428 8.62427 11.9428 10.0963V15.2803H15.1748V9.71227C15.1748 8.26161 14.8361 7.17094 14.1588 6.44027C13.4815 5.70961 12.5828 5.34427 11.4628 5.34427C10.1935 5.34427 9.21747 5.87761 8.5348 6.94427V6.97627H8.5188L8.5348 6.94427V5.56827H5.2868C5.30813 5.97361 5.3188 6.93894 5.3188 8.46427C5.3188 9.28561 5.31347 10.9016 5.3028 13.3123L5.2868 15.2803Z" fill="#FE9F0F"/>
</g>
<defs>
<clipPath id="clip0_3000_2024">
<rect width="16.02" height="16" fill="white" transform="matrix(1 0 0 -1 0.0600586 16)"/>
</clipPath>
</defs>
</svg>
