<svg width="14" height="12" viewBox="0 0 14 12" fill="none" xmlns="http://www.w3.org/2000/svg">
<path d="M0 3.71108V9.50008C0 10.1189 0.245833 10.7124 0.683417 11.15C1.121 11.5876 1.71449 11.8334 2.33333 11.8334H11.6667C12.2855 11.8334 12.879 11.5876 13.3166 11.15C13.7542 10.7124 14 10.1189 14 9.50008V2.50008C14 1.88124 13.7542 1.28775 13.3166 0.850165C12.879 0.412581 12.2855 0.166748 11.6667 0.166748H2.33333C1.71449 0.166748 1.121 0.412581 0.683417 0.850165C0.245833 1.28775 0 1.88124 0 2.50008V3.71108ZM2.33333 1.33341H11.6667C11.9761 1.33341 12.2728 1.45633 12.4916 1.67512C12.7104 1.89392 12.8333 2.19066 12.8333 2.50008V3.36341L7 6.50408L1.16667 3.36341V2.50008C1.16667 2.19066 1.28958 1.89392 1.50838 1.67512C1.72717 1.45633 2.02391 1.33341 2.33333 1.33341ZM1.16667 4.68875L6.7235 7.68008C6.80848 7.72583 6.90349 7.74978 7 7.74978C7.09651 7.74978 7.19152 7.72583 7.2765 7.68008L12.8333 4.68875V9.50008C12.8333 9.8095 12.7104 10.1062 12.4916 10.325C12.2728 10.5438 11.9761 10.6667 11.6667 10.6667H2.33333C2.02391 10.6667 1.72717 10.5438 1.50838 10.325C1.28958 10.1062 1.16667 9.8095 1.16667 9.50008V4.68875Z" fill="#FE9F0F"/>
</svg>
