<svg width="205" height="122" viewBox="0 0 205 122" fill="none" xmlns="http://www.w3.org/2000/svg">
<path opacity="0.7" d="M204.312 121.202H0.661377L25.4399 103.179H179.54L204.312 121.202Z" fill="url(#paint0_radial_2640_764)"/>
<path opacity="0.3" d="M204.312 114.673L0.661377 114.667L25.4399 96.6439H179.54L204.312 114.673Z" stroke="#777777" stroke-width="0.5" stroke-linecap="round" stroke-linejoin="round"/>
<path d="M42.5538 17.4362H161.798C163.623 17.4362 165.104 18.9134 165.104 20.7335V103.423H39.2473V20.7335C39.2473 18.9134 40.7286 17.4362 42.5538 17.4362Z" fill="white" stroke="#777777" stroke-width="0.5" stroke-linecap="round" stroke-linejoin="round"/>
<path d="M157.731 22.4547C159.192 22.4547 160.376 23.6351 160.376 25.0925V99.5719H43.9825V25.0925C43.9825 23.6351 45.1662 22.4547 46.6277 22.4547H157.738M157.731 22.1249H46.6277C44.9877 22.1249 43.6519 23.457 43.6519 25.0925V99.5719C43.6519 99.7565 43.7973 99.9016 43.9825 99.9016H160.383C160.568 99.9016 160.713 99.7565 160.713 99.5719V25.0925C160.713 23.457 159.378 22.1249 157.738 22.1249H157.731Z" fill="#C1D7FE"/>
<path d="M35.1414 103.417H169.833V105.626C169.833 106.879 168.808 107.901 167.551 107.901H37.4228C36.1664 107.901 35.1414 106.879 35.1414 105.626V103.417Z" fill="#D8D8D8"/>
<path d="M35.1414 103.417H169.833V105.626C169.833 106.879 168.808 107.901 167.551 107.901H37.4228C36.1664 107.901 35.1414 106.879 35.1414 105.626V103.417Z" stroke="#777777" stroke-width="0.5" stroke-linecap="round" stroke-linejoin="round"/>
<path d="M90.345 103.417H114.634V103.957C114.634 104.683 114.039 105.276 113.312 105.276H91.6676C90.9401 105.276 90.345 104.683 90.345 103.957V103.417Z" fill="white" stroke="#777777" stroke-width="0.5" stroke-linecap="round" stroke-linejoin="round"/>
<g opacity="0.55">
<path d="M13.3113 37.675V45.938" stroke="#C1D7FE" stroke-width="0.5" stroke-linecap="round" stroke-linejoin="round"/>
<path d="M17.4576 41.8098H9.17163" stroke="#C1D7FE" stroke-width="0.5" stroke-linecap="round" stroke-linejoin="round"/>
<path d="M175.591 11.9363L170.883 12.576" stroke="#C1D7FE" stroke-width="0.5" stroke-linecap="round" stroke-linejoin="round"/>
<path d="M173.555 14.6005L172.92 9.90515" stroke="#C1D7FE" stroke-width="0.5" stroke-linecap="round" stroke-linejoin="round"/>
<path d="M91.5878 10.6042L89.1013 13.9015" stroke="#C1D7FE" stroke-width="0.5" stroke-linecap="round" stroke-linejoin="round"/>
<path d="M91.9983 13.4926L88.6919 11.0131" stroke="#C1D7FE" stroke-width="0.5" stroke-linecap="round" stroke-linejoin="round"/>
<path d="M25.8958 69.0521C27.4626 69.0521 28.7327 67.7855 28.7327 66.223C28.7327 64.6605 27.4626 63.3939 25.8958 63.3939C24.329 63.3939 23.0588 64.6605 23.0588 66.223C23.0588 67.7855 24.329 69.0521 25.8958 69.0521Z" stroke="#C1D7FE" stroke-width="0.5" stroke-linecap="round" stroke-linejoin="round"/>
<path d="M176.742 54.6033C177.849 54.6033 178.746 53.7087 178.746 52.6052C178.746 51.5016 177.849 50.607 176.742 50.607C175.635 50.607 174.738 51.5016 174.738 52.6052C174.738 53.7087 175.635 54.6033 176.742 54.6033Z" stroke="#C1D7FE" stroke-width="0.5" stroke-linecap="round" stroke-linejoin="round"/>
<path d="M178.746 22.9097C179.484 22.9097 180.082 22.3133 180.082 21.5776C180.082 20.8419 179.484 20.2455 178.746 20.2455C178.008 20.2455 177.41 20.8419 177.41 21.5776C177.41 22.3133 178.008 22.9097 178.746 22.9097Z" stroke="#C1D7FE" stroke-width="0.5" stroke-linecap="round" stroke-linejoin="round"/>
<path d="M13.3108 91.599L16.2205 86.5805H10.4011L13.3108 91.599Z" stroke="#C1D7FE" stroke-width="0.5" stroke-linecap="round" stroke-linejoin="round"/>
<path d="M26.5239 25.9828L30.5512 25.0595L27.7341 22.0392L26.5239 25.9828Z" stroke="#C1D7FE" stroke-width="0.5" stroke-linecap="round" stroke-linejoin="round"/>
<path d="M105.608 0.751862V6.54851L100.576 3.65348L105.608 0.751862Z" stroke="#C1D7FE" stroke-width="0.5" stroke-linecap="round" stroke-linejoin="round"/>
<path d="M181.272 84.3845L186.629 86.6333L185.901 80.8828L181.272 84.3845Z" stroke="#C1D7FE" stroke-width="0.5" stroke-linecap="round" stroke-linejoin="round"/>
</g>
<path d="M69.575 74.2354L126.082 41.7043" stroke="#C1D7FE" stroke-width="0.5" stroke-linecap="round" stroke-linejoin="round"/>
<path d="M76.082 40.5304L132.245 73.6617" stroke="#C1D7FE" stroke-width="0.5" stroke-linecap="round" stroke-linejoin="round"/>
<path d="M101.779 61.0595C104.752 61.0595 107.162 58.6562 107.162 55.6915C107.162 52.7268 104.752 50.3235 101.779 50.3235C98.806 50.3235 96.396 52.7268 96.396 55.6915C96.396 58.6562 98.806 61.0595 101.779 61.0595Z" fill="white" stroke="#C1D7FE" stroke-width="0.5" stroke-linecap="round" stroke-linejoin="round"/>
<mask id="mask0_2640_764" style="mask-type:luminance" maskUnits="userSpaceOnUse" x="43" y="22" width="118" height="78">
<path d="M46.6276 22.4547H157.738C159.199 22.4547 160.383 23.6351 160.383 25.0925V99.5719H43.9824V25.0925C43.9824 23.6351 45.1661 22.4547 46.6276 22.4547Z" fill="white"/>
</mask>
<g mask="url(#mask0_2640_764)">
<path d="M189.731 89.6614L39.6311 1.10315L31.6238 14.5999L181.724 103.158L189.731 89.6614Z" fill="url(#paint1_linear_2640_764)"/>
<path d="M172.666 106.676L22.5667 18.1182L21.2198 20.3885L171.319 108.947L172.666 106.676Z" fill="url(#paint2_linear_2640_764)"/>
</g>
<path d="M98.2407 76.0292H50.1715C49.441 76.0292 48.8489 76.6197 48.8489 77.3481V95.813C48.8489 96.5414 49.441 97.1319 50.1715 97.1319H98.2407C98.9711 97.1319 99.5632 96.5414 99.5632 95.813V77.3481C99.5632 76.6197 98.9711 76.0292 98.2407 76.0292Z" fill="url(#paint3_linear_2640_764)"/>
<path d="M96.4428 74.2355H48.3736C47.6432 74.2355 47.051 74.826 47.051 75.5544V94.0193C47.051 94.7477 47.6432 95.3382 48.3736 95.3382H96.4428C97.1732 95.3382 97.7654 94.7477 97.7654 94.0193V75.5544C97.7654 74.826 97.1732 74.2355 96.4428 74.2355Z" fill="url(#paint4_linear_2640_764)"/>
<path d="M96.4428 74.2355H48.3736C47.6432 74.2355 47.051 74.826 47.051 75.5544V94.0193C47.051 94.7477 47.6432 95.3382 48.3736 95.3382H96.4428C97.1732 95.3382 97.7654 94.7477 97.7654 94.0193V75.5544C97.7654 74.826 97.1732 74.2355 96.4428 74.2355Z" stroke="#777777" stroke-width="0.5" stroke-linecap="round" stroke-linejoin="round"/>
<path opacity="0.65" d="M61.5992 85.8947C63.0565 85.8947 64.2378 84.7166 64.2378 83.2634C64.2378 81.8103 63.0565 80.6322 61.5992 80.6322C60.142 80.6322 58.9607 81.8103 58.9607 83.2634C58.9607 84.7166 60.142 85.8947 61.5992 85.8947Z" fill="white"/>
<path opacity="0.65" d="M66.8828 89.5415C65.5867 90.9659 63.6954 91.8826 61.6057 91.8826C59.516 91.8826 57.6247 90.9659 56.3286 89.5415C57.5652 87.9984 59.4764 86.9828 61.6057 86.9828C63.7351 86.9828 65.6528 87.9984 66.8828 89.5415Z" fill="white"/>
<g style="mix-blend-mode:multiply">
<path d="M61.5994 77.691C65.5275 77.691 68.7083 80.8696 68.7083 84.7802C68.7083 88.6908 65.5209 91.8694 61.5994 91.8694C57.678 91.8694 54.4906 88.6908 54.4906 84.7802C54.4906 80.8696 57.678 77.691 61.5994 77.691ZM61.5994 77.3613C57.4928 77.3613 54.1599 80.6916 54.1599 84.7802C54.1599 88.8689 57.4994 92.1992 61.5994 92.1992C65.6994 92.1992 69.0389 88.8689 69.0389 84.7802C69.0389 80.6916 65.6994 77.3613 61.5994 77.3613Z" fill="#FEC972"/>
</g>
<g style="mix-blend-mode:multiply">
<path d="M89.6648 80.375C90.0285 80.375 90.3261 80.6718 90.3261 81.0345V88.5391C90.3261 88.9018 90.0285 89.1986 89.6648 89.1986H73.9922C73.6285 89.1986 73.3309 88.9018 73.3309 88.5391V81.0345C73.3309 80.6718 73.6285 80.375 73.9922 80.375H89.6648ZM89.6648 80.0453H73.9922C73.4433 80.0453 73.0002 80.4871 73.0002 81.0345V88.5391C73.0002 89.0865 73.4433 89.5283 73.9922 89.5283H89.6648C90.2136 89.5283 90.6567 89.0865 90.6567 88.5391V81.0345C90.6567 80.4871 90.2136 80.0453 89.6648 80.0453Z" fill="#FEC972"/>
</g>
<path opacity="0.65" d="M88.3084 82.2545H75.5521C75.406 82.2545 75.2876 82.3726 75.2876 82.5182V83.8635C75.2876 84.0092 75.406 84.1273 75.5521 84.1273H88.3084C88.4545 84.1273 88.5729 84.0092 88.5729 83.8635V82.5182C88.5729 82.3726 88.4545 82.2545 88.3084 82.2545Z" fill="white"/>
<path opacity="0.65" d="M88.3084 85.4462H75.5521C75.406 85.4462 75.2876 85.5643 75.2876 85.71V87.0553C75.2876 87.201 75.406 87.3191 75.5521 87.3191H88.3084C88.4545 87.3191 88.5729 87.201 88.5729 87.0553V85.71C88.5729 85.5643 88.4545 85.4462 88.3084 85.4462Z" fill="white"/>
<path d="M152.031 7.48495H119.198C118.467 7.48495 117.875 8.07545 117.875 8.80387V41.546C117.875 42.2745 118.467 42.865 119.198 42.865H152.031C152.761 42.865 153.353 42.2745 153.353 41.546V8.80387C153.353 8.07545 152.761 7.48495 152.031 7.48495Z" fill="url(#paint5_linear_2640_764)"/>
<path d="M150.464 6.32428H117.631C116.9 6.32428 116.308 6.91478 116.308 7.6432V40.3854C116.308 41.1138 116.9 41.7043 117.631 41.7043H150.464C151.194 41.7043 151.787 41.1138 151.787 40.3854V7.6432C151.787 6.91478 151.194 6.32428 150.464 6.32428Z" fill="url(#paint6_linear_2640_764)"/>
<path d="M150.464 6.32428H117.631C116.9 6.32428 116.308 6.91478 116.308 7.6432V40.3854C116.308 41.1138 116.9 41.7043 117.631 41.7043H150.464C151.194 41.7043 151.787 41.1138 151.787 40.3854V7.6432C151.787 6.91478 151.194 6.32428 150.464 6.32428Z" stroke="#777777" stroke-width="0.5" stroke-linecap="round" stroke-linejoin="round"/>
<g style="mix-blend-mode:multiply">
<path d="M145.914 11.3625H122.173C122.027 11.3625 121.909 11.4806 121.909 11.6263V13.9147C121.909 14.0603 122.027 14.1784 122.173 14.1784H145.914C146.06 14.1784 146.178 14.0603 146.178 13.9147V11.6263C146.178 11.4806 146.06 11.3625 145.914 11.3625Z" fill="#FEC972"/>
</g>
<g style="mix-blend-mode:multiply">
<path d="M145.914 15.7348H122.173C122.027 15.7348 121.909 15.8529 121.909 15.9986V18.2869C121.909 18.4326 122.027 18.5507 122.173 18.5507H145.914C146.06 18.5507 146.178 18.4326 146.178 18.2869V15.9986C146.178 15.8529 146.06 15.7348 145.914 15.7348Z" fill="#FEC972"/>
</g>
<g style="mix-blend-mode:multiply">
<path d="M135.617 23.5758H146.185" stroke="#FEC972" stroke-width="0.5" stroke-linecap="round" stroke-linejoin="round"/>
</g>
<g style="mix-blend-mode:multiply">
<path d="M135.617 26.1279H146.185" stroke="#FEC972" stroke-width="0.5" stroke-linecap="round" stroke-linejoin="round"/>
</g>
<g style="mix-blend-mode:multiply">
<path d="M135.617 28.68H146.185" stroke="#FEC972" stroke-width="0.5" stroke-linecap="round" stroke-linejoin="round"/>
</g>
<g style="mix-blend-mode:multiply">
<path d="M135.617 31.2387H146.185" stroke="#FEC972" stroke-width="0.5" stroke-linecap="round" stroke-linejoin="round"/>
</g>
<g style="mix-blend-mode:multiply">
<path d="M135.617 33.7908H146.185" stroke="#FEC972" stroke-width="0.5" stroke-linecap="round" stroke-linejoin="round"/>
</g>
<g style="mix-blend-mode:multiply">
<path d="M135.617 36.3429H146.185" stroke="#FEC972" stroke-width="0.5" stroke-linecap="round" stroke-linejoin="round"/>
</g>
<path opacity="0.65" d="M130.909 23.2526H122.173C122.027 23.2526 121.909 23.3707 121.909 23.5164V36.3956C121.909 36.5413 122.027 36.6594 122.173 36.6594H130.909C131.055 36.6594 131.173 36.5413 131.173 36.3956V23.5164C131.173 23.3707 131.055 23.2526 130.909 23.2526Z" fill="white"/>
<path d="M81.2863 12.9058H56.6864C55.9559 12.9058 55.3638 13.4963 55.3638 14.2247V54.2407C55.3638 54.9691 55.9559 55.5596 56.6864 55.5596H81.2863C82.0168 55.5596 82.6089 54.9691 82.6089 54.2407V14.2247C82.6089 13.4963 82.0168 12.9058 81.2863 12.9058Z" fill="url(#paint7_linear_2640_764)"/>
<path d="M79.487 11.112H54.887C54.1566 11.112 53.5645 11.7025 53.5645 12.4309V52.4469C53.5645 53.1753 54.1566 53.7658 54.887 53.7658H79.487C80.2175 53.7658 80.8096 53.1753 80.8096 52.4469V12.4309C80.8096 11.7025 80.2175 11.112 79.487 11.112Z" fill="url(#paint8_linear_2640_764)"/>
<path d="M79.487 11.112H54.887C54.1566 11.112 53.5645 11.7025 53.5645 12.4309V52.4469C53.5645 53.1753 54.1566 53.7658 54.887 53.7658H79.487C80.2175 53.7658 80.8096 53.1753 80.8096 52.4469V12.4309C80.8096 11.7025 80.2175 11.112 79.487 11.112Z" stroke="#777777" stroke-width="0.5" stroke-linecap="round" stroke-linejoin="round"/>
<g style="mix-blend-mode:multiply">
<path d="M75.8172 15.1412H58.5575C58.4114 15.1412 58.293 15.2593 58.293 15.405V37.0749C58.293 37.2205 58.4114 37.3386 58.5575 37.3386H75.8172C75.9633 37.3386 76.0817 37.2205 76.0817 37.0749V15.405C76.0817 15.2593 75.9633 15.1412 75.8172 15.1412Z" fill="#A4C9FF"/>
</g>
<g style="mix-blend-mode:multiply">
<path d="M58.293 40.326H76.0817" stroke="#A4C9FF" stroke-width="0.5" stroke-miterlimit="10" stroke-linecap="round"/>
</g>
<g style="mix-blend-mode:multiply">
<path d="M58.293 42.6737H76.0817" stroke="#A4C9FF" stroke-width="0.5" stroke-miterlimit="10" stroke-linecap="round"/>
</g>
<g style="mix-blend-mode:multiply">
<path d="M58.293 45.0148H76.0817" stroke="#A4C9FF" stroke-width="0.5" stroke-miterlimit="10" stroke-linecap="round"/>
</g>
<g style="mix-blend-mode:multiply">
<path d="M58.293 47.3625H76.0817" stroke="#A4C9FF" stroke-width="0.5" stroke-miterlimit="10" stroke-linecap="round"/>
</g>
<g style="mix-blend-mode:multiply">
<path d="M58.293 49.7036H76.0817" stroke="#A4C9FF" stroke-width="0.5" stroke-miterlimit="10" stroke-linecap="round"/>
</g>
<path d="M132.49 91.2825H175.685C176.415 91.2825 177.008 90.692 177.008 89.9636V57.017C177.008 56.2885 176.415 55.698 175.685 55.698L132.49 55.698C131.759 55.698 131.167 56.2885 131.167 57.017V89.9636C131.167 90.692 131.759 91.2825 132.49 91.2825Z" fill="url(#paint9_linear_2640_764)"/>
<path d="M131.194 92.2519H174.39C175.12 92.2519 175.712 91.6614 175.712 90.9329V57.9863C175.712 57.2579 175.12 56.6674 174.39 56.6674L131.194 56.6674C130.464 56.6674 129.872 57.2579 129.872 57.9863V90.9329C129.872 91.6614 130.464 92.2519 131.194 92.2519Z" fill="url(#paint10_linear_2640_764)"/>
<path d="M131.194 92.2519H174.39C175.12 92.2519 175.712 91.6614 175.712 90.9329V57.9863C175.712 57.2579 175.12 56.6674 174.39 56.6674L131.194 56.6674C130.464 56.6674 129.872 57.2579 129.872 57.9863V90.9329C129.872 91.6614 130.464 92.2519 131.194 92.2519Z" stroke="#777777" stroke-width="0.5" stroke-linecap="round" stroke-linejoin="round"/>
<g style="mix-blend-mode:multiply">
<path d="M136.543 65.5372H170.884" stroke="#A4C9FF" stroke-width="0.5" stroke-miterlimit="10" stroke-linecap="round"/>
</g>
<g style="mix-blend-mode:multiply">
<path d="M136.543 71.4855H170.884" stroke="#A4C9FF" stroke-width="0.5" stroke-miterlimit="10" stroke-linecap="round"/>
</g>
<g style="mix-blend-mode:multiply">
<path d="M136.543 77.4338H170.884" stroke="#A4C9FF" stroke-width="0.5" stroke-miterlimit="10" stroke-linecap="round"/>
</g>
<g style="mix-blend-mode:multiply">
<path d="M136.543 83.3755H170.884" stroke="#A4C9FF" stroke-width="0.5" stroke-miterlimit="10" stroke-linecap="round"/>
</g>
<defs>
<radialGradient id="paint0_radial_2640_764" cx="0" cy="0" r="1" gradientUnits="userSpaceOnUse" gradientTransform="translate(102.487 112.194) scale(145.285 144.883)">
<stop stop-color="#FFBD50" stop-opacity="0.8"/>
<stop offset="0.09" stop-color="#FFC05A" stop-opacity="0.49"/>
<stop offset="0.33" stop-color="#FFCA73" stop-opacity="0.2025"/>
<stop offset="0.55" stop-color="#FFD287" stop-opacity="0.0676"/>
<stop offset="0.74" stop-color="#FFD895" stop-opacity="0.0144"/>
<stop offset="0.9" stop-color="#FFDB9E" stop-opacity="0.01"/>
<stop offset="1" stop-color="#FFDDA2" stop-opacity="0"/>
</radialGradient>
<linearGradient id="paint1_linear_2640_764" x1="92.0905" y1="79.9201" x2="120.753" y2="36.8368" gradientUnits="userSpaceOnUse">
<stop offset="0.13" stop-color="#D8D8D8"/>
<stop offset="0.21" stop-color="#D8D8D8" stop-opacity="0.7056"/>
<stop offset="0.36" stop-color="#D8D8D8" stop-opacity="0.3481"/>
<stop offset="0.51" stop-color="#D8D8D8" stop-opacity="0.1444"/>
<stop offset="0.65" stop-color="#D8D8D8" stop-opacity="0.0441"/>
<stop offset="0.79" stop-color="#D8D8D8" stop-opacity="0.01"/>
<stop offset="0.9" stop-color="#D8D8D8" stop-opacity="0.01"/>
<stop offset="1" stop-color="#D8D8D8" stop-opacity="0"/>
</linearGradient>
<linearGradient id="paint2_linear_2640_764" x1="345.925" y1="114.37" x2="354.243" y2="102.042" gradientUnits="userSpaceOnUse">
<stop offset="0.13" stop-color="#D8D8D8"/>
<stop offset="0.29" stop-color="#D8D8D8" stop-opacity="0.6084"/>
<stop offset="0.54" stop-color="#D8D8D8" stop-opacity="0.2025"/>
<stop offset="0.75" stop-color="#D8D8D8" stop-opacity="0.04"/>
<stop offset="0.91" stop-color="#D8D8D8" stop-opacity="0.01"/>
<stop offset="1" stop-color="#D8D8D8" stop-opacity="0"/>
</linearGradient>
<linearGradient id="paint3_linear_2640_764" x1="45.6813" y1="109.108" x2="113.121" y2="55.549" gradientUnits="userSpaceOnUse">
<stop offset="0.13" stop-color="#D8D8D8"/>
<stop offset="0.14" stop-color="#D8D8D8" stop-opacity="0.9604"/>
<stop offset="0.27" stop-color="#D8D8D8" stop-opacity="0.5184"/>
<stop offset="0.4" stop-color="#D8D8D8" stop-opacity="0.25"/>
<stop offset="0.52" stop-color="#D8D8D8" stop-opacity="0.1024"/>
<stop offset="0.65" stop-color="#D8D8D8" stop-opacity="0.0324"/>
<stop offset="0.77" stop-color="#D8D8D8" stop-opacity="0.01"/>
<stop offset="0.89" stop-color="#D8D8D8" stop-opacity="0.01"/>
<stop offset="1" stop-color="#D8D8D8" stop-opacity="0"/>
</linearGradient>
<linearGradient id="paint4_linear_2640_764" x1="54.0938" y1="101.359" x2="90.7628" y2="67.9881" gradientUnits="userSpaceOnUse">
<stop stop-color="#FFBD50"/>
<stop offset="0.15" stop-color="#FFC360"/>
<stop offset="0.51" stop-color="#FFD184"/>
<stop offset="0.81" stop-color="#FFD999"/>
<stop offset="1" stop-color="#FFDDA2"/>
</linearGradient>
<linearGradient id="paint5_linear_2640_764" x1="112.862" y1="55.1507" x2="162.416" y2="-10.4922" gradientUnits="userSpaceOnUse">
<stop offset="0.13" stop-color="#D8D8D8"/>
<stop offset="0.14" stop-color="#D8D8D8" stop-opacity="0.9604"/>
<stop offset="0.27" stop-color="#D8D8D8" stop-opacity="0.5184"/>
<stop offset="0.4" stop-color="#D8D8D8" stop-opacity="0.25"/>
<stop offset="0.52" stop-color="#D8D8D8" stop-opacity="0.1024"/>
<stop offset="0.65" stop-color="#D8D8D8" stop-opacity="0.0324"/>
<stop offset="0.77" stop-color="#D8D8D8" stop-opacity="0.01"/>
<stop offset="0.89" stop-color="#D8D8D8" stop-opacity="0.01"/>
<stop offset="1" stop-color="#D8D8D8" stop-opacity="0"/>
</linearGradient>
<linearGradient id="paint6_linear_2640_764" x1="107.202" y1="42.067" x2="160.185" y2="6.23425" gradientUnits="userSpaceOnUse">
<stop stop-color="#FFBD50"/>
<stop offset="0.15" stop-color="#FFC360"/>
<stop offset="0.51" stop-color="#FFD184"/>
<stop offset="0.81" stop-color="#FFD999"/>
<stop offset="1" stop-color="#FFDDA2"/>
</linearGradient>
<linearGradient id="paint7_linear_2640_764" x1="36.2657" y1="67.1793" x2="95.0613" y2="7.64515" gradientUnits="userSpaceOnUse">
<stop offset="0.13" stop-color="#D8D8D8"/>
<stop offset="0.14" stop-color="#D8D8D8" stop-opacity="0.9604"/>
<stop offset="0.27" stop-color="#D8D8D8" stop-opacity="0.5184"/>
<stop offset="0.4" stop-color="#D8D8D8" stop-opacity="0.25"/>
<stop offset="0.52" stop-color="#D8D8D8" stop-opacity="0.1024"/>
<stop offset="0.65" stop-color="#D8D8D8" stop-opacity="0.0324"/>
<stop offset="0.77" stop-color="#D8D8D8" stop-opacity="0.01"/>
<stop offset="0.89" stop-color="#D8D8D8" stop-opacity="0.01"/>
<stop offset="1" stop-color="#D8D8D8" stop-opacity="0"/>
</linearGradient>
<linearGradient id="paint8_linear_2640_764" x1="84.374" y1="11.323" x2="44.1305" y2="61.0367" gradientUnits="userSpaceOnUse">
<stop stop-color="#A4C9FF"/>
<stop offset="0.23" stop-color="#A0C6FD"/>
<stop offset="0.43" stop-color="#95BEFA"/>
<stop offset="0.62" stop-color="#83B1F4"/>
<stop offset="0.8" stop-color="#6B9EEB"/>
<stop offset="0.89" stop-color="#5B93E6"/>
</linearGradient>
<linearGradient id="paint9_linear_2640_764" x1="123.906" y1="43.3859" x2="185.565" y2="105.216" gradientUnits="userSpaceOnUse">
<stop offset="0.13" stop-color="#D8D8D8"/>
<stop offset="0.14" stop-color="#D8D8D8" stop-opacity="0.9604"/>
<stop offset="0.27" stop-color="#D8D8D8" stop-opacity="0.5184"/>
<stop offset="0.4" stop-color="#D8D8D8" stop-opacity="0.25"/>
<stop offset="0.52" stop-color="#D8D8D8" stop-opacity="0.1024"/>
<stop offset="0.65" stop-color="#D8D8D8" stop-opacity="0.0324"/>
<stop offset="0.77" stop-color="#D8D8D8" stop-opacity="0.01"/>
<stop offset="0.89" stop-color="#D8D8D8" stop-opacity="0.01"/>
<stop offset="1" stop-color="#D8D8D8" stop-opacity="0"/>
</linearGradient>
<linearGradient id="paint10_linear_2640_764" x1="166.309" y1="46.8613" x2="136.381" y2="108.296" gradientUnits="userSpaceOnUse">
<stop stop-color="#A4C9FF"/>
<stop offset="0.23" stop-color="#A0C6FD"/>
<stop offset="0.43" stop-color="#95BEFA"/>
<stop offset="0.62" stop-color="#83B1F4"/>
<stop offset="0.8" stop-color="#6B9EEB"/>
<stop offset="0.89" stop-color="#5B93E6"/>
</linearGradient>
</defs>
</svg>
