<svg width="72" height="73" viewBox="0 0 72 73" fill="none" xmlns="http://www.w3.org/2000/svg">
<rect y="0.5" width="72" height="72" rx="36" fill="#FFEDCE"/>
<g clip-path="url(#clip0_2540_239)">
<path d="M28.5139 55.989C27.254 55.989 25.9951 55.99 24.7352 55.989C23.719 55.988 23.3868 55.6619 23.3858 54.6605C23.3849 53.6164 23.3739 52.5723 23.3888 51.5282C23.4047 50.3897 23.0637 49.3883 22.3586 48.4894C20.7716 46.4639 19.993 44.1469 19.9403 41.5814C19.9264 40.8784 20.3043 40.3385 20.8969 40.1764C21.5114 40.0093 22.1468 40.245 22.4293 40.7979C22.5446 41.0226 22.5903 41.301 22.6013 41.5586C22.6938 43.604 23.3232 45.4506 24.5761 47.0814C25.1966 47.8888 26.008 48.2866 27.0173 48.2895C28.0117 48.2935 29.0061 48.2756 30.0005 48.2935C31.139 48.3134 32.0022 47.8391 32.6644 46.9272C33.8517 45.2945 34.4434 43.4708 34.512 41.4601C34.5498 40.3544 35.6804 39.7518 36.5753 40.3404C37.0357 40.6437 37.1948 41.0952 37.1809 41.6262C37.1153 44.0813 36.4142 46.3336 34.9048 48.2806C34.0705 49.3575 33.6687 50.516 33.7254 51.8703C33.7672 52.8458 33.7384 53.8253 33.7324 54.8027C33.7274 55.6092 33.3525 55.9821 32.5391 55.9851C31.1967 55.99 29.8543 55.9861 28.5129 55.987L28.5139 55.989Z" fill="#FE9F0F"/>
<path d="M37.7696 44.8153C38.1942 45.5163 38.6207 46.281 39.107 47.0059C39.7046 47.8978 40.5777 48.3055 41.6506 48.2996C42.6609 48.2936 43.6722 48.2996 44.6825 48.2976C45.6948 48.2976 46.5082 47.8968 47.1227 47.0884C48.3538 45.4706 49.02 43.6528 49.0737 41.6143C49.0946 40.8188 49.4754 40.2978 50.1068 40.1655C51.0137 39.9766 51.7346 40.5772 51.7297 41.5467C51.7168 44.0645 50.96 46.3476 49.4307 48.3403C48.6232 49.3914 48.2265 50.52 48.2742 51.8386C48.31 52.831 48.2881 53.8263 48.2802 54.8207C48.2732 55.6441 47.9172 55.9941 47.0889 55.9961C44.4548 56.0001 41.8197 56.0001 39.1856 55.9971C38.3294 55.9971 37.9466 55.6103 37.9426 54.7471C37.9376 53.7528 37.9088 52.7574 37.9495 51.765C38.0032 50.4604 37.6582 49.3049 36.7961 48.3234C36.4957 47.9814 36.4689 47.7109 36.6906 47.2853C37.1152 46.4669 37.4354 45.5939 37.7686 44.8143L37.7696 44.8153Z" fill="#FE9F0F"/>
<path d="M38.9091 43.5325H38.1205C38.1205 42.7778 38.1533 42.038 38.1136 41.3031C38.032 39.7757 36.5305 38.7824 35.0887 39.2746C34.1877 39.5818 33.5782 40.4121 33.5195 41.3717C33.4867 41.8997 33.442 42.4287 33.3584 42.9498C33.252 43.614 33.2321 43.6111 32.5202 43.5166C32.4406 43.0473 32.3909 42.5709 32.2775 42.1105C32.0627 41.2375 31.5964 40.5076 30.952 39.8772C30.7979 39.727 30.6637 39.4635 30.6706 39.2567C30.7124 37.9888 30.3136 36.904 29.537 35.9016C28.0176 33.9427 27.2708 31.6924 27.2022 29.2184C27.1754 28.2389 27.8317 27.6025 28.7336 27.7039C29.4286 27.7815 29.889 28.2857 29.9099 29.0702C29.9437 30.3629 30.1794 31.6119 30.7541 32.7693C31.0982 33.4614 31.5158 34.1257 31.9703 34.7521C32.5182 35.5088 33.3137 35.8609 34.2474 35.8678C35.3243 35.8758 36.4012 35.8797 37.4772 35.8668C38.4298 35.8549 39.1984 35.4581 39.7841 34.7004C41.0599 33.0487 41.7371 31.1853 41.7918 29.0961C41.8146 28.2469 42.3606 27.6821 43.1372 27.689C43.9217 27.696 44.4607 28.2658 44.4458 29.1249C44.403 31.6168 43.6741 33.889 42.1527 35.8708C41.397 36.8552 40.9346 37.9063 40.9843 39.1632C40.9893 39.2915 40.9316 39.4744 40.8372 39.547C39.5315 40.5474 38.9707 41.9077 38.9071 43.5315L38.9091 43.5325Z" fill="#FE9F0F"/>
<path d="M32.6345 30.7438C32.6375 29.9881 32.9378 29.127 33.5673 28.4001C34.8192 26.9532 36.8676 26.9562 38.1305 28.3911C39.3675 29.7972 39.3854 32.0842 38.1693 33.5052C36.8805 35.0117 34.7744 35.0008 33.5096 33.4744C32.905 32.7455 32.6325 31.8943 32.6345 30.7438Z" fill="#FE9F0F"/>
<path d="M46.3611 43.4856C46.3392 44.4899 46.0061 45.4207 45.2533 46.1734C43.9258 47.5009 41.9032 47.3488 40.7309 45.8423C39.6351 44.4352 39.6549 42.3401 40.7766 40.9519C42.0335 39.3957 44.1893 39.3758 45.4711 40.9121C46.0786 41.641 46.3501 42.4932 46.3611 43.4856Z" fill="#FE9F0F"/>
<path d="M31.48 43.4051C31.49 45.2785 30.2808 46.8347 28.6212 47.0475C27.4846 47.1937 26.5817 46.7333 25.8817 45.8632C24.8038 44.5218 24.7749 42.4803 25.7952 41.0932C27.0988 39.3202 29.4784 39.3321 30.7621 41.122C31.2503 41.8032 31.4791 42.5688 31.48 43.4051Z" fill="#FE9F0F"/>
<path d="M36.3306 19.4326C36.3306 20.3753 36.3246 21.318 36.3336 22.2607C36.3376 22.6216 36.2431 22.914 35.8344 22.904C35.4585 22.8951 35.3671 22.6057 35.368 22.2706C35.371 20.3852 35.37 18.4999 35.37 16.6155C35.37 16.2844 35.4595 16.003 35.8503 16C36.2411 15.997 36.3346 16.2655 36.3326 16.6056C36.3276 17.5483 36.3306 18.491 36.3306 19.4336V19.4326Z" fill="#FE9F0F"/>
<path d="M55.0787 26.6897C55.0101 26.7692 54.9157 26.9561 54.7635 27.0456C53.096 28.0221 51.4184 28.9837 49.7439 29.9482C49.4615 30.1113 49.186 30.1083 49.014 29.809C48.839 29.5047 48.9931 29.277 49.2726 29.115C50.9332 28.1584 52.5888 27.1948 54.2544 26.2472C54.673 26.0085 55.0569 26.1835 55.0778 26.6906L55.0787 26.6897Z" fill="#FE9F0F"/>
<path d="M22.7752 29.5306C22.6917 29.9363 22.5018 30.1064 22.1607 30.0308C22.0205 30 21.8892 29.9125 21.7619 29.8389C20.2147 28.9489 18.6694 28.0559 17.1232 27.164C17.0516 27.1222 16.979 27.0824 16.9094 27.0387C16.6478 26.8746 16.5414 26.6439 16.6986 26.3665C16.8577 26.0851 17.1222 26.0602 17.3847 26.2104C19.091 27.1879 20.7964 28.1683 22.4928 29.1627C22.629 29.2432 22.7016 29.4322 22.7752 29.5316V29.5306Z" fill="#FE9F0F"/>
<path d="M24.0361 16.2795C24.1057 16.3392 24.2757 16.4277 24.3612 16.5669C24.7401 17.1874 25.0951 17.8238 25.46 18.4542C25.6231 18.7367 25.6301 19.0061 25.3308 19.1871C25.0235 19.3721 24.7938 19.2209 24.6327 18.9425C24.2668 18.313 23.8939 17.6876 23.5449 17.0492C23.3221 16.6425 23.5309 16.2567 24.0371 16.2795H24.0361Z" fill="#FE9F0F"/>
<path d="M48.2831 16.6554C48.2463 16.8095 48.2443 16.899 48.2056 16.9676C47.8128 17.6567 47.4339 18.3558 47.0004 19.019C46.9119 19.1542 46.533 19.2626 46.4296 19.1881C46.2784 19.0787 46.1303 18.7296 46.1989 18.5924C46.5698 17.8556 46.9924 17.1436 47.4379 16.4485C47.5115 16.3342 47.7998 16.2864 47.9619 16.3232C48.0972 16.3541 48.1936 16.5559 48.2831 16.6554Z" fill="#FE9F0F"/>
<path d="M27.4747 21.8958C27.3156 22.0847 27.2221 22.3005 27.0938 22.3234C26.9158 22.3562 26.6185 22.3065 26.535 22.1832C26.177 21.6512 25.8588 21.0893 25.5734 20.5156C25.5088 20.3863 25.5764 20.0989 25.6868 20.0005C25.8001 19.8991 26.1551 19.8593 26.2068 19.9319C26.6483 20.5573 27.0441 21.2156 27.4747 21.8958Z" fill="#FE9F0F"/>
<path d="M44.8763 22.379C44.4845 22.389 44.2151 22.0847 44.3612 21.7874C44.6576 21.1838 44.9986 20.5981 45.3705 20.0383C45.4481 19.9219 45.7902 19.8652 45.9254 19.9378C46.0596 20.0104 46.2018 20.3376 46.1432 20.4559C45.8379 21.0724 45.4759 21.6621 45.117 22.2508C45.0673 22.3313 44.9231 22.3542 44.8753 22.378L44.8763 22.379Z" fill="#FE9F0F"/>
</g>
<defs>
<clipPath id="clip0_2540_239">
<rect width="38.4537" height="40" fill="white" transform="translate(16.625 16)"/>
</clipPath>
</defs>
</svg>
