<svg width="40" height="40" viewBox="0 0 40 40" fill="none" xmlns="http://www.w3.org/2000/svg">
<path d="M10.2691 27.2155C9.74175 27.7428 9.71664 28.6845 10.2816 29.237C10.8341 29.7894 11.7758 29.7769 12.3031 29.2495L19.9873 21.5528L27.684 29.2495C28.2239 29.7894 29.153 29.7894 29.7055 29.237C30.2454 28.672 30.2579 27.7554 29.7055 27.2155L22.0213 19.5188L29.7055 11.8346C30.2579 11.2947 30.2579 10.3656 29.7055 9.81314C29.1405 9.27324 28.2239 9.26069 27.684 9.80059L19.9873 17.4973L12.3031 9.80059C11.7758 9.27324 10.8215 9.24813 10.2816 9.81314C9.72919 10.3656 9.74175 11.3073 10.2691 11.8346L17.9658 19.5188L10.2691 27.2155Z" fill="black"/>
</svg>
