<?xml version="1.0" encoding="UTF-8"?>
<svg id="Layer_1" data-name="Layer 1" xmlns="http://www.w3.org/2000/svg" xmlns:xlink="http://www.w3.org/1999/xlink" viewBox="0 0 1000 1000">
  <defs>
    <style>
      .cls-1 {
        fill: url(#linear-gradient);
      }

      .cls-2 {
        fill: #fff;
      }

      .cls-3 {
        fill: #ffbd50;
      }

      .cls-4 {
        fill: #777;
      }

      .cls-5 {
        stroke: url(#linear-gradient-13);
      }

      .cls-5, .cls-6, .cls-7, .cls-8 {
        fill: none;
        stroke-linecap: round;
        stroke-linejoin: round;
        stroke-width: 2.74px;
      }

      .cls-6 {
        stroke-dasharray: 0 10.95;
      }

      .cls-6, .cls-9 {
        opacity: .3;
      }

      .cls-6, .cls-8 {
        stroke: #777;
      }

      .cls-7 {
        stroke: #c1d7fe;
      }

      .cls-10 {
        fill: url(#linear-gradient-8);
      }

      .cls-11 {
        fill: url(#linear-gradient-9);
      }

      .cls-12 {
        fill: url(#linear-gradient-3);
      }

      .cls-13 {
        fill: url(#linear-gradient-4);
      }

      .cls-14 {
        fill: url(#linear-gradient-2);
      }

      .cls-15 {
        fill: url(#linear-gradient-6);
      }

      .cls-16 {
        fill: url(#linear-gradient-7);
      }

      .cls-17 {
        fill: url(#linear-gradient-5);
      }

      .cls-18 {
        opacity: .55;
      }

      .cls-19 {
        fill: url(#radial-gradient);
        opacity: .7;
      }

      .cls-20 {
        fill: url(#linear-gradient-12);
      }

      .cls-21 {
        fill: url(#linear-gradient-10);
      }

      .cls-22 {
        fill: url(#linear-gradient-11);
      }
    </style>
    <radialGradient id="radial-gradient" cx="479.19" cy="962.11" fx="479.19" fy="962.11" r="432.99" gradientTransform="translate(0 690.9) scale(1 .28)" gradientUnits="userSpaceOnUse">
      <stop offset="0" stop-color="#ffbd50" stop-opacity=".8"/>
      <stop offset=".09" stop-color="#ffc05a" stop-opacity=".7"/>
      <stop offset=".33" stop-color="#ffca73" stop-opacity=".45"/>
      <stop offset=".55" stop-color="#ffd287" stop-opacity=".26"/>
      <stop offset=".74" stop-color="#ffd895" stop-opacity=".12"/>
      <stop offset=".9" stop-color="#ffdb9e" stop-opacity=".03"/>
      <stop offset="1" stop-color="#ffdda2" stop-opacity="0"/>
    </radialGradient>
    <linearGradient id="linear-gradient" x1="336.44" y1="919.12" x2="615.51" y2="919.12" gradientTransform="translate(-443.15 1395.1) rotate(-90)" gradientUnits="userSpaceOnUse">
      <stop offset="0" stop-color="#d8d8d8" stop-opacity="0"/>
      <stop offset=".09" stop-color="#d8d8d8" stop-opacity=".06"/>
      <stop offset=".25" stop-color="#d8d8d8" stop-opacity=".2"/>
      <stop offset=".46" stop-color="#d8d8d8" stop-opacity=".45"/>
      <stop offset=".71" stop-color="#d8d8d8" stop-opacity=".78"/>
      <stop offset=".87" stop-color="#d8d8d8"/>
    </linearGradient>
    <linearGradient id="linear-gradient-2" x1="233.33" y1="408.69" x2="858.7" y2="408.69" gradientTransform="matrix(1, 0, 0, 1, 0, 0)" xlink:href="#linear-gradient"/>
    <linearGradient id="linear-gradient-3" x1="460.17" y1="846.76" x2="491.78" y2="846.76" gradientTransform="matrix(1, 0, 0, 1, 0, 0)" xlink:href="#linear-gradient"/>
    <linearGradient id="linear-gradient-4" x1="795.55" y1="663.13" x2="442.69" y2="358.88" gradientUnits="userSpaceOnUse">
      <stop offset=".22" stop-color="#bcbec0"/>
      <stop offset=".25" stop-color="#c1c2c4" stop-opacity=".81"/>
      <stop offset=".28" stop-color="#c6c7c9" stop-opacity=".62"/>
      <stop offset=".32" stop-color="#cbcccd" stop-opacity=".45"/>
      <stop offset=".36" stop-color="#cfcfd0" stop-opacity=".31"/>
      <stop offset=".41" stop-color="#d2d2d3" stop-opacity=".19"/>
      <stop offset=".47" stop-color="#d5d5d5" stop-opacity=".11"/>
      <stop offset=".54" stop-color="#d6d6d6" stop-opacity=".05"/>
      <stop offset=".63" stop-color="#d7d7d7" stop-opacity="0"/>
      <stop offset=".91" stop-color="#d8d8d8" stop-opacity="0"/>
    </linearGradient>
    <linearGradient id="linear-gradient-5" x1="550.78" y1="510.42" x2="593.76" y2="510.42" gradientUnits="userSpaceOnUse">
      <stop offset="0" stop-color="#ffbd50"/>
      <stop offset=".15" stop-color="#ffc360"/>
      <stop offset=".51" stop-color="#ffd184"/>
      <stop offset=".81" stop-color="#ffd999"/>
      <stop offset="1" stop-color="#ffdda2"/>
    </linearGradient>
    <linearGradient id="linear-gradient-6" x1="353.87" y1="493.49" x2="382.07" y2="493.49" xlink:href="#linear-gradient-5"/>
    <linearGradient id="linear-gradient-7" x1="743.22" y1="456.94" x2="761.82" y2="456.94" xlink:href="#linear-gradient-5"/>
    <linearGradient id="linear-gradient-8" x1="572.27" y1="214.96" x2="609.36" y2="214.96" xlink:href="#linear-gradient-5"/>
    <linearGradient id="linear-gradient-9" x1="456.05" y1="650.01" x2="474.13" y2="650.01" xlink:href="#linear-gradient-5"/>
    <linearGradient id="linear-gradient-10" x1="613.97" y1="355.44" x2="631.29" y2="355.44" xlink:href="#linear-gradient-5"/>
    <linearGradient id="linear-gradient-11" x1="233.33" y1="308.03" x2="250.65" y2="308.03" xlink:href="#linear-gradient-5"/>
    <linearGradient id="linear-gradient-12" x1="347.16" y1="267.61" x2="498.96" y2="267.61" gradientUnits="userSpaceOnUse">
      <stop offset="0" stop-color="#a4c9ff"/>
      <stop offset=".23" stop-color="#a0c6fd"/>
      <stop offset=".43" stop-color="#95befa"/>
      <stop offset=".62" stop-color="#83b1f4"/>
      <stop offset=".8" stop-color="#6b9eeb"/>
      <stop offset=".89" stop-color="#5b93e6"/>
    </linearGradient>
    <linearGradient id="linear-gradient-13" x1="198.5" y1="205.49" x2="413.83" y2="205.49" gradientUnits="userSpaceOnUse">
      <stop offset="0" stop-color="#ffbd50" stop-opacity="0"/>
      <stop offset=".04" stop-color="#ffbd50" stop-opacity=".17"/>
      <stop offset=".1" stop-color="#ffbd50" stop-opacity=".34"/>
      <stop offset=".16" stop-color="#ffbd50" stop-opacity=".5"/>
      <stop offset=".22" stop-color="#ffbd50" stop-opacity=".63"/>
      <stop offset=".29" stop-color="#ffbd50" stop-opacity=".75"/>
      <stop offset=".37" stop-color="#ffbd50" stop-opacity=".84"/>
      <stop offset=".46" stop-color="#ffbd50" stop-opacity=".91"/>
      <stop offset=".56" stop-color="#ffbd50" stop-opacity=".96"/>
      <stop offset=".7" stop-color="#ffbd50" stop-opacity=".99"/>
      <stop offset="1" stop-color="#ffbd50"/>
    </linearGradient>
  </defs>
  <g class="cls-18">
    <g>
      <line class="cls-7" x1="73.44" y1="355.44" x2="73.44" y2="418.41"/>
      <line class="cls-7" x1="104.93" y1="386.92" x2="41.96" y2="386.92"/>
    </g>
    <g>
      <line class="cls-7" x1="401.46" y1="27.47" x2="378.01"/>
      <line class="cls-7" x1="375.99" y1="25.46" x2="403.47" y2="2.01"/>
    </g>
    <g>
      <line class="cls-7" x1="812.1" y1="778.87" x2="843.43" y2="776.17"/>
      <line class="cls-7" x1="829.11" y1="793.19" x2="826.41" y2="761.86"/>
    </g>
    <circle class="cls-7" cx="169.08" cy="581.4" r="21.53"/>
    <circle class="cls-7" cx="882.92" cy="134.09" r="15.23"/>
    <circle class="cls-7" cx="352.63" cy="87.38" r="10.15"/>
    <polygon class="cls-7" points="104.93 743.19 127.02 704.93 82.83 704.93 104.93 743.19"/>
    <polygon class="cls-7" points="104.68 259.01 135.33 251.99 113.92 228.95 104.68 259.01"/>
    <polygon class="cls-7" points="691.92 829.34 729.38 852.78 730.96 808.63 691.92 829.34"/>
    <polygon class="cls-7" points="917.31 376.24 958.04 393.38 952.53 349.54 917.31 376.24"/>
  </g>
  <g>
    <ellipse class="cls-19" cx="479.19" cy="962.11" rx="344.12" ry="37.89"/>
    <ellipse class="cls-6" cx="479.19" cy="924.22" rx="344.12" ry="37.89"/>
    <g>
      <g>
        <path class="cls-2" d="M336.44,936.3c-.76,0-1.37-.61-1.37-1.37v-7.15c0-14.24,11.59-25.83,25.83-25.83h230.15c14.24,0,25.83,11.59,25.83,25.83v7.15c0,.76-.61,1.37-1.37,1.37H336.44Z"/>
        <path class="cls-4" d="M591.05,903.32c13.51,0,24.46,10.95,24.46,24.46v7.14H336.44v-7.14c0-13.51,10.95-24.46,24.46-24.46h230.15m0-2.74h-230.15c-15,0-27.2,12.2-27.2,27.2v7.14c0,1.51,1.23,2.74,2.74,2.74h279.07c1.51,0,2.74-1.23,2.74-2.74v-7.14c0-15-12.2-27.2-27.2-27.2h0Z"/>
      </g>
      <path class="cls-1" d="M484.63,779.59h7.14v279.07h-7.14c-13.5,0-24.46-10.96-24.46-24.46v-230.15c0-13.5,10.96-24.46,24.46-24.46Z" transform="translate(1395.1 443.15) rotate(90)"/>
      <g>
        <path class="cls-2" d="M477.05,791.71c-37.78,0-74.99-5.46-110.6-16.24-9.6-2.88-18.34-5.88-26.74-9.18-38.86-14.87-74.96-36.01-107.26-62.83-.3-.25-.48-.61-.49-.99-.02-.38,.13-.76,.4-1.03l22.46-22.46c.27-.27,.62-.4,.97-.4,.31,0,.61,.1,.87,.31,27.99,22.9,59.25,41.21,92.92,54.44L574.74,73.92c-31.66-9.2-64.52-13.86-97.69-13.86-.76,0-1.37-.61-1.37-1.37V27.03c0-.36,.14-.71,.4-.97,.26-.26,.6-.4,.97-.4,37.53,0,74.57,5.4,110.09,16.04,9.39,2.82,18.14,5.82,26.74,9.18,71.64,27.38,132.88,75.2,177.08,138.3,45.21,64.53,69.11,140.43,69.11,219.51,0,51.71-10.13,101.88-30.1,149.1-19.29,45.61-46.91,86.57-82.08,121.75-35.17,35.17-76.14,62.79-121.75,82.08-47.22,19.97-97.39,30.1-149.1,30.1Zm-98.19-48.36c31.8,9.3,64.83,14.01,98.19,14.01,93.13,0,180.69-36.27,246.55-102.13,65.86-65.86,102.13-153.42,102.13-246.55,0-71.78-21.64-140.71-62.58-199.35-39.75-56.92-94.75-100.27-159.13-125.44l-225.16,659.45Z"/>
        <path class="cls-4" d="M477.05,27.03c38.14,0,74.97,5.58,109.7,15.98,9.05,2.71,17.89,5.73,26.63,9.15,143.47,54.82,245.32,193.82,245.32,356.53,0,210.8-170.85,381.65-381.65,381.65-38.34,0-75.33-5.63-110.2-16.18-9.05-2.71-17.94-5.73-26.63-9.15-39.15-14.97-75.17-36.28-106.88-62.61l22.46-22.46c28.19,23.06,60.05,41.76,94.62,55.18L576.49,73.01c-31.51-9.3-64.87-14.32-99.45-14.32V27.03m0,731.7c193.31,0,350.05-156.73,350.05-350.05,0-148.84-92.91-275.98-223.92-326.58l-226.08,662.16c31.66,9.4,65.23,14.47,99.95,14.47m0-734.44c-1.51,0-2.74,1.23-2.74,2.74v31.66c0,1.51,1.23,2.74,2.74,2.74,32.56,0,64.82,4.51,95.93,13.41l-224.23,656.68c-33.03-13.13-63.71-31.19-91.22-53.7-.51-.41-1.12-.62-1.73-.62-.7,0-1.4,.27-1.94,.8l-22.46,22.46c-.54,.54-.83,1.29-.8,2.06,.04,.77,.39,1.49,.99,1.98,32.42,26.92,68.64,48.14,107.65,63.06,8.41,3.31,17.19,6.32,26.82,9.21,35.73,10.81,73.08,16.3,110.99,16.3,51.9,0,102.24-10.16,149.63-30.21,45.77-19.36,86.88-47.07,122.18-82.37,35.3-35.3,63.01-76.41,82.37-122.18,20.04-47.39,30.21-97.74,30.21-149.63,0-79.36-23.98-155.53-69.36-220.29-21.86-31.2-48.16-58.93-78.16-82.44-30.28-23.72-63.78-42.68-99.57-56.36-8.62-3.37-17.4-6.38-26.82-9.21-35.65-10.68-72.82-16.1-110.48-16.1h0Zm-96.43,718.14L604.84,85.7c31.2,12.35,60.42,29.16,86.89,50.01,26.99,21.24,50.63,46.28,70.28,74.42,40.78,58.4,62.34,127.06,62.34,198.56,0,46.88-9.18,92.37-27.29,135.18-17.49,41.36-42.54,78.5-74.43,110.4-31.9,31.9-69.04,56.94-110.4,74.43-42.82,18.11-88.3,27.29-135.18,27.29-32.75,0-65.18-4.56-96.43-13.56h0Z"/>
      </g>
      <g>
        <rect class="cls-2" x="458.8" y="791.51" width="34.34" height="110.51" rx="1.37" ry="1.37"/>
        <path class="cls-4" d="M491.78,792.87v107.77h-31.61v-107.77h31.61m0-2.74h-31.61c-1.51,0-2.74,1.23-2.74,2.74v107.77c0,1.51,1.23,2.74,2.74,2.74h31.61c1.51,0,2.74-1.23,2.74-2.74v-107.77c0-1.51-1.23-2.74-2.74-2.74h0Z"/>
      </g>
      <path class="cls-14" d="M613.38,52.16c-8.74-3.42-17.59-6.43-26.63-9.15-34.72-10.4-71.56-15.98-109.7-15.98v31.66c34.57,0,67.94,5.03,99.45,14.32l-226.08,662.1c-34.57-13.42-66.43-32.11-94.62-55.18l-22.46,22.46c31.71,26.33,67.74,47.64,106.88,62.61,8.69,3.42,17.59,6.43,26.63,9.15,34.87,10.55,71.86,16.18,110.2,16.18,210.8,0,381.65-170.85,381.65-381.65,0-162.71-101.86-301.71-245.32-356.53Zm-136.33,706.58c-34.72,0-68.29-5.08-99.95-14.47L603.18,82.11c131,50.6,223.92,177.74,223.92,326.58,0,193.31-156.73,350.05-350.05,350.05Z"/>
      <rect class="cls-12" x="460.17" y="792.87" width="31.61" height="107.77"/>
    </g>
    <g class="cls-18">
      <g>
        <line class="cls-7" x1="73.44" y1="355.44" x2="73.44" y2="418.41"/>
        <line class="cls-7" x1="104.93" y1="386.92" x2="41.96" y2="386.92"/>
      </g>
      <g>
        <line class="cls-7" x1="401.46" y1="27.47" x2="378.01"/>
        <line class="cls-7" x1="375.99" y1="25.46" x2="403.47" y2="2.01"/>
      </g>
      <g>
        <line class="cls-7" x1="812.1" y1="778.87" x2="843.43" y2="776.17"/>
        <line class="cls-7" x1="829.11" y1="793.19" x2="826.41" y2="761.86"/>
      </g>
      <circle class="cls-7" cx="169.08" cy="581.4" r="21.53"/>
      <circle class="cls-7" cx="882.92" cy="134.09" r="15.23"/>
      <circle class="cls-7" cx="352.63" cy="87.38" r="10.15"/>
      <polygon class="cls-7" points="104.93 743.19 127.02 704.93 82.83 704.93 104.93 743.19"/>
      <polygon class="cls-7" points="104.68 259.01 135.33 251.99 113.92 228.95 104.68 259.01"/>
      <polygon class="cls-7" points="691.92 829.34 729.38 852.78 730.96 808.63 691.92 829.34"/>
      <polygon class="cls-7" points="917.31 376.24 958.04 393.38 952.53 349.54 917.31 376.24"/>
    </g>
    <g>
      <circle class="cls-2" cx="475.98" cy="398.72" r="291.7"/>
      <g class="cls-9">
        <path class="cls-4" d="M475.86,109.54c80.42,0,160.41,33.34,217.58,98.57,105.28,120.1,93.26,302.81-26.84,408.09-54.88,48.1-122.85,71.72-190.51,71.72-80.42,0-160.41-33.34-217.58-98.57-105.28-120.1-93.26-302.81,26.84-408.09,54.88-48.1,122.85-71.72,190.51-71.72m.03-2.74h-.03c-34.65,0-68.63,6.06-100.99,17.99-33.51,12.36-64.23,30.66-91.32,54.41-29.63,25.98-53.3,56.98-70.33,92.15-16.45,33.97-26.05,70.38-28.54,108.21-2.49,37.83,2.26,75.18,14.12,111.02,12.28,37.1,31.67,70.94,57.65,100.57,28.21,32.19,62.2,57.23,101.02,74.44,37.51,16.63,77.42,25.06,118.62,25.06,34.65,0,68.63-6.05,100.99-17.99,33.51-12.36,64.23-30.66,91.32-54.41,29.63-25.98,53.3-56.98,70.33-92.15,16.45-33.97,26.05-70.38,28.54-108.21,2.49-37.83-2.26-75.18-14.12-111.02-12.28-37.1-31.67-70.94-57.65-100.57-28.21-32.19-62.2-57.23-101.01-74.44-37.51-16.63-77.41-25.06-118.6-25.06h0Z"/>
      </g>
      <line class="cls-6" x1="285.92" y1="182.06" x2="665.96" y2="615.63"/>
      <line class="cls-6" x1="692.33" y1="209.16" x2="259.55" y2="588.52"/>
      <path class="cls-6" d="M285.92,182.06c17.89-1.37,182.04-11.04,298.43,121.75,116.4,132.79,85.31,294.26,81.61,311.81"/>
      <path class="cls-6" d="M285.92,182.06c-3.7,17.55-34.79,179.02,81.61,311.81,116.4,132.79,280.55,123.12,298.43,121.75"/>
      <path class="cls-6" d="M692.72,208.82c1.37,17.89,11.04,182.04-121.75,298.43-132.79,116.4-294.26,85.31-311.81,81.61"/>
      <path class="cls-6" d="M692.72,208.82c-17.55-3.7-179.02-34.79-311.81,81.61-132.79,116.4-123.12,280.55-121.75,298.43"/>
      <path class="cls-13" d="M711.73,566.14c-77.95,109.76-218.6,148.62-338.75,102.48,110.93,14.82,226.12-30.8,295.41-128.35,76.35-107.5,74.81-246.81,6.7-350.86,102.83,97.33,120.98,257.98,36.64,376.73Z"/>
      <circle class="cls-17" cx="572.27" cy="510.42" r="21.49"/>
      <circle class="cls-15" cx="367.97" cy="493.49" r="14.1"/>
      <path class="cls-16" d="M761.82,443.57c-1.46,9.2-3.37,18.34-5.73,27.44-7.24-.6-12.86-6.68-12.86-14.07,0-7.79,6.28-14.07,14.07-14.07,1.61,0,3.12,.25,4.52,.7Z"/>
      <circle class="cls-10" cx="590.82" cy="214.96" r="18.55"/>
      <circle class="cls-11" cx="465.09" cy="650.01" r="9.04"/>
      <circle class="cls-21" cx="622.63" cy="355.44" r="8.66"/>
      <circle class="cls-22" cx="241.99" cy="308.03" r="8.66"/>
    </g>
    <g>
      <path class="cls-20" d="M484.01,290.71c-.66,1.17-1.6,2.2-2.44,3.25-.9,1.12-1.83,2.26-2.74,3.38-.38,.49-.77,1-1.18,1.47-.28,.34-.74,.86-1.24,.54-1.08-.65-.24-2.35-.06-3.27,.35-1.92-.64-4.3-2.84-4.46-.94-.09-1.93,.29-2.5,1.09-.32,.46-.4,.97-.5,1.5-.14,.62-.4,.99-1.06,1.08-.49,.07-1,.02-1.49-.03-.64-.06-1.28-.09-1.95-.09-1.17-.03-2.35,.02-3.52,.13-2.42,.16-4.83,.47-7.26,.6-2.91,.15-5.7-.07-8.57-.62-3.07-.59-6.11-1.22-9.17-1.83,.41-.43-.29-1.08-.76-.66-1.44,1.24-2.19,3.25-1.97,5.14,.11,.91,.45,1.73,.92,2.52,.43,.73,1.01,1.49,1.17,2.34,.22,1.15-.72,1.83-1.46,2.55-.78,.74-1.28,1.68-1.39,2.77-.3,2.28,.57,4.6,1.14,6.77,.72,2.64,1.43,5.29,2.12,7.93,.59,2.18,1.18,4.43,2.53,6.27,.68,.93,1.55,1.74,2.07,2.79,.48,.93,.56,2.03,.44,3.07-.1,1.05-.39,2.08-.69,3.08-.19,.68-.5,1.75-1.23,2.02-.89,.37-1.69-1.1-2.32-1.51-.85-.55-1.88-.35-2.64,.2-.92,.66-1.41,1.77-2.36,2.35-.88,.55-1.99,.6-2.98,.49-2.17-.26-4.4-1.27-6.56-.4-.92,.37-1.75,1.02-2.11,1.97-.3,.76-.23,1.58-.06,2.39,.16,.78,.44,1.54,.52,2.35,.1,.93-.25,1.48-1,2.01-.73,.52-1.56,1.13-1.4,2.16,.14,.9,1.03,1.41,1.24,2.27,.22,.84-.14,1.87-.96,2.26-.78,.36-1.83,.06-2.3-.64-.54-.83-.21-2-.47-2.93-.26-.97-.96-1.74-1.74-2.34-.94-.74-1.95-1.4-2.94-2.07-.55-.39-1.11-.76-1.66-1.15-.24-.18-.51-.34-.75-.52-.33-.22-.55-.23-.92-.25-2.73-.14-5.46-.28-8.19-.42-2.58-.12-5.15-.27-7.46-1.5-2.23-1.22-4-3.12-5.53-5.1-.76-1-1.48-2.02-2.18-3.05-.23-.33-.65-.24-.85-.01-.64,.15-1.19,.54-1.53,1.12-.18,.33-.3,.71-.29,1.1-.01,.35,.32,.94,.15,1.25-.18,.37-1.03,.41-1.38,.48-.63,.13-1.28,.25-1.91,.37-.43,.08-1.16,.36-1.55,.08-.39-.28-.37-.89-.37-1.3,0-1.77,.4-3.62-.46-5.26-.91-1.75-2.89-2.61-3.92-4.26-.98-1.59-1.38-3.44-1.99-5.17-.51-1.42-1.47-4.28-3.47-3.68-.83,.24-1.18,1.09-.89,1.87,.13,.34,.33,.63,.5,.94,.07,.15,.22,.5,.12,.69-.12,.18-.41-.07-.57-.15-.47-.3-.93-.64-1.4-.97-.51-.34-1.05-.66-1.5-1.08-.8-.75-.82-1.91-1.17-2.88-.36-.98-.96-1.94-1.95-2.39-.88-.41-1.91-.37-2.66,.31-.34,.29-.58,.69-.67,1.14-.09,.49,.21,1.06,.03,1.52-.19,.43-.74,.65-1.19,.59-.61-.11-1.07-.67-1.31-1.23-.07-.2-.25-.29-.43-.32-1.38-1.34-3.45-1.5-5.21-2.14-.95-.36-1.84-.91-2.27-1.84-.48-1.02-.41-2.22,.02-3.22,.54-1.19,1.46-2.03,2.44-2.83,.92-.74,1.83-1.52,2.24-2.64,.36-1.04,.08-2.38,1-3.16,.83-.69,2.03-.94,3-1.42,2.26-1.15,4.16-2.94,5.5-5.11,2.81-1.61,5.73-2.99,8.78-4.06,.37-.14,.43-.55,.21-.83-3.27-4.05-6.59-8.14-10.82-11.21-1.02-.73-2.07-1.39-2.96-2.28-.83-.83-1.35-1.81-1.64-2.93-.28-1.05-.36-2.15-.42-3.23-.06-1.2-.15-2.41-.08-3.61,.15-2.46,1.18-5.3,3.81-5.98,.34-.09,.51-.6,.21-.83-2.47-1.86-3.21-5.4-1.44-7.99,.86-1.26,2.22-2.18,3.71-2.49,.77-.14,1.57-.13,2.34-.39,.74-.25,1.34-.73,1.75-1.4,.92-1.48,.76-3.42,.61-5.08-.17-1.82-.48-3.65-.44-5.49,.04-1.8,.45-3.64,1.63-5.02,.89-1.06,2.07-1.82,3.26-2.49,2.28-1.3,4.9-2.45,6.26-4.74,.05-.06,.11-.12,.14-.22v-.03c.13-.26,.25-.51,.35-.79,.1-.26-.03-.44-.21-.52-.04-1.01-.33-2-.57-2.96-.32-1.39-.39-3.08,1.25-3.61,2.2-.71,4,1.19,5.49,2.49,1.34,1.2,3.36,2.32,5.02,1,.29-.25,.52-.55,.67-.89,.17-.47,.12-1.01,.4-1.44,.49-.77,1.58-.93,2.41-1,1.57-.13,3.52-.04,4.45-1.57,1.02-1.67-.2-3.52-.97-4.97-.43-.77-.78-1.66-.42-2.52,.36-.9,1.13-.96,1.92-.57,.79,.41,1.55,.87,2.47,.69,.83-.13,1.51-.71,2.12-1.25,1.77-1.57,3.53-3.15,5.29-4.73,.9-.79,1.78-1.59,2.69-2.39,.66-.59,1.38-1.27,1.47-2.21,.1-.98-.61-1.56-.91-2.4-.27-.73-.02-1.54,.41-2.16,1.08-1.57,3.06-1.75,4.78-1.53,1.01,.12,2.03,.32,3.02,.55,1.05,.21,2.12,.52,3.05,1.08,.79,.49,1.5,1.2,1.85,2.08,.36,.94,.18,1.94,0,2.89-.31,1.56-.54,3.54,.92,4.63,1.46,1.11,3.54,.38,4.7-.81,1.42-1.45,1.95-3.54,3.48-4.91,.64-.55,1.45-.94,2.3-.81,.95,.16,1.77,.67,2.76,.54,1.79-.24,2.96-1.89,3.32-3.55,.15-.73,.19-1.47,.21-2.2,.34-.01,.7-.38,.42-.74-.68-.93,.2-2.07,.96-2.64,1.11-.85,2.56-1.16,3.51-2.24,1.75-1.99,.02-4.12-.36-6.23-.22-1.24,.46-2.22,1.71-2.48,1.67-.35,3.18,.79,4.4,1.77,2.27,1.82,4.65,3.74,6.04,6.34,1.47,2.75,.99,5.81,1.19,8.79,.18,2.56,1.2,5.5,3.67,6.71,1.14,.58,2.33,.5,3.54,.18,.95-.27,2.45-1,3.35-.26,.88,.7,.25,1.98-.38,2.6-.93,.97-2.44,1.1-3.67,1.42-1.22,.35-2.35,.85-3.02,1.99-.48,.84-.7,2-.15,2.88,.31,.5,.85,.8,1.42,.93,.67,.16,1.44,.11,1.92,.71,.41,.52,.61,1.14,1.05,1.62,.45,.49,1.07,.72,1.72,.76,.68,.03,1.36-.16,2.03-.35,.72-.21,1.43-.41,2.17-.52,1.58-.26,3.17-.3,4.76-.26,1.6,.04,3.21,.13,4.8,.25,1.73,.16,3.52,.41,5.12,1.15,4.77,2.21,5.19,7.94,6.55,12.38,.33,1.12,.74,2.22,1.27,3.27,.6,1.16,1.41,2.16,2.28,3.1,1,1.06,2.04,2.14,2.28,3.64,.22,1.42-.22,2.89-.67,4.24-1,3.07-2.1,6.26-4.94,8.13-1.18,.77-2.55,1.42-3.44,2.57-.81,1.04-1.04,2.28-.82,3.57,.23,1.31,.83,2.52,1.27,3.77,.48,1.38,.66,2.83,.61,4.28-.15,3.28-1.53,6.35-3.24,9.12-.85,1.4-1.81,2.74-2.76,4.09-.11,0-.25,.04-.38,.15-1.67,1.74-1.36,4.35-.72,6.48,.32,1.07,.7,2.13,.84,3.24,.16,1.23-.05,2.35-.66,3.43Z"/>
      <path class="cls-8" d="M484.01,290.71c-.66,1.17-1.6,2.2-2.44,3.25-.9,1.12-1.83,2.26-2.74,3.38-.38,.49-.77,1-1.18,1.47-.28,.34-.74,.86-1.24,.54-1.08-.65-.24-2.35-.06-3.27,.35-1.92-.64-4.3-2.84-4.46-.94-.09-1.93,.29-2.5,1.09-.32,.46-.4,.97-.5,1.5-.14,.62-.4,.99-1.06,1.08-.49,.07-1,.02-1.49-.03-.64-.06-1.28-.09-1.95-.09-1.17-.03-2.35,.02-3.52,.13-2.42,.16-4.83,.47-7.26,.6-2.91,.15-5.7-.07-8.57-.62-3.07-.59-6.11-1.22-9.17-1.83,.41-.43-.29-1.08-.76-.66-1.44,1.24-2.19,3.25-1.97,5.14,.11,.91,.45,1.73,.92,2.52,.43,.73,1.01,1.49,1.17,2.34,.22,1.15-.72,1.83-1.46,2.55-.78,.74-1.28,1.68-1.39,2.77-.3,2.28,.57,4.6,1.14,6.77,.72,2.64,1.43,5.29,2.12,7.93,.59,2.18,1.18,4.43,2.53,6.27,.68,.93,1.55,1.74,2.07,2.79,.48,.93,.56,2.03,.44,3.07-.1,1.05-.39,2.08-.69,3.08-.19,.68-.5,1.75-1.23,2.02-.89,.37-1.69-1.1-2.32-1.51-.85-.55-1.88-.35-2.64,.2-.92,.66-1.41,1.77-2.36,2.35-.88,.55-1.99,.6-2.98,.49-2.17-.26-4.4-1.27-6.56-.4-.92,.37-1.75,1.02-2.11,1.97-.3,.76-.23,1.58-.06,2.39,.16,.78,.44,1.54,.52,2.35,.1,.93-.25,1.48-1,2.01-.73,.52-1.56,1.13-1.4,2.16,.14,.9,1.03,1.41,1.24,2.27,.22,.84-.14,1.87-.96,2.26-.78,.36-1.83,.06-2.3-.64-.54-.83-.21-2-.47-2.93-.26-.97-.96-1.74-1.74-2.34-.94-.74-1.95-1.4-2.94-2.07-.55-.39-1.11-.76-1.66-1.15-.24-.18-.51-.34-.75-.52-.33-.22-.55-.23-.92-.25-2.73-.14-5.46-.28-8.19-.42-2.58-.12-5.15-.27-7.46-1.5-2.23-1.22-4-3.12-5.53-5.1-.76-1-1.48-2.02-2.18-3.05-.23-.33-.65-.24-.85-.01-.64,.15-1.19,.54-1.53,1.12-.18,.33-.3,.71-.29,1.1-.01,.35,.32,.94,.15,1.25-.18,.37-1.03,.41-1.38,.48-.63,.13-1.28,.25-1.91,.37-.43,.08-1.16,.36-1.55,.08-.39-.28-.37-.89-.37-1.3,0-1.77,.4-3.62-.46-5.26-.91-1.75-2.89-2.61-3.92-4.26-.98-1.59-1.38-3.44-1.99-5.17-.51-1.42-1.47-4.28-3.47-3.68-.83,.24-1.18,1.09-.89,1.87,.13,.34,.33,.63,.5,.94,.07,.15,.22,.5,.12,.69-.12,.18-.41-.07-.57-.15-.47-.3-.93-.64-1.4-.97-.51-.34-1.05-.66-1.5-1.08-.8-.75-.82-1.91-1.17-2.88-.36-.98-.96-1.94-1.95-2.39-.88-.41-1.91-.37-2.66,.31-.34,.29-.58,.69-.67,1.14-.09,.49,.21,1.06,.03,1.52-.19,.43-.74,.65-1.19,.59-.61-.11-1.07-.67-1.31-1.23-.07-.2-.25-.29-.43-.32-1.38-1.34-3.45-1.5-5.21-2.14-.95-.36-1.84-.91-2.27-1.84-.48-1.02-.41-2.22,.02-3.22,.54-1.19,1.46-2.03,2.44-2.83,.92-.74,1.83-1.52,2.24-2.64,.36-1.04,.08-2.38,1-3.16,.83-.69,2.03-.94,3-1.42,2.26-1.15,4.16-2.94,5.5-5.11,2.81-1.61,5.73-2.99,8.78-4.06,.37-.14,.43-.55,.21-.83-3.27-4.05-6.59-8.14-10.82-11.21-1.02-.73-2.07-1.39-2.96-2.28-.83-.83-1.35-1.81-1.64-2.93-.28-1.05-.36-2.15-.42-3.23-.06-1.2-.15-2.41-.08-3.61,.15-2.46,1.18-5.3,3.81-5.98,.34-.09,.51-.6,.21-.83-2.47-1.86-3.21-5.4-1.44-7.99,.86-1.26,2.22-2.18,3.71-2.49,.77-.14,1.57-.13,2.34-.39,.74-.25,1.34-.73,1.75-1.4,.92-1.48,.76-3.42,.61-5.08-.17-1.82-.48-3.65-.44-5.49,.04-1.8,.45-3.64,1.63-5.02,.89-1.06,2.07-1.82,3.26-2.49,2.28-1.3,4.9-2.45,6.26-4.74,.05-.06,.11-.12,.14-.22v-.03c.13-.26,.25-.51,.35-.79,.1-.26-.03-.44-.21-.52-.04-1.01-.33-2-.57-2.96-.32-1.39-.39-3.08,1.25-3.61,2.2-.71,4,1.19,5.49,2.49,1.34,1.2,3.36,2.32,5.02,1,.29-.25,.52-.55,.67-.89,.17-.47,.12-1.01,.4-1.44,.49-.77,1.58-.93,2.41-1,1.57-.13,3.52-.04,4.45-1.57,1.02-1.67-.2-3.52-.97-4.97-.43-.77-.78-1.66-.42-2.52,.36-.9,1.13-.96,1.92-.57,.79,.41,1.55,.87,2.47,.69,.83-.13,1.51-.71,2.12-1.25,1.77-1.57,3.53-3.15,5.29-4.73,.9-.79,1.78-1.59,2.69-2.39,.66-.59,1.38-1.27,1.47-2.21,.1-.98-.61-1.56-.91-2.4-.27-.73-.02-1.54,.41-2.16,1.08-1.57,3.06-1.75,4.78-1.53,1.01,.12,2.03,.32,3.02,.55,1.05,.21,2.12,.52,3.05,1.08,.79,.49,1.5,1.2,1.85,2.08,.36,.94,.18,1.94,0,2.89-.31,1.56-.54,3.54,.92,4.63,1.46,1.11,3.54,.38,4.7-.81,1.42-1.45,1.95-3.54,3.48-4.91,.64-.55,1.45-.94,2.3-.81,.95,.16,1.77,.67,2.76,.54,1.79-.24,2.96-1.89,3.32-3.55,.15-.73,.19-1.47,.21-2.2,.34-.01,.7-.38,.42-.74-.68-.93,.2-2.07,.96-2.64,1.11-.85,2.56-1.16,3.51-2.24,1.75-1.99,.02-4.12-.36-6.23-.22-1.24,.46-2.22,1.71-2.48,1.67-.35,3.18,.79,4.4,1.77,2.27,1.82,4.65,3.74,6.04,6.34,1.47,2.75,.99,5.81,1.19,8.79,.18,2.56,1.2,5.5,3.67,6.71,1.14,.58,2.33,.5,3.54,.18,.95-.27,2.45-1,3.35-.26,.88,.7,.25,1.98-.38,2.6-.93,.97-2.44,1.1-3.67,1.42-1.22,.35-2.35,.85-3.02,1.99-.48,.84-.7,2-.15,2.88,.31,.5,.85,.8,1.42,.93,.67,.16,1.44,.11,1.92,.71,.41,.52,.61,1.14,1.05,1.62,.45,.49,1.07,.72,1.72,.76,.68,.03,1.36-.16,2.03-.35,.72-.21,1.43-.41,2.17-.52,1.58-.26,3.17-.3,4.76-.26,1.6,.04,3.21,.13,4.8,.25,1.73,.16,3.52,.41,5.12,1.15,4.77,2.21,5.19,7.94,6.55,12.38,.33,1.12,.74,2.22,1.27,3.27,.6,1.16,1.41,2.16,2.28,3.1,1,1.06,2.04,2.14,2.28,3.64,.22,1.42-.22,2.89-.67,4.24-1,3.07-2.1,6.26-4.94,8.13-1.18,.77-2.55,1.42-3.44,2.57-.81,1.04-1.04,2.28-.82,3.57,.23,1.31,.83,2.52,1.27,3.77,.48,1.38,.66,2.83,.61,4.28-.15,3.28-1.53,6.35-3.24,9.12-.85,1.4-1.81,2.74-2.76,4.09-.11,0-.25,.04-.38,.15-1.67,1.74-1.36,4.35-.72,6.48,.32,1.07,.7,2.13,.84,3.24,.16,1.23-.05,2.35-.66,3.43Z"/>
    </g>
    <circle class="cls-3" cx="412.46" cy="265.1" r="8.66"/>
    <path class="cls-5" d="M412.46,265.1c-96.48-87.21-182.59-136.39-205.85-113.72-14.08,13.72-5.77,47.18,21.95,93.36"/>
  </g>
</svg>