<svg width="43" height="41" viewBox="0 0 43 41" fill="none" xmlns="http://www.w3.org/2000/svg">
<path fill-rule="evenodd" clip-rule="evenodd" d="M12.1248 40.33C11.0294 39.9722 9.4372 39.2628 8.58592 38.7534C7.73498 38.2437 6.29882 36.9864 5.39481 35.9595C4.4908 34.9323 3.29802 33.1752 2.74457 32.0549C2.19078 30.9342 1.39292 28.8412 0.971466 27.4037C0.265435 24.9954 0.193854 23.8608 0.0615169 12.984C-0.0676777 2.36018 -0.02438 1.11963 0.494843 0.589241C0.998352 0.0749016 2.10977 0 9.22735 0C16.1759 0 17.4644 0.083107 17.9319 0.560349C18.4005 1.03938 18.4805 2.38765 18.4805 9.82167C18.4805 18.0589 18.6808 18.0126 17.8052 18.8918C16.5858 19.6176 15.7782 19.261 14.1266 19.261C11.1237 19.261 11.1237 19.261 11.3427 21.1336C11.4631 22.1637 11.8078 23.9446 12.1084 25.092C12.4513 26.3982 13.0592 27.6117 13.7348 28.3386C14.4314 29.0883 15.3093 29.5927 16.2108 29.7625C16.979 29.9069 17.8041 30.1912 18.044 30.3938C18.3534 30.6549 18.4805 32.1483 18.4805 35.5212C18.4805 39.8613 18.4211 40.3129 17.8052 40.6496C17.4337 40.8525 16.4514 41.0102 15.6228 40.9995C14.7939 40.9891 13.2198 40.6877 12.1248 40.33ZM36.567 40.33C35.4717 39.9722 33.8794 39.2628 33.0281 38.7534C32.1772 38.2437 30.7561 37.0032 29.8699 35.9966C28.984 34.99 27.7046 33.0197 27.0265 31.6183C26.3139 30.1448 25.5052 27.6402 25.1099 25.6813C24.5195 22.7575 24.4248 20.815 24.421 11.5156C24.4168 1.22307 24.4468 0.721931 25.0917 0.369167C25.5013 0.145527 28.9295 0 33.7963 0C40.6297 0 41.907 0.0834618 42.3741 0.560349C42.8427 1.03938 42.9227 2.3823 42.9227 9.76281C42.9227 16.0091 43.2666 18.0536 42.5037 18.8329C41.7264 19.4393 40.9251 19.261 38.9617 19.261C35.8383 19.261 35.8383 19.261 36.0363 21.9325C36.1644 23.6635 36.5394 25.2854 37.1013 26.5391C37.5782 27.6035 37.8477 28.3275 38.7871 29.0045C39.4828 29.5059 40.1555 29.6494 40.8277 29.7892C41.4998 29.9294 42.2463 30.2055 42.4862 30.4031C42.7946 30.6567 42.9227 32.1052 42.9227 35.33C42.9227 39.007 42.8159 40.0072 42.3741 40.4584C42.0246 40.8154 41.2323 41.0116 40.1918 40.9995C39.293 40.9891 37.662 40.6877 36.567 40.33Z" fill="#FE9F0F"/>
</svg>
