<svg width="28" height="28" viewBox="0 0 28 28" fill="none" xmlns="http://www.w3.org/2000/svg">
<path d="M14 1.71289C13.8049 1.71289 13.6098 1.71816 13.4146 1.72713L13.4568 2.67529C13.6361 2.66686 13.8154 2.66211 14 2.66211C20.2648 2.66211 25.3379 7.73516 25.3379 14C25.3379 20.2648 20.2648 25.3379 14 25.3379C9.275 25.3379 5.22764 22.4533 3.52432 18.3453L4.98137 17.9076L2.42744 16.0988L1.42285 18.9729L2.61201 18.6195C4.4382 23.1125 8.85313 26.2871 14 26.2871C20.7816 26.2871 26.2871 20.7816 26.2871 14C26.2871 7.21836 20.7816 1.71289 14 1.71289ZM12.3758 1.82047C11.6744 1.91275 10.9994 2.06305 10.3402 2.26766L10.6355 3.16889C11.2367 2.98221 11.8643 2.84457 12.5023 2.7602L12.3758 1.82047ZM9.36992 2.61781C8.71602 2.88412 8.09375 3.20422 7.50313 3.57336L8.0041 4.37545C8.54727 4.03584 9.12207 3.74105 9.72324 3.49637L9.36992 2.61781ZM6.63828 4.16504C6.08468 4.58001 5.56694 5.04077 5.09053 5.54246L5.77871 6.19004C6.21641 5.72756 6.69629 5.30357 7.20254 4.92125L6.94941 4.57478L6.63828 4.16504ZM10.3033 4.6175L10.0713 5.53719L21.5146 8.46289L21.7467 7.54531L10.3033 4.6175ZM4.40604 6.32715C3.97414 6.86504 3.58654 7.44512 3.24904 8.05156L4.07434 8.51562C4.386 7.95137 4.74354 7.41875 5.14273 6.91777L4.40604 6.32715ZM11.1365 6.79121C10.9309 8.1623 11.2842 9.70215 11.8854 10.9678C12.2229 11.6744 12.6342 12.2967 13.0402 12.7502C13.2617 12.998 13.4832 13.1879 13.6836 13.325L13.3988 14.443C13.1562 14.4641 12.8715 14.5273 12.5551 14.6381C11.9803 14.8385 11.3211 15.1865 10.6883 15.6453C9.54922 16.468 8.50508 17.6439 8.03047 18.9465L16.8635 21.2088C17.0691 19.8377 16.7158 18.2979 16.1146 17.0322C15.7771 16.3256 15.3658 15.7033 14.9598 15.2498C14.7383 15.002 14.5168 14.8121 14.3164 14.675L14.6012 13.557C14.8385 13.5307 15.1285 13.4727 15.4449 13.3619C16.0197 13.1615 16.6789 12.8135 17.3117 12.3547C18.4508 11.532 19.4949 10.3561 19.9695 9.05352L11.1365 6.79121ZM2.78023 8.98496C2.49916 9.61777 2.26871 10.2717 2.09469 10.952L3.01648 11.1734C3.17627 10.5512 3.38773 9.95 3.64666 9.36992L2.78023 8.98496ZM1.88164 11.9697C1.77143 12.6289 1.71289 13.3092 1.71289 14V14.0475L2.66211 14.0369V14C2.66211 13.3619 2.7159 12.7344 2.81768 12.1227L1.88164 11.9697ZM6.48535 19.5371L6.25332 20.4547L17.6967 23.3814L17.9287 22.4639L6.48535 19.5371Z" fill="#FE9F0F"/>
</svg>
