<svg width="17" height="16" viewBox="0 0 17 16" fill="none" xmlns="http://www.w3.org/2000/svg">
<path d="M5.41777 15.1035V8.62352H7.88177L8.24977 6.09552H5.41777V4.47952C5.41777 4.07418 5.50843 3.77552 5.68977 3.58352C5.9031 3.35952 6.2871 3.24751 6.84177 3.24751H8.34577V0.991515C8.1751 0.970181 7.90843 0.948849 7.54577 0.927515C7.07643 0.906181 6.6071 0.895514 6.13777 0.895514C5.41243 0.895514 4.77243 1.02351 4.21777 1.27952C3.6631 1.53551 3.23377 1.91418 2.92977 2.41551C2.62577 2.91685 2.47377 3.51952 2.47377 4.22352V6.09552H0.00976562V8.62352H2.47377V15.1035H5.41777Z" fill="#FE9F0F"/>
</svg>
