<svg width="14" height="14" viewBox="0 0 14 14" fill="none" xmlns="http://www.w3.org/2000/svg">
<path d="M12.3897 14H12.2982C1.71744 13.3915 0.215129 4.46385 0.00512875 1.73923C-0.0117923 1.52739 0.0132534 1.31429 0.0788306 1.11214C0.144408 0.909999 0.249228 0.722779 0.387284 0.561213C0.525341 0.399646 0.693921 0.266909 0.883365 0.170606C1.07281 0.0743029 1.27939 0.0163271 1.49128 5.04857e-07H4.45821C4.67389 -0.000208291 4.88467 0.0643519 5.06324 0.185318C5.24181 0.306285 5.37994 0.478084 5.45974 0.678462L6.27821 2.69231C6.35701 2.88806 6.37657 3.10266 6.33444 3.30943C6.29232 3.51621 6.19038 3.70605 6.04128 3.85539L4.89436 5.01308C5.07351 6.03117 5.56107 6.96967 6.29107 7.70159C7.02107 8.43352 7.95828 8.92355 8.9759 9.10538L10.1444 7.94769C10.2959 7.80024 10.4876 7.70067 10.6954 7.66141C10.9031 7.62215 11.1179 7.64494 11.3128 7.72692L13.3428 8.54C13.5402 8.62232 13.7086 8.76153 13.8265 8.9399C13.9445 9.11827 14.0066 9.32771 14.0051 9.54154V12.3846C14.0051 12.813 13.8349 13.2239 13.532 13.5269C13.229 13.8298 12.8182 14 12.3897 14ZM1.62051 1.07692C1.4777 1.07692 1.34074 1.13365 1.23976 1.23464C1.13878 1.33562 1.08205 1.47258 1.08205 1.61539V1.65846C1.32974 4.84615 2.91821 12.3846 12.3574 12.9231C12.4282 12.9275 12.4991 12.9178 12.5661 12.8947C12.6331 12.8716 12.6949 12.8355 12.7479 12.7885C12.8009 12.7415 12.8442 12.6845 12.8751 12.6207C12.906 12.5569 12.9241 12.4877 12.9282 12.4169V9.54154L10.8982 8.72846L9.35282 10.2631L9.09436 10.2308C4.40974 9.64385 3.77436 4.95923 3.77436 4.91077L3.74205 4.65231L5.27128 3.10692L4.46359 1.07692H1.62051Z" fill="#FE9F0F"/>
</svg>
