<svg width="30" height="17" viewBox="0 0 30 17" fill="none" xmlns="http://www.w3.org/2000/svg">
<g clip-path="url(#clip0_2536_73)">
<path d="M15.5444 3.38608C15.5444 2.57911 15.5452 1.77214 15.5438 0.965011C15.5436 0.831989 15.5714 0.712384 15.6637 0.612412C15.753 0.515714 15.8697 0.493952 15.9904 0.501315C16.2498 0.517186 16.5095 0.534203 16.7677 0.563818C17.0577 0.597196 17.3461 0.643991 17.635 0.686695C17.881 0.723019 18.1276 0.756724 18.3723 0.801392C18.5741 0.838207 18.7734 0.888438 18.9734 0.934578C19.1023 0.964357 19.2306 0.997081 19.359 1.02866C19.511 1.06596 19.6642 1.09869 19.8146 1.14205C20.064 1.21404 20.2399 1.48352 20.109 1.74155C20.0654 1.82761 20.0438 1.92529 20.0147 2.01839C19.9493 2.22815 19.8877 2.43922 19.8204 2.64832C19.7531 2.85727 19.6796 3.06408 19.6104 3.27237C19.5718 3.38821 19.5374 3.50536 19.4998 3.62153C19.4556 3.75815 19.4101 3.89428 19.3652 4.03058C19.3354 4.12073 19.3044 4.2104 19.2761 4.30104C19.2381 4.42261 19.2037 4.54549 19.1647 4.66673C19.1241 4.79304 19.0797 4.91821 19.0373 5.04403C19.0061 5.13648 18.9737 5.22843 18.9446 5.32137C18.9066 5.4431 18.8734 5.56614 18.8345 5.68755C18.7942 5.81403 18.7495 5.93919 18.7071 6.06502C18.6749 6.16008 18.6419 6.25482 18.6118 6.35053C18.5744 6.46948 18.5375 6.5886 18.5043 6.70886C18.4591 6.8733 18.2922 7.03675 18.1283 7.03462C18.0311 7.03331 17.9316 6.98521 17.8386 6.94529C17.6804 6.87722 17.528 6.79558 17.3705 6.72604C17.2029 6.65208 17.0327 6.58402 16.8624 6.51612C16.7748 6.48126 16.6857 6.44952 16.5956 6.42154C16.4693 6.38227 16.3414 6.34906 16.2147 6.3111C16.0474 6.26103 15.8767 6.21882 15.715 6.15419C15.5953 6.10641 15.5433 5.99384 15.5428 5.86409C15.5418 5.6023 15.5441 5.34068 15.5442 5.07889C15.5446 4.51456 15.5442 3.95024 15.5442 3.38576L15.5444 3.38608Z" fill="#FE9F0F"/>
<path d="M27.1099 7.93885C27.1204 8.11311 27.0154 8.21733 26.8962 8.30716C26.6393 8.50056 26.3782 8.68855 26.1184 8.87803C25.8718 9.05801 25.6237 9.23602 25.3776 9.41682C25.1335 9.59599 24.8923 9.77891 24.6479 9.95742C24.3971 10.1407 24.1446 10.3218 23.8913 10.5016C23.8105 10.559 23.731 10.6287 23.6399 10.6593C23.3847 10.7451 23.2569 10.6417 23.1271 10.4522C22.9743 10.229 22.8221 10.0049 22.6591 9.78955C22.4856 9.56064 22.3022 9.33894 22.1179 9.11871C22.0084 8.98814 21.8902 8.86494 21.773 8.74124C21.6753 8.63816 21.661 8.4338 21.7439 8.3173C21.9338 8.05028 22.1209 7.78145 22.3105 7.5141C22.4876 7.26458 22.6672 7.01719 22.8438 6.76734C22.9985 6.54842 23.1489 6.32639 23.304 6.10763C23.4809 5.85795 23.6598 5.60957 23.8397 5.36218C23.9239 5.24634 23.9963 5.11364 24.1036 5.02463C24.2971 4.86429 24.437 4.85365 24.6235 5.0194C24.8542 5.22458 25.0843 5.43139 25.3023 5.64999C25.5491 5.89738 25.7868 6.15459 26.0199 6.4149C26.2059 6.62254 26.3844 6.83737 26.5568 7.05645C26.7309 7.27767 26.8974 7.50526 27.0577 7.73678C27.0947 7.79029 27.0936 7.87079 27.1099 7.93885Z" fill="#FE9F0F"/>
<path d="M27.619 16.8089C26.9879 16.8089 26.3566 16.81 25.7255 16.8081C25.5767 16.8076 25.4317 16.7842 25.3293 16.6589C25.2995 16.6225 25.2748 16.5774 25.2626 16.5322C25.24 16.4483 25.2249 16.3619 25.213 16.2755C25.173 15.9816 25.1416 15.6865 25.0958 15.3934C25.0615 15.1735 25.0098 14.9562 24.9662 14.7378C24.9363 14.5884 24.9059 14.4392 24.8778 14.2895C24.8542 14.1638 24.9609 13.9456 25.1116 13.898C25.3606 13.8191 25.6079 13.7343 25.855 13.6497C26.0565 13.5809 26.2565 13.5074 26.4579 13.4382C26.5701 13.3996 26.684 13.3667 26.7967 13.3294C26.9373 13.2827 27.0773 13.2337 27.2178 13.1865C27.3096 13.1558 27.4018 13.1262 27.4943 13.097C27.6125 13.0597 27.7319 13.0254 27.8496 12.9864C27.9697 12.9467 28.0886 12.9025 28.2081 12.8608C28.2972 12.8297 28.3862 12.7984 28.476 12.7695C28.5966 12.7305 28.7179 12.694 28.8389 12.6562C28.875 12.645 28.9122 12.636 28.9463 12.6202C29.1369 12.5334 29.3385 12.5759 29.4466 12.752C29.503 12.8438 29.5248 12.9593 29.5524 13.0668C29.6053 13.2718 29.6536 13.4779 29.6989 13.6848C29.7345 13.8467 29.7693 14.0094 29.793 14.1733C29.8361 14.4723 29.8787 14.7717 29.9068 15.0722C29.9429 15.4571 29.9651 15.8432 29.9924 16.2289C29.9969 16.294 30.0033 16.3598 29.9979 16.4244C29.9798 16.6468 29.8691 16.7647 29.65 16.7983C29.5966 16.8064 29.542 16.8084 29.488 16.8086C28.865 16.8092 28.2419 16.8091 27.6189 16.8091L27.619 16.8089Z" fill="#FE9F0F"/>
<path d="M23.6916 11.2264C23.6717 11.0404 23.7856 10.9339 23.9164 10.8385C24.2767 10.576 24.6381 10.3152 24.9981 10.0521C25.2969 9.8337 25.5938 9.61265 25.8919 9.39324C26.1987 9.16745 26.5052 8.941 26.8134 8.717C26.9375 8.62685 27.0651 8.54127 27.1922 8.45521C27.3387 8.35606 27.5798 8.45816 27.6637 8.62685C27.7551 8.81059 27.8642 8.98534 27.9621 9.16581C28.0303 9.29163 28.0936 9.42024 28.158 9.54819C28.2319 9.69528 28.3046 9.84303 28.3773 9.99078C28.4108 10.0588 28.4456 10.1263 28.4748 10.1961C28.5686 10.4208 28.6626 10.6454 28.7519 10.8719C28.8372 11.0882 28.9164 11.3069 28.9988 11.5244C29.0374 11.6258 29.0762 11.7271 29.1164 11.8277C29.189 12.0098 29.0671 12.2641 28.8795 12.3279C28.66 12.4025 28.4425 12.4833 28.2228 12.5575C28.1029 12.598 27.9793 12.628 27.8588 12.6671C27.7359 12.7072 27.615 12.7535 27.4927 12.7957C27.3984 12.8283 27.3038 12.8593 27.2088 12.8899C27.0033 12.956 26.797 13.0195 26.5922 13.0876C26.3797 13.1581 26.1691 13.234 25.9568 13.3049C25.8367 13.345 25.7141 13.3779 25.5936 13.417C25.4681 13.4577 25.3442 13.5038 25.2184 13.5439C25.0955 13.5832 24.974 13.6326 24.8392 13.6015C24.7218 13.5745 24.641 13.5073 24.5976 13.3952C24.5144 13.1807 24.4352 12.9644 24.3482 12.7514C24.2829 12.5912 24.2087 12.4344 24.1375 12.2767C24.074 12.1361 24.0109 11.9953 23.9437 11.8564C23.8849 11.7345 23.816 11.6173 23.7602 11.4941C23.722 11.4097 23.6984 11.3185 23.6683 11.2304C23.676 11.2289 23.6836 11.2272 23.6913 11.2258L23.6916 11.2264Z" fill="#FE9F0F"/>
<path d="M20.5206 2.46844C20.5887 2.49479 20.6972 2.53356 20.803 2.57856C20.8897 2.61537 20.9736 2.65873 21.0581 2.70029C21.3384 2.83789 21.6197 2.97386 21.8985 3.11457C22.0763 3.2044 22.255 3.29439 22.4254 3.39747C22.6699 3.54538 22.9091 3.70279 23.1472 3.86117C23.3227 3.97783 23.4942 4.10054 23.6647 4.22424C23.8683 4.37166 23.9375 4.49748 23.8735 4.76353C23.8566 4.83405 23.8073 4.899 23.7646 4.96052C23.5758 5.23148 23.3853 5.50145 23.1928 5.76962C23.016 6.01603 22.8344 6.25884 22.6576 6.50509C22.536 6.67443 22.4204 6.8482 22.2992 7.01803C22.1453 7.23401 21.9882 7.44786 21.8333 7.66318C21.7715 7.74892 21.712 7.83613 21.6514 7.92285C21.5154 8.11723 21.2179 8.19724 21.0144 8.0112C20.8326 7.84513 20.6476 7.68167 20.4536 7.53049C20.2067 7.33791 19.9521 7.15482 19.6954 6.97517C19.4967 6.83609 19.2891 6.7101 19.0868 6.5761C18.9603 6.49216 18.9034 6.29337 18.9525 6.1484C19.0029 5.99951 19.0439 5.84734 19.0924 5.69763C19.1315 5.57655 19.1766 5.45727 19.2175 5.33668C19.2481 5.24686 19.277 5.15654 19.3052 5.0659C19.3429 4.94416 19.3775 4.82145 19.4162 4.70004C19.4565 4.57357 19.5003 4.44823 19.5424 4.32241C19.5741 4.22735 19.6069 4.13261 19.6368 4.0369C19.6747 3.91516 19.7085 3.79212 19.7472 3.67072C19.7874 3.54424 19.8323 3.41923 19.8729 3.29292C19.9145 3.16382 19.9465 3.03113 19.9955 2.90498C20.035 2.80337 20.0805 2.69882 20.1473 2.61472C20.2265 2.51491 20.3436 2.46484 20.5208 2.46844H20.5206Z" fill="#FE9F0F"/>
<path d="M15.2091 3.28489C15.2091 3.71832 15.199 4.15207 15.2128 4.58501C15.2211 4.84402 14.9975 5.09436 14.7161 5.05427C14.494 5.02269 14.271 4.98849 14.0474 4.97868C13.5634 4.95757 13.0788 4.94677 12.5943 4.94105C12.3971 4.93875 12.1995 4.9597 12.0022 4.97099C11.8367 4.98048 11.7007 4.91061 11.613 4.78021C11.553 4.6912 11.5318 4.57487 11.497 4.4695C11.4496 4.32535 11.406 4.18005 11.3603 4.03541C11.3294 3.93708 11.2963 3.83956 11.267 3.74074C11.2286 3.61066 11.1953 3.47911 11.1556 3.34936C11.1176 3.22501 11.0704 3.10344 11.0343 2.97843C10.9924 2.83314 10.9454 2.68736 10.9236 2.53846C10.8953 2.34441 11.0789 2.18194 11.247 2.1358C11.4057 2.09227 11.5627 2.04319 11.7211 1.99819C11.8328 1.96645 11.9443 1.93405 12.0573 1.9082C12.2335 1.86762 12.4106 1.83016 12.5881 1.79547C12.8268 1.74884 13.0654 1.70188 13.3054 1.66326C13.4656 1.63758 13.6276 1.62236 13.7892 1.60894C14.1181 1.58178 14.4475 1.561 14.7763 1.53351C15.0356 1.51192 15.213 1.72184 15.21 1.96007C15.2047 2.40151 15.2086 2.84329 15.2086 3.28473H15.2089L15.2091 3.28489Z" fill="#FE9F0F"/>
<path d="M12.1509 15.9848C12.1438 15.7953 12.2103 15.6275 12.2917 15.4629C12.3878 15.2688 12.4792 15.0723 12.5759 14.8786C12.6713 14.6875 12.7723 14.4991 12.8684 14.3084C12.9365 14.1732 12.9991 14.0354 13.0666 13.9001C13.1352 13.7625 13.2075 13.6267 13.2768 13.4893C13.3436 13.3566 13.408 13.2227 13.4746 13.0899C13.546 12.9475 13.619 12.8058 13.6905 12.6637C13.7549 12.5357 13.8178 12.4069 13.8821 12.2788C13.9559 12.1314 14.0308 11.9843 14.1046 11.8369C14.1687 11.7086 14.2316 11.5797 14.2957 11.4514C14.3682 11.3063 14.4418 11.1616 14.5145 11.0163C14.58 10.8854 14.6442 10.7539 14.7096 10.623C14.781 10.4802 14.8536 10.3378 14.925 10.1948C14.9904 10.0639 15.0544 9.93236 15.1199 9.80163C15.1928 9.65667 15.2676 9.51268 15.3401 9.36755C15.4054 9.23698 15.4685 9.10511 15.5339 8.97454C15.6064 8.82957 15.6813 8.68575 15.7537 8.54078C15.8202 8.40776 15.8837 8.2731 15.9502 8.14008C16.0203 8.00002 16.0931 7.86127 16.1637 7.72138C16.2294 7.59114 16.2939 7.46041 16.3582 7.32951C16.4211 7.20091 16.4786 7.06936 16.5482 6.94452C16.564 6.91621 16.6199 6.91081 16.6575 6.89478C16.6625 6.92963 16.6788 6.96742 16.6708 6.99884C16.6227 7.18798 16.5703 7.37614 16.5167 7.56398C16.4474 7.80662 16.3744 8.04813 16.306 8.29094C16.2669 8.42936 16.2356 8.56991 16.1975 8.70866C16.1561 8.86049 16.1109 9.01119 16.0676 9.16254C16.0364 9.272 16.0044 9.38146 15.9751 9.49141C15.938 9.63032 15.9049 9.77038 15.8672 9.90913C15.8259 10.061 15.781 10.2118 15.7379 10.363C15.7067 10.4726 15.6742 10.5819 15.6452 10.6922C15.6065 10.8393 15.5731 10.9877 15.5331 11.1343C15.4931 11.2807 15.4474 11.4257 15.4051 11.5717C15.3742 11.6785 15.3432 11.7853 15.3149 11.8928C15.2768 12.0372 15.2433 12.1828 15.2042 12.3268C15.1635 12.4758 15.118 12.6237 15.0752 12.7723C15.043 12.8845 15.01 12.9965 14.9805 13.1094C14.9419 13.2564 14.9091 13.405 14.8691 13.5518C14.8306 13.6931 14.7852 13.8326 14.7442 13.9733C14.7117 14.0853 14.6797 14.1976 14.6503 14.3105C14.612 14.4576 14.5794 14.6063 14.539 14.7529C14.4995 14.8967 14.4527 15.0384 14.4108 15.1816C14.3804 15.2858 14.3519 15.3907 14.3244 15.4957C14.2867 15.6402 14.2524 15.7855 14.2139 15.9298C14.136 16.2214 14.0529 16.5071 13.8196 16.725C13.5733 16.9549 13.1503 17.0807 12.8287 16.9426C12.4858 16.7954 12.2717 16.5432 12.1734 16.187C12.1555 16.1224 12.1576 16.0524 12.1503 15.9848H12.1509ZM13.1748 16.5157C13.4696 16.5292 13.6793 16.2711 13.6732 15.9645C13.6666 15.6396 13.4464 15.4673 13.1428 15.4594C12.8437 15.4516 12.64 15.6716 12.6317 16.0007C12.624 16.3003 12.8741 16.5306 13.175 16.5159L13.1748 16.5157Z" fill="#FE9F0F"/>
<path d="M10.2881 2.46027C10.4858 2.46076 10.6261 2.57202 10.6838 2.75593C10.7511 2.9706 10.8267 3.18249 10.8958 3.3965C10.9358 3.52036 10.9686 3.64651 11.0072 3.77086C11.0483 3.9029 11.0953 4.03298 11.1345 4.16551C11.1813 4.32389 11.231 4.48228 11.2637 4.64393C11.3066 4.85549 11.1567 5.04022 10.9745 5.07834C10.7553 5.12432 10.5373 5.177 10.3221 5.23852C10.1019 5.30135 9.88554 5.3776 9.66801 5.44976C9.57859 5.47937 9.49063 5.5134 9.40219 5.54596C9.22514 5.61108 9.04631 5.67162 8.87202 5.74345C8.72293 5.80497 8.58084 5.88367 8.43273 5.94798C8.29177 6.00933 8.14952 6.06922 8.00336 6.11601C7.88841 6.15283 7.71998 6.05204 7.6304 5.92262C7.44392 5.65313 7.25094 5.38824 7.06544 5.1181C6.98464 5.00029 6.91489 4.8748 6.84124 4.75208C6.75979 4.61628 6.83457 4.39572 6.94887 4.31064C7.15242 4.15897 7.35922 4.01171 7.56797 3.8674C7.75201 3.7401 7.93719 3.61411 8.12773 3.49729C8.29763 3.39323 8.47565 3.30275 8.6501 3.20654C8.77968 3.1352 8.90779 3.06125 9.03948 2.994C9.17832 2.92315 9.32041 2.85836 9.46153 2.79193C9.60769 2.72304 9.75174 2.64893 9.90147 2.58904C10.0299 2.53766 10.1468 2.44587 10.2878 2.45995L10.2881 2.46027Z" fill="#FE9F0F"/>
<path d="M3.57563 7.87368C3.55417 7.76373 3.62506 7.67357 3.68814 7.58784C3.86957 7.34143 4.05248 7.09551 4.24741 6.86006C4.47535 6.58469 4.71044 6.31455 4.95398 6.05325C5.20842 5.78034 5.47342 5.51707 5.74038 5.25643C5.86215 5.13748 5.9966 5.0308 6.13089 4.92592C6.25868 4.82627 6.52661 4.87765 6.62887 5.01591C6.85583 5.32302 7.07824 5.63357 7.30927 5.93741C7.41251 6.07322 7.45055 6.21409 7.37934 6.36953C7.34796 6.43792 7.29951 6.50926 7.23952 6.55164C6.94184 6.76189 6.62871 6.95103 6.33802 7.17028C5.91661 7.48803 5.51667 7.83327 5.15021 8.21564C5.05267 8.31741 4.96162 8.42622 4.85855 8.52194C4.78604 8.58935 4.7041 8.65283 4.61533 8.69341C4.56151 8.71812 4.47339 8.71894 4.42316 8.69047C4.25034 8.59197 4.08694 8.47678 3.92127 8.36601C3.86746 8.33001 3.81934 8.28567 3.76601 8.24886C3.63855 8.16083 3.5675 8.04401 3.57547 7.87335L3.57563 7.87368Z" fill="#FE9F0F"/>
<path d="M1.52202 11.8896C1.55064 11.796 1.58933 11.6611 1.63323 11.5277C1.67306 11.407 1.71728 11.2875 1.76199 11.1686C1.80475 11.0547 1.85027 10.9418 1.89514 10.8287C1.92701 10.7482 1.95855 10.6676 1.99285 10.588C2.08471 10.3744 2.17071 10.1577 2.27265 9.94878C2.39101 9.7063 2.52075 9.46921 2.65114 9.23295C2.76608 9.02466 2.88753 8.81997 3.00816 8.61496C3.0966 8.46443 3.33283 8.35807 3.48419 8.45854C3.69034 8.59532 3.90528 8.72082 4.09891 8.87364C4.24003 8.98506 4.24003 9.19335 4.13224 9.3393C3.95714 9.57655 3.7757 9.80921 3.60824 10.0519C3.47639 10.243 3.35933 10.4445 3.23984 10.6442C3.13855 10.8133 3.03986 10.9843 2.94671 11.1581C2.87517 11.2914 2.81372 11.4304 2.74852 11.5671C2.67764 11.7159 2.60724 11.8649 2.53717 12.0141C2.50498 12.0825 2.47701 12.1532 2.44173 12.2198C2.33394 12.4234 2.10389 12.4878 1.90262 12.3759C1.828 12.3345 1.74394 12.3078 1.67501 12.2591C1.57454 12.1881 1.52105 12.0578 1.52186 11.8896H1.52202Z" fill="#FE9F0F"/>
<path d="M0.75 16.1899C0.790645 15.7479 0.822185 15.305 0.874698 14.8646C0.915181 14.5247 0.972896 14.1862 1.03907 13.8503C1.1041 13.5201 1.18539 13.1929 1.26782 12.8665C1.31887 12.6639 1.58972 12.4985 1.80547 12.6173C1.86188 12.6484 1.93195 12.6613 1.97878 12.7022C2.11778 12.8236 2.17664 12.9726 2.11567 13.1615C2.02918 13.4298 1.94821 13.6999 1.87147 13.9712C1.82871 14.1226 1.79782 14.2773 1.76466 14.4313C1.71995 14.6384 1.678 14.8462 1.63508 15.0539C1.62679 15.0938 1.61639 15.1337 1.61183 15.1741C1.57151 15.5393 1.53152 15.9045 1.49315 16.2699C1.47884 16.4054 1.46925 16.5412 1.45673 16.6768C1.44747 16.7776 1.41349 16.808 1.31074 16.8084C1.17271 16.8089 1.03451 16.8089 0.896484 16.8084C0.789507 16.808 0.759267 16.7771 0.758779 16.6655C0.757966 16.5075 0.758617 16.3494 0.758617 16.1914C0.755853 16.1909 0.752926 16.1904 0.750163 16.1899H0.75Z" fill="#FE9F0F"/>
</g>
<defs>
<clipPath id="clip0_2536_73">
<rect width="29.25" height="16.5" fill="white" transform="translate(0.75 0.5)"/>
</clipPath>
</defs>
</svg>
