<svg width="103" height="32" viewBox="0 0 103 32" fill="none" xmlns="http://www.w3.org/2000/svg">
<rect x="0.5" y="0.5" width="102" height="31" rx="15.5" fill="white" fill-opacity="0.16"/>
<rect x="0.5" y="0.5" width="102" height="31" rx="15.5" stroke="white" stroke-dasharray="5 2"/>
<path d="M21.9206 21H19.7926V12.866H16.6286V10.948H25.0986V12.866H21.9206V21ZM27.6538 17.374V21H25.7078V13.524H27.4998V14.966C28.0458 14.014 29.2078 13.44 30.4118 13.44V15.456C28.7598 15.33 27.6538 15.722 27.6538 17.374ZM35.8747 21V20.076C35.3847 20.776 34.6427 21.14 33.6207 21.14C32.0667 21.14 31.0307 20.23 31.0307 18.83C31.0307 17.374 32.2067 16.59 34.3907 16.59C34.8107 16.59 35.1747 16.618 35.6367 16.674V16.226C35.6367 15.386 35.1607 14.896 34.3487 14.896C33.5087 14.896 33.0047 15.386 32.9347 16.226H31.1847C31.2967 14.504 32.5427 13.384 34.3487 13.384C36.3087 13.384 37.4567 14.462 37.4567 16.296V21H35.8747ZM32.8647 18.774C32.8647 19.404 33.3127 19.796 34.0407 19.796C35.0347 19.796 35.6367 19.25 35.6367 18.382V17.85C35.1747 17.78 34.8527 17.752 34.5167 17.752C33.4107 17.752 32.8647 18.102 32.8647 18.774ZM41.0796 16.926V21H39.1336V13.524H40.9256V14.588C41.4716 13.846 42.2416 13.384 43.2216 13.384C44.7196 13.384 45.7556 14.364 45.7556 16.17V21H43.8236V16.828C43.8236 15.722 43.3896 15.106 42.5076 15.106C41.7376 15.106 41.0796 15.722 41.0796 16.926ZM53.7465 18.606C53.7465 20.174 52.5565 21.14 50.4285 21.14C48.3005 21.14 47.1105 20.118 46.9565 18.452H48.8185C48.8325 19.222 49.4905 19.712 50.4565 19.712C51.2125 19.712 51.7865 19.474 51.7865 18.942C51.7865 18.466 51.4785 18.27 50.7645 18.13L49.4205 17.878C48.0765 17.64 47.2645 16.898 47.2645 15.736C47.2645 14.35 48.4545 13.384 50.3165 13.384C52.1925 13.384 53.4805 14.378 53.6205 15.988H51.7585C51.6885 15.26 51.1425 14.812 50.3165 14.812C49.6025 14.812 49.1265 15.078 49.1265 15.554C49.1265 16.002 49.4345 16.184 50.1065 16.31L51.5485 16.576C53.0045 16.856 53.7465 17.528 53.7465 18.606ZM57.035 21H55.075V10.948H57.035V21ZM63.2321 21V20.076C62.7421 20.776 62.0001 21.14 60.9781 21.14C59.4241 21.14 58.3881 20.23 58.3881 18.83C58.3881 17.374 59.5641 16.59 61.7481 16.59C62.1681 16.59 62.5321 16.618 62.9941 16.674V16.226C62.9941 15.386 62.5181 14.896 61.7061 14.896C60.8661 14.896 60.3621 15.386 60.2921 16.226H58.5421C58.6541 14.504 59.9001 13.384 61.7061 13.384C63.6661 13.384 64.8141 14.462 64.8141 16.296V21H63.2321ZM60.2221 18.774C60.2221 19.404 60.6701 19.796 61.3981 19.796C62.3921 19.796 62.9941 19.25 62.9941 18.382V17.85C62.5321 17.78 62.2101 17.752 61.8741 17.752C60.7681 17.752 60.2221 18.102 60.2221 18.774ZM71.0297 19.11V20.804C70.5537 21.042 70.1057 21.14 69.5317 21.14C67.9917 21.14 67.0257 20.258 67.0257 18.578V15.19H65.5137V13.524H67.0257V11.312H68.9577V13.524H71.0997V15.19H68.9577V18.13C68.9577 18.998 69.3497 19.348 70.0497 19.348C70.4137 19.348 70.7497 19.264 71.0297 19.11ZM75.3719 21.126C73.1319 21.126 71.6339 19.572 71.6339 17.234C71.6339 15.008 73.1879 13.384 75.3439 13.384C77.7099 13.384 79.2779 15.302 78.9279 17.738H73.6219C73.7479 18.956 74.3359 19.628 75.3299 19.628C76.1839 19.628 76.7579 19.208 76.9819 18.466H78.9139C78.4939 20.16 77.1919 21.126 75.3719 21.126ZM75.3019 14.812C74.3919 14.812 73.8179 15.4 73.6499 16.506H76.8699C76.8139 15.47 76.2259 14.812 75.3019 14.812ZM81.4353 13.762H79.6153C79.6853 12.012 81.1273 10.808 83.0593 10.808C85.0193 10.808 86.3633 11.914 86.3633 13.468C86.3633 14.252 85.8873 14.924 85.1033 15.568L84.1373 16.338C83.4793 16.884 83.3813 17.234 83.4933 17.976H82.2473C81.8413 16.926 81.7713 16.268 82.5973 15.568L83.5353 14.77C83.9693 14.378 84.2073 14.098 84.2073 13.622C84.2073 12.978 83.7033 12.53 82.8633 12.53C82.0373 12.53 81.4913 13.02 81.4353 13.762ZM84.1373 19.796C84.1373 20.538 83.5493 21.07 82.7793 21.07C81.9953 21.07 81.4073 20.538 81.4073 19.796C81.4073 19.054 81.9673 18.508 82.7793 18.508C83.5633 18.508 84.1373 19.054 84.1373 19.796Z" fill="white"/>
</svg>
