<svg width="17" height="16" viewBox="0 0 17 16" fill="none" xmlns="http://www.w3.org/2000/svg">
<g clip-path="url(#clip0_3000_2020)">
<path d="M10.718 1.77593H11.47L11.742 1.82393L11.854 1.85593C12.0354 1.89859 12.1634 1.93593 12.238 1.96793C12.398 2.03193 12.5474 2.09859 12.686 2.16793C12.8247 2.23726 12.9474 2.31459 13.054 2.39993C13.1287 2.45326 13.23 2.53326 13.358 2.63993C13.4434 2.72526 13.582 2.75193 13.774 2.71993L14.382 2.54393L14.526 2.49593C14.75 2.41059 14.9154 2.34126 15.022 2.28793C15.2354 2.19193 15.3634 2.12793 15.406 2.09593L15.486 2.06393V2.04793H15.502L15.518 2.03193H15.534L15.566 1.99993H15.582V2.04793L15.566 2.06393V2.09593H15.55V2.11193L15.534 2.14393C15.534 2.16526 15.5314 2.18393 15.526 2.19993C15.5207 2.21593 15.478 2.30393 15.398 2.46393C15.318 2.62393 15.2087 2.79993 15.07 2.99193C14.9847 3.09859 14.8674 3.22659 14.718 3.37593C14.6434 3.42926 14.5767 3.48526 14.518 3.54393C14.4594 3.60259 14.414 3.63726 14.382 3.64793L14.302 3.71193H14.286V3.72793H14.27L14.254 3.74393H14.238V3.75993H14.222V3.77593H14.206H14.286L14.686 3.67993C14.9634 3.62659 15.2194 3.56259 15.454 3.48793L15.854 3.35993L15.918 3.32793H15.934L15.95 3.31193H15.966L15.998 3.29593H16.03V3.32793H16.014V3.34393H15.998V3.35993H15.982V3.37593H15.966V3.39193C15.966 3.40259 15.902 3.48793 15.774 3.64793L15.678 3.77593C15.6247 3.85059 15.5927 3.88793 15.582 3.88793C15.5714 3.88793 15.566 3.89326 15.566 3.90393L15.55 3.91993C15.5287 3.95193 15.422 4.05859 15.23 4.23993C15.102 4.37859 14.9207 4.54393 14.686 4.73593C14.5047 4.88526 14.414 5.06126 14.414 5.26393C14.414 5.38126 14.4034 5.58926 14.382 5.88793V5.98393C14.3714 6.13326 14.3394 6.37326 14.286 6.70393L14.27 6.84793C14.2167 7.16793 14.1367 7.51193 14.03 7.87993C13.9234 8.24793 13.7847 8.62926 13.614 9.02393C13.486 9.35459 13.3207 9.68526 13.118 10.0159C12.9687 10.2933 12.814 10.5439 12.654 10.7679L12.206 11.3439C12.0674 11.5146 11.8807 11.7173 11.646 11.9519L11.262 12.3199L10.99 12.5439C10.894 12.6186 10.75 12.7306 10.558 12.8799L10.302 13.0559C10.1314 13.1733 10.0087 13.2533 9.93403 13.2959L9.35803 13.5999C9.0807 13.7386 8.83536 13.8453 8.62203 13.9199C8.49403 13.9733 8.28603 14.0479 7.99803 14.1439L7.80603 14.2079C7.50736 14.2933 7.23003 14.3573 6.97403 14.3999C6.6327 14.4639 6.3287 14.5066 6.06203 14.5279L5.55003 14.5759H4.60603L4.47803 14.5599C4.38203 14.5599 4.31803 14.5546 4.28603 14.5439L3.67803 14.4799C3.34736 14.4266 3.07536 14.3786 2.86203 14.3359C2.75536 14.3146 2.5367 14.2453 2.20603 14.1279L1.98203 14.0639C1.5127 13.8933 1.18203 13.7599 0.990029 13.6639C0.691363 13.5146 0.515363 13.4293 0.462029 13.4079L0.366029 13.3439C0.312696 13.3119 0.270029 13.2853 0.238029 13.2639L0.110029 13.1839H0.0940293L0.0780293 13.1679H0.0620293V13.1519H0.0460293V13.1359H0.0300293V13.1199H0.126029C0.147363 13.1306 0.206029 13.1359 0.302029 13.1359L0.478029 13.1519H1.08603C1.3847 13.1306 1.6087 13.1093 1.75803 13.0879C1.95003 13.0559 2.2167 12.9973 2.55803 12.9119C2.87803 12.8266 3.1607 12.7306 3.40603 12.6239L3.95003 12.3839C4.0887 12.3093 4.25403 12.2079 4.44603 12.0799L4.78203 11.8559V11.8399H4.79803L4.81403 11.8239H4.83003V11.8079L4.84603 11.7919L4.73403 11.7759C4.63803 11.7759 4.56336 11.7706 4.51003 11.7599C4.41403 11.7599 4.30203 11.7386 4.17403 11.6959C4.0887 11.6746 3.95003 11.6319 3.75803 11.5679L3.67803 11.5359C3.5607 11.4826 3.3847 11.3919 3.15003 11.2639L3.03803 11.1839C2.91003 11.0986 2.8247 11.0346 2.78203 10.9919L2.49403 10.7039C2.4407 10.6506 2.3607 10.5546 2.25403 10.4159L2.19003 10.3199C2.11536 10.2026 2.03536 10.0479 1.95003 9.85593L1.82203 9.59993V9.58393L1.80603 9.56793V9.53593H1.85403L2.01403 9.56793C2.07803 9.57859 2.24336 9.58393 2.51003 9.58393L2.75003 9.56793C2.86736 9.56793 2.94203 9.56259 2.97403 9.55193L3.16603 9.51993L3.19803 9.50393H3.23003V9.48793H3.24603L3.21403 9.47193H3.19803L3.16603 9.45593H3.10203C3.09136 9.44526 3.07536 9.43993 3.05403 9.43993L3.00603 9.42393C2.93136 9.39193 2.79803 9.33859 2.60603 9.26393C2.38203 9.15726 2.2167 9.07193 2.11003 9.00793C2.0247 8.94393 1.90736 8.84793 1.75803 8.71993C1.68336 8.65593 1.56603 8.53326 1.40603 8.35193L1.37403 8.31993C1.21403 8.11726 1.0967 7.93059 1.02203 7.75993C0.915363 7.55726 0.835363 7.35459 0.782029 7.15193C0.718029 6.89593 0.680696 6.69859 0.670029 6.55993L0.654029 6.27193H0.686029L0.702029 6.28793H0.718029L0.734029 6.30393L0.958029 6.39993C1.1607 6.48526 1.34736 6.54393 1.51803 6.57593L1.91803 6.65593H2.11003H2.09403V6.63993H2.07803V6.62393H2.06203L2.04603 6.60793H2.03003L1.88603 6.49593C1.8327 6.45326 1.74736 6.37326 1.63003 6.25593L1.37403 5.96793C1.33136 5.91459 1.27803 5.83993 1.21403 5.74393L1.13403 5.63193C1.0807 5.51459 1.01136 5.35993 0.926029 5.16793C0.840696 4.93326 0.787363 4.75193 0.766029 4.62393C0.723363 4.46393 0.702029 4.28259 0.702029 4.07993C0.691363 3.99459 0.691363 3.88259 0.702029 3.74393V3.61593C0.723363 3.48793 0.755363 3.34393 0.798029 3.18393L0.814029 3.13593C0.878029 2.93326 0.936696 2.77859 0.990029 2.67193L1.10203 2.39993L1.11803 2.38393V2.35193H1.15003V2.36793H1.16603V2.38393L1.18203 2.39993V2.41593L1.37403 2.62393C1.45936 2.71993 1.61403 2.87993 1.83803 3.10393C1.99803 3.26393 2.09936 3.35459 2.14203 3.37593C2.1527 3.37593 2.16336 3.38659 2.17403 3.40793L2.20603 3.43993C2.23803 3.47193 2.33403 3.55193 2.49403 3.67993C2.57936 3.75459 2.7447 3.87726 2.99003 4.04793L3.13403 4.14393C3.4327 4.33593 3.72603 4.51193 4.01403 4.67193C4.46203 4.88526 4.8087 5.03993 5.05403 5.13593L5.13403 5.16793C5.51803 5.29593 5.7527 5.37059 5.83803 5.39193C6.01936 5.45593 6.27536 5.51459 6.60603 5.56793C6.75536 5.59993 6.94736 5.63193 7.18203 5.66393L7.42203 5.69593L7.79003 5.72793H7.88603V5.67993L7.85403 5.50393C7.8327 5.35459 7.82203 5.18926 7.82203 5.00793C7.82203 4.77326 7.8407 4.57593 7.87803 4.41593C7.91536 4.25593 7.96603 4.07993 8.03003 3.88793C8.09403 3.69593 8.15803 3.54126 8.22203 3.42393C8.2647 3.34926 8.35003 3.22926 8.47803 3.06393C8.60603 2.89859 8.7447 2.74659 8.89403 2.60793C9.10736 2.43726 9.29936 2.30393 9.47003 2.20793C9.66203 2.10126 9.85936 2.01059 10.062 1.93593C10.2647 1.86126 10.4194 1.81859 10.526 1.80793L10.718 1.77593Z" fill="#FE9F0F"/>
</g>
<defs>
<clipPath id="clip0_3000_2020">
<rect width="16.02" height="16" fill="white" transform="matrix(1 0 0 -1 0.0200195 16)"/>
</clipPath>
</defs>
</svg>
