<svg width="96" height="198" viewBox="0 0 96 198" fill="none" xmlns="http://www.w3.org/2000/svg">
<path d="M98 41V193C98 193 74.3433 174.859 50.5168 157.499C26.7747 138.887 1.9995 129.236 2 102.696C2.00046 78.2245 24.9695 72.2486 49.1404 61.3356C72.9669 50.5781 98 41 98 41Z" stroke="url(#paint0_linear_3004_2078)" stroke-width="4"/>
<path d="M96 0V136C96 136 74.8075 119.768 53.463 104.236C32.194 87.5828 9.99955 78.9478 10 55.2018C10.0004 33.3061 30.5769 27.9592 52.23 18.195C73.5746 8.56991 96 0 96 0Z" fill="url(#paint1_linear_3004_2078)"/>
<defs>
<linearGradient id="paint0_linear_3004_2078" x1="50" y1="193" x2="108.589" y2="68.593" gradientUnits="userSpaceOnUse">
<stop stop-color="#FE9F0F" stop-opacity="0.78"/>
<stop offset="0.91" stop-color="#FE9F0F" stop-opacity="0.31"/>
</linearGradient>
<linearGradient id="paint1_linear_3004_2078" x1="10.0005" y1="67.8458" x2="79.9838" y2="101.002" gradientUnits="userSpaceOnUse">
<stop stop-color="#FE9F0F" stop-opacity="0.78"/>
<stop offset="0.91" stop-color="#FE9F0F" stop-opacity="0.31"/>
</linearGradient>
</defs>
</svg>
