<svg width="146" height="318" viewBox="0 0 146 318" fill="none" xmlns="http://www.w3.org/2000/svg">
<path d="M157 67V313C157 313 118.804 283.64 80.3344 255.544C42.0008 225.422 1.99919 209.803 2 166.85C2.00075 127.245 39.0862 117.573 78.1122 99.9116C116.582 82.5015 157 67 157 67Z" stroke="url(#paint0_linear_2891_2079)" stroke-width="4"/>
<path d="M157.499 0V220.5C157.499 220.5 123.123 194.183 88.5002 169C54 142 17.9985 128 17.9993 89.5C17.9999 54 51.3769 45.331 86.5002 29.5C121.123 13.8946 157.499 0 157.499 0Z" fill="url(#paint1_linear_2891_2079)"/>
<defs>
<linearGradient id="paint0_linear_2891_2079" x1="2.00081" y1="189.721" x2="128.3" y2="249.343" gradientUnits="userSpaceOnUse">
<stop stop-color="white" stop-opacity="0.71"/>
<stop offset="0.91" stop-color="white" stop-opacity="0.31"/>
</linearGradient>
<linearGradient id="paint1_linear_2891_2079" x1="18" y1="110" x2="131.5" y2="163.798" gradientUnits="userSpaceOnUse">
<stop stop-color="#FE9F0F" stop-opacity="0.78"/>
<stop offset="0.91" stop-color="#FE9F0F" stop-opacity="0.31"/>
</linearGradient>
</defs>
</svg>
