<?xml version="1.0" encoding="UTF-8"?>
<svg xmlns="http://www.w3.org/2000/svg" xmlns:xlink="http://www.w3.org/1999/xlink" viewBox="0 0 1000 1000">
  <defs>
    <style>
      .cls-1, .cls-2, .cls-3, .cls-4, .cls-5, .cls-6, .cls-7 {
        fill: none;
      }

      .cls-8 {
        fill: url(#linear-gradient);
      }

      .cls-9 {
        clip-path: url(#clippath);
      }

      .cls-10, .cls-11, .cls-12 {
        fill: #fff;
      }

      .cls-13, .cls-14 {
        fill: #fec972;
      }

      .cls-15, .cls-16, .cls-17 {
        fill: #c1d7fe;
      }

      .cls-18 {
        fill: #777;
      }

      .cls-2, .cls-3, .cls-4, .cls-5, .cls-6, .cls-7 {
        stroke-width: 2.1px;
      }

      .cls-2, .cls-3, .cls-4, .cls-5, .cls-6, .cls-7, .cls-11 {
        stroke-linecap: round;
      }

      .cls-2, .cls-3, .cls-4, .cls-5, .cls-7, .cls-11 {
        stroke-linejoin: round;
      }

      .cls-2, .cls-4 {
        stroke-dasharray: 0 8.4;
      }

      .cls-2, .cls-5, .cls-11 {
        stroke: #c1d7fe;
      }

      .cls-3 {
        stroke: #fec972;
      }

      .cls-3, .cls-19, .cls-14, .cls-20, .cls-6 {
        mix-blend-mode: multiply;
      }

      .cls-19 {
        fill: #a4c9ff;
      }

      .cls-21 {
        clip-path: url(#clippath-1);
      }

      .cls-22 {
        clip-path: url(#clippath-2);
      }

      .cls-4, .cls-7 {
        stroke: #777;
      }

      .cls-4, .cls-16 {
        opacity: .3;
      }

      .cls-23 {
        fill: url(#linear-gradient-8);
      }

      .cls-24 {
        fill: url(#linear-gradient-9);
      }

      .cls-25 {
        fill: url(#linear-gradient-3);
      }

      .cls-26 {
        fill: url(#linear-gradient-4);
      }

      .cls-27 {
        fill: url(#linear-gradient-2);
      }

      .cls-28 {
        fill: url(#linear-gradient-6);
      }

      .cls-29 {
        fill: url(#linear-gradient-7);
      }

      .cls-30 {
        fill: url(#linear-gradient-5);
      }

      .cls-31 {
        opacity: .33;
      }

      .cls-6 {
        stroke: #a4c9ff;
        stroke-miterlimit: 10;
      }

      .cls-32 {
        opacity: .55;
      }

      .cls-11 {
        stroke-width: 2.33px;
      }

      .cls-33 {
        fill: url(#radial-gradient);
        opacity: .7;
      }

      .cls-34 {
        isolation: isolate;
      }

      .cls-17 {
        opacity: .4;
      }

      .cls-12 {
        opacity: .65;
      }
    </style>
    <radialGradient id="radial-gradient" cx="500" cy="853.75" fx="500" fy="853.75" r="715.29" gradientUnits="userSpaceOnUse">
      <stop offset="0" stop-color="#ffbd50" stop-opacity=".8"/>
      <stop offset=".09" stop-color="#ffc05a" stop-opacity=".7"/>
      <stop offset=".33" stop-color="#ffca73" stop-opacity=".45"/>
      <stop offset=".55" stop-color="#ffd287" stop-opacity=".26"/>
      <stop offset=".74" stop-color="#ffd895" stop-opacity=".12"/>
      <stop offset=".9" stop-color="#ffdb9e" stop-opacity=".03"/>
      <stop offset="1" stop-color="#ffdda2" stop-opacity="0"/>
    </radialGradient>
    <linearGradient id="linear-gradient" x1="500" y1="118.71" x2="500" y2="1153.19" gradientUnits="userSpaceOnUse">
      <stop offset="0" stop-color="#d8d8d8" stop-opacity="0"/>
      <stop offset=".14" stop-color="#d8d8d8" stop-opacity=".02"/>
      <stop offset=".28" stop-color="#d8d8d8" stop-opacity=".07"/>
      <stop offset=".41" stop-color="#d8d8d8" stop-opacity=".16"/>
      <stop offset=".54" stop-color="#d8d8d8" stop-opacity=".28"/>
      <stop offset=".67" stop-color="#d8d8d8" stop-opacity=".45"/>
      <stop offset=".8" stop-color="#d8d8d8" stop-opacity=".64"/>
      <stop offset=".93" stop-color="#d8d8d8" stop-opacity=".87"/>
      <stop offset=".99" stop-color="#d8d8d8"/>
    </linearGradient>
    <clipPath id="clippath">
      <rect class="cls-1" x="290.92" y="207.22" width="418.16" height="547.83" rx="21.01" ry="21.01"/>
    </clipPath>
    <linearGradient id="linear-gradient-2" x1="410.01" y1="683.9" x2="592.85" y2="409.85" gradientTransform="translate(-57.75 352.84) rotate(-30.61)" gradientUnits="userSpaceOnUse">
      <stop offset=".13" stop-color="#d8d8d8"/>
      <stop offset=".21" stop-color="#d8d8d8" stop-opacity=".84"/>
      <stop offset=".36" stop-color="#d8d8d8" stop-opacity=".59"/>
      <stop offset=".51" stop-color="#d8d8d8" stop-opacity=".38"/>
      <stop offset=".65" stop-color="#d8d8d8" stop-opacity=".21"/>
      <stop offset=".79" stop-color="#d8d8d8" stop-opacity=".1"/>
      <stop offset=".9" stop-color="#d8d8d8" stop-opacity=".02"/>
      <stop offset="1" stop-color="#d8d8d8" stop-opacity="0"/>
    </linearGradient>
    <linearGradient id="linear-gradient-3" x1="1618.66" y1="-1413.18" x2="1682.89" y2="-1519.59" gradientTransform="translate(-115.42 2008.3) rotate(-21.57) scale(.93 .72) skewX(15.81)" gradientUnits="userSpaceOnUse">
      <stop offset=".13" stop-color="#d8d8d8"/>
      <stop offset=".29" stop-color="#d8d8d8" stop-opacity=".78"/>
      <stop offset=".54" stop-color="#d8d8d8" stop-opacity=".45"/>
      <stop offset=".75" stop-color="#d8d8d8" stop-opacity=".2"/>
      <stop offset=".91" stop-color="#d8d8d8" stop-opacity=".06"/>
      <stop offset="1" stop-color="#d8d8d8" stop-opacity="0"/>
    </linearGradient>
    <clipPath id="clippath-1">
      <rect class="cls-1" x="290.92" y="207.22" width="418.16" height="547.83" rx="21.01" ry="21.01"/>
    </clipPath>
    <linearGradient id="linear-gradient-4" x1="12.28" y1="595.91" x2="429.31" y2="174.78" gradientUnits="userSpaceOnUse">
      <stop offset=".13" stop-color="#d8d8d8"/>
      <stop offset=".14" stop-color="#d8d8d8" stop-opacity=".98"/>
      <stop offset=".27" stop-color="#d8d8d8" stop-opacity=".72"/>
      <stop offset=".4" stop-color="#d8d8d8" stop-opacity=".5"/>
      <stop offset=".52" stop-color="#d8d8d8" stop-opacity=".32"/>
      <stop offset=".65" stop-color="#d8d8d8" stop-opacity=".18"/>
      <stop offset=".77" stop-color="#d8d8d8" stop-opacity=".08"/>
      <stop offset=".89" stop-color="#d8d8d8" stop-opacity=".02"/>
      <stop offset="1" stop-color="#d8d8d8" stop-opacity="0"/>
    </linearGradient>
    <linearGradient id="linear-gradient-5" x1="348.88" y1="206.85" x2="77.05" y2="541.76" gradientUnits="userSpaceOnUse">
      <stop offset="0" stop-color="#a4c9ff"/>
      <stop offset=".23" stop-color="#a0c6fd"/>
      <stop offset=".43" stop-color="#95befa"/>
      <stop offset=".62" stop-color="#83b1f4"/>
      <stop offset=".8" stop-color="#6b9eeb"/>
      <stop offset=".89" stop-color="#5b93e6"/>
    </linearGradient>
    <linearGradient id="linear-gradient-6" x1="551.79" y1="785.75" x2="970.07" y2="233.18" xlink:href="#linear-gradient-4"/>
    <linearGradient id="linear-gradient-7" x1="523.9" y1="666.17" x2="937.74" y2="387.06" gradientUnits="userSpaceOnUse">
      <stop offset="0" stop-color="#ffbd50"/>
      <stop offset=".15" stop-color="#ffc360"/>
      <stop offset=".51" stop-color="#ffd184"/>
      <stop offset=".81" stop-color="#ffd999"/>
      <stop offset="1" stop-color="#ffdda2"/>
    </linearGradient>
    <linearGradient id="linear-gradient-8" x1="551.79" y1="785.75" x2="970.07" y2="233.18" xlink:href="#linear-gradient-4"/>
    <clipPath id="clippath-2">
      <rect class="cls-1" x="-729.08" y="165.81" width="418.16" height="547.83" rx="21.01" ry="21.01"/>
    </clipPath>
    <linearGradient id="linear-gradient-9" x1="-740.96" y1="996.46" x2="-558.12" y2="722.41" gradientTransform="translate(-243.8 -539.02) rotate(-30.61)" xlink:href="#linear-gradient-2"/>
  </defs>
  <g class="cls-34">
    <g id="Layer_1" data-name="Layer 1">
      <g>
        <g>
          <polygon class="cls-33" points="1000 911.17 0 911.17 157.44 796.33 842.54 796.33 1000 911.17"/>
          <polygon class="cls-4" points="1000 869.51 0 869.51 157.44 754.67 842.54 754.67 1000 869.51"/>
          <g>
            <rect class="cls-10" x="254.32" y="170.59" width="491.36" height="643.08" rx="22.06" ry="22.06"/>
            <path class="cls-18" d="M723.62,171.64c11.6,0,21.01,9.41,21.01,21.01V791.61c0,11.6-9.41,21.01-21.01,21.01H276.38c-11.6,0-21.01-9.41-21.01-21.01V192.66c0-11.6,9.41-21.01,21.01-21.01h447.23m0-2.1H276.38c-12.74,0-23.11,10.37-23.11,23.11V791.61c0,12.74,10.37,23.11,23.11,23.11h447.23c12.74,0,23.11-10.37,23.11-23.11V192.66c0-12.74-10.37-23.11-23.11-23.11h0Z"/>
          </g>
          <rect class="cls-8" x="255.37" y="171.64" width="489.26" height="640.98" rx="21.01" ry="21.01"/>
          <g>
            <path class="cls-10" d="M311.93,206.17h376.13c12.18,0,22.06,9.89,22.06,22.06v505.81c0,12.18-9.89,22.06-22.06,22.06H311.93c-12.18,0-22.06-9.89-22.06-22.06V228.23c0-12.18,9.89-22.06,22.06-22.06Z"/>
            <path class="cls-15" d="M688.07,207.22c11.6,0,21.01,9.41,21.01,21.01v505.81c0,11.6-9.41,21.01-21.01,21.01H311.93c-11.6,0-21.01-9.41-21.01-21.01V228.23c0-11.6,9.41-21.01,21.01-21.01h376.13m0-2.1H311.93c-12.74,0-23.11,10.37-23.11,23.11v505.81c0,12.74,10.37,23.11,23.11,23.11h376.13c12.74,0,23.11-10.37,23.11-23.11V228.23c0-12.74-10.37-23.11-23.11-23.11h0Z"/>
          </g>
          <circle class="cls-7" cx="500" cy="783.84" r="14.08"/>
          <path class="cls-11" d="M555.27,448.49c0,1.14-.27,2.3-.45,3.43-.2,1.21-.42,2.44-.62,3.65-.08,.52-.15,1.06-.26,1.58-.06,.37-.19,.94-.69,.92-1.07-.03-1.17-1.64-1.41-2.4-.54-1.57-2.28-2.92-3.98-2.12-.73,.33-1.31,1.03-1.4,1.85-.04,.47,.11,.89,.26,1.32,.16,.52,.11,.9-.33,1.25-.33,.26-.73,.43-1.12,.6-.5,.23-.98,.47-1.48,.74-.88,.47-1.73,1-2.56,1.57-1.73,1.13-3.39,2.37-5.13,3.48-2.09,1.32-4.26,2.33-6.62,3.12-2.52,.84-5.04,1.65-7.56,2.48,.13-.49-.66-.68-.84-.17-.55,1.52-.27,3.33,.69,4.64,.46,.63,1.06,1.09,1.73,1.48,.63,.36,1.37,.68,1.85,1.25,.65,.76,.23,1.66-.01,2.5-.27,.88-.24,1.78,.12,2.63,.73,1.82,2.35,3.17,3.68,4.54,1.64,1.65,3.27,3.32,4.89,4.99,1.35,1.37,2.73,2.79,4.5,3.59,.9,.41,1.87,.64,2.7,1.2,.75,.49,1.26,1.27,1.61,2.09,.36,.82,.58,1.7,.78,2.57,.14,.59,.36,1.5-.07,2.01-.51,.65-1.71-.11-2.35-.15-.86-.05-1.54,.53-1.88,1.25-.41,.88-.31,1.9-.76,2.73-.42,.78-1.22,1.28-2.01,1.61-1.72,.71-3.8,.9-5.03,2.44-.53,.66-.87,1.49-.74,2.34,.09,.69,.49,1.27,.95,1.8,.44,.51,.97,.96,1.37,1.52,.46,.65,.44,1.2,.1,1.91-.33,.69-.68,1.49-.13,2.18,.48,.61,1.35,.62,1.86,1.16,.51,.53,.68,1.45,.23,2.08-.43,.59-1.33,.81-1.97,.48-.74-.39-.99-1.39-1.57-1.97-.6-.61-1.44-.88-2.26-1.01-1.01-.15-2.03-.22-3.04-.31-.57-.06-1.14-.1-1.71-.16-.25-.03-.52-.04-.77-.07-.34-.03-.5,.06-.79,.2-2.08,1.04-4.16,2.08-6.25,3.12-1.97,.99-3.93,1.96-6.16,2.01-2.16,.03-4.27-.64-6.23-1.47-.98-.42-1.94-.88-2.89-1.35-.3-.15-.59,.09-.63,.35-.41,.38-.66,.9-.67,1.47,0,.32,.08,.65,.25,.94,.14,.27,.63,.56,.63,.86,.02,.35-.59,.73-.82,.94-.41,.36-.84,.72-1.26,1.08-.28,.24-.71,.75-1.11,.7-.4-.04-.65-.51-.82-.81-.74-1.31-1.22-2.85-2.54-3.7-1.41-.92-3.23-.72-4.69-1.52-1.39-.77-2.46-1.98-3.64-3-.97-.84-2.88-2.56-4.11-1.28-.51,.53-.42,1.3,.13,1.76,.24,.2,.51,.33,.76,.49,.12,.08,.37,.28,.38,.46-.01,.18-.33,.12-.48,.12-.47-.03-.96-.09-1.45-.13-.52-.04-1.06-.05-1.56-.18-.91-.22-1.41-1.07-2.07-1.65-.68-.58-1.53-1.03-2.45-.95-.82,.06-1.57,.53-1.84,1.34-.13,.35-.14,.76-.02,1.12,.14,.4,.6,.7,.65,1.11,.04,.4-.27,.79-.64,.93-.5,.18-1.07-.05-1.48-.36-.14-.12-.3-.11-.45-.06-1.58-.41-3.18,.33-4.76,.59-.85,.13-1.74,.09-2.46-.42-.78-.56-1.23-1.47-1.33-2.4-.1-1.11,.24-2.12,.62-3.11,.37-.93,.73-1.89,.56-2.9-.16-.92-.93-1.8-.58-2.76,.32-.86,1.12-1.54,1.63-2.31,1.2-1.8,1.85-3.92,1.94-6.09,1.41-2.37,3-4.61,4.82-6.69,.21-.25,.09-.59-.2-.7-4.12-1.63-8.29-3.28-12.71-3.78-1.06-.12-2.12-.17-3.15-.46-.96-.27-1.76-.78-2.44-1.49-.65-.66-1.16-1.44-1.66-2.22-.55-.86-1.12-1.73-1.57-2.64-.92-1.88-1.34-4.43,.33-6.03,.22-.2,.12-.66-.2-.7-2.61-.35-4.64-2.66-4.41-5.32,.11-1.29,.73-2.55,1.71-3.4,.51-.43,1.11-.76,1.58-1.27,.45-.49,.69-1.1,.71-1.77,.06-1.48-.87-2.86-1.67-4.02-.89-1.28-1.88-2.51-2.63-3.89-.73-1.35-1.19-2.89-.89-4.4,.22-1.16,.77-2.21,1.38-3.21,1.15-1.91,2.61-3.87,2.66-6.13,.02-.07,.03-.13,.01-.22l-.02-.02c0-.25-.02-.49-.06-.74-.04-.23-.21-.32-.37-.3-.45-.73-1.08-1.34-1.66-1.96-.82-.89-1.58-2.12-.59-3.2,1.34-1.45,3.46-.79,5.11-.45,1.5,.33,3.46,.32,4.14-1.36,.11-.3,.16-.62,.12-.94-.07-.42-.33-.8-.3-1.24,.04-.77,.79-1.35,1.37-1.75,1.11-.76,2.6-1.5,2.64-3.03,.06-1.66-1.62-2.53-2.8-3.28-.64-.39-1.27-.9-1.37-1.69-.11-.82,.44-1.18,1.19-1.23,.75-.03,1.51,0,2.12-.52,.56-.44,.82-1.15,1.05-1.81,.66-1.91,1.3-3.81,1.94-5.72,.34-.96,.66-1.92,1-2.9,.24-.71,.5-1.52,.17-2.25-.33-.77-1.1-.91-1.68-1.4-.51-.43-.65-1.13-.6-1.77,.14-1.61,1.54-2.57,2.91-3.13,.8-.33,1.64-.61,2.47-.86,.87-.28,1.79-.5,2.71-.48,.79,.04,1.62,.26,2.24,.77,.66,.54,.94,1.36,1.21,2.15,.42,1.29,1.08,2.85,2.61,3.05,1.55,.21,2.78-1.2,3.15-2.57,.44-1.67-.04-3.44,.53-5.09,.24-.68,.69-1.3,1.37-1.56,.77-.28,1.59-.24,2.27-.76,1.23-.92,1.4-2.64,.98-4.03-.19-.6-.47-1.17-.76-1.72,.25-.15,.36-.58,0-.72-.9-.41-.71-1.62-.39-2.36,.47-1.1,1.41-1.93,1.66-3.13,.47-2.21-1.71-3.06-2.87-4.47-.68-.83-.58-1.84,.23-2.55,1.09-.96,2.69-.75,4-.53,2.44,.4,5.01,.83,7.13,2.17,2.24,1.43,3.16,3.9,4.56,6.02,1.2,1.83,3.19,3.58,5.52,3.44,1.09-.05,1.94-.6,2.7-1.35,.6-.6,1.4-1.77,2.38-1.6,.94,.15,1.01,1.36,.8,2.09-.29,1.11-1.35,1.83-2.13,2.58-.76,.77-1.39,1.62-1.4,2.74,0,.82,.31,1.77,1.09,2.2,.44,.25,.96,.24,1.44,.1,.57-.16,1.12-.52,1.72-.28,.52,.21,.93,.59,1.45,.77,.54,.18,1.09,.08,1.59-.16,.52-.26,.95-.69,1.36-1.11,.45-.46,.89-.9,1.39-1.3,1.06-.86,2.23-1.54,3.42-2.18,1.2-.64,2.43-1.25,3.66-1.82,1.35-.61,2.78-1.17,4.28-1.29,4.46-.35,7.17,3.72,10.03,6.44,.72,.69,1.48,1.34,2.31,1.89,.93,.61,1.95,1.01,2.99,1.35,1.18,.37,2.41,.74,3.22,1.75,.75,.96,1.04,2.23,1.28,3.42,.54,2.69,1.06,5.52-.26,8.09-.55,1.07-1.29,2.12-1.48,3.35-.17,1.11,.18,2.13,.88,2.99,.72,.88,1.67,1.52,2.52,2.26,.94,.82,1.67,1.82,2.24,2.92,1.26,2.5,1.52,5.35,1.42,8.12-.05,1.39-.19,2.79-.34,4.18-.08,.05-.17,.14-.21,.27-.51,1.99,.81,3.8,2.18,5.1,.68,.66,1.41,1.29,1.98,2.05,.63,.85,.95,1.76,.95,2.82Z"/>
          <g class="cls-9">
            <rect class="cls-27" x="100.72" y="470.11" width="1108.29" height="99.92" transform="translate(457.04 -292.45) rotate(37.86)"/>
            <rect class="cls-25" x="4.93" y="572.76" width="1108.29" height="16.83" transform="translate(474.37 -220.79) rotate(37.86)"/>
          </g>
          <g class="cls-31">
            <g class="cls-21">
              <rect class="cls-15" x="363.01" y="268.61" width="274.13" height="19.4" rx="2.39" ry="2.39"/>
              <rect class="cls-15" x="389.56" y="297.2" width="221.02" height="19.38" rx="2.14" ry="2.14"/>
              <rect class="cls-15" x="363.01" y="593.95" width="274.13" height="15.02" rx="2.1" ry="2.1"/>
              <g>
                <line class="cls-5" x1="369.78" y1="658.31" x2="511.5" y2="658.31"/>
                <line class="cls-5" x1="370.32" y1="648.39" x2="593.42" y2="648.39"/>
              </g>
              <g>
                <line class="cls-5" x1="369.78" y1="713.32" x2="511.5" y2="713.32"/>
                <line class="cls-5" x1="370.32" y1="703.4" x2="593.42" y2="703.4"/>
              </g>
              <rect class="cls-5" x="327.33" y="635.01" width="344.41" height="36.69" rx="2.1" ry="2.1"/>
              <rect class="cls-5" x="327.33" y="690.01" width="344.41" height="36.69" rx="2.1" ry="2.1"/>
              <rect class="cls-15" x="341.01" y="645.04" width="16.63" height="16.63" rx="1.26" ry="1.26"/>
              <rect class="cls-15" x="341.01" y="700.04" width="16.63" height="16.63" rx="1.26" ry="1.26"/>
            </g>
          </g>
          <g>
            <circle class="cls-17" cx="494.48" cy="465.03" r="12.19"/>
            <circle class="cls-16" cx="494.48" cy="465.03" r="9.51"/>
            <circle class="cls-15" cx="494.48" cy="465.03" r="6.83"/>
          </g>
          <rect class="cls-26" x="98.77" y="259.59" width="289.92" height="205.18" rx="8.4" ry="8.4"/>
          <rect class="cls-30" x="89.11" y="248.16" width="288.14" height="202.48" rx="8.4" ry="8.4"/>
          <rect class="cls-7" x="89.11" y="248.16" width="288.14" height="202.48" rx="8.4" ry="8.4"/>
          <g>
            <rect class="cls-12" x="116.01" y="278.67" width="101.36" height="141.46" rx="1.68" ry="1.68"/>
            <line class="cls-6" x1="248.99" y1="328.34" x2="350.36" y2="328.34"/>
            <line class="cls-6" x1="248.99" y1="343.28" x2="350.36" y2="343.28"/>
            <line class="cls-6" x1="248.99" y1="357.38" x2="350.36" y2="357.38"/>
            <line class="cls-6" x1="248.99" y1="372.32" x2="350.36" y2="372.32"/>
            <line class="cls-6" x1="248.99" y1="387.27" x2="350.36" y2="387.27"/>
            <line class="cls-6" x1="248.99" y1="402.21" x2="350.36" y2="402.21"/>
            <line class="cls-6" x1="248.99" y1="417.15" x2="350.36" y2="417.15"/>
            <rect class="cls-19" x="248.99" y="278.67" width="101.36" height="13.93" rx="1.68" ry="1.68"/>
            <rect class="cls-19" x="248.99" y="299.4" width="101.36" height="13.93" rx="1.68" ry="1.68"/>
          </g>
          <path class="cls-2" d="M133.77,248.16c-1.26-12.15,.97-22.24,7.11-29.54,28.53-33.94,130.71,4.98,228.23,86.95,61.66,51.82,109.13,113.53,126.69,156.74"/>
          <path class="cls-15" d="M442.49,381.1l-7.86-4.54c-.88-.51-.88-1.79,0-2.3l7.86-4.54c.88-.51,1.99,.13,1.99,1.15v9.07c0,1.02-1.11,1.66-1.99,1.15Z"/>
          <path class="cls-15" d="M216.69,215.65l-11.76,2.61c-1.32,.29-2.47-.96-2.06-2.25l3.62-11.48c.41-1.29,2.06-1.66,2.98-.66l8.14,8.88c.92,1,.41,2.62-.92,2.91Z"/>
          <rect class="cls-28" x="630.45" y="357.49" width="225.44" height="350.87" rx="8.4" ry="8.4"/>
          <rect class="cls-29" x="620.48" y="350.07" width="225.44" height="349.89" rx="8.4" ry="8.4"/>
          <g>
            <rect class="cls-14" x="640" y="376.9" width="185.55" height="17.95" rx="1.68" ry="1.68"/>
            <rect class="cls-14" x="640" y="404.76" width="185.55" height="17.95" rx="1.68" ry="1.68"/>
          </g>
          <line class="cls-3" x1="640.84" y1="444.74" x2="825.56" y2="444.74"/>
          <line class="cls-3" x1="640.84" y1="461.01" x2="825.56" y2="461.01"/>
          <line class="cls-3" x1="640.84" y1="477.29" x2="825.56" y2="477.29"/>
          <line class="cls-3" x1="640.84" y1="493.56" x2="825.56" y2="493.56"/>
          <line class="cls-3" x1="640.84" y1="509.83" x2="825.56" y2="509.83"/>
          <line class="cls-3" x1="640.84" y1="526.11" x2="825.56" y2="526.11"/>
          <line class="cls-3" x1="845.92" y1="554.42" x2="620.48" y2="554.42"/>
          <g>
            <circle class="cls-12" cx="686.03" cy="618.23" r="16.77"/>
            <path class="cls-12" d="M719.59,658.21c-8.26,9.09-20.27,14.91-33.55,14.91s-25.29-5.83-33.55-14.91c7.84-9.84,20-16.29,33.55-16.29s25.7,6.46,33.55,16.29Z"/>
            <g class="cls-20">
              <path class="cls-13" d="M686.04,582.73c24.96,0,45.2,20.23,45.2,45.2s-20.23,45.2-45.2,45.2-45.2-20.23-45.2-45.2,20.23-45.2,45.2-45.2m0-2.1c-26.08,0-47.3,21.22-47.3,47.3s21.22,47.3,47.3,47.3,47.3-21.22,47.3-47.3-21.22-47.3-47.3-47.3h0Z"/>
            </g>
          </g>
          <g>
            <g class="cls-20">
              <path class="cls-13" d="M821.35,588.46c2.32,0,4.2,1.88,4.2,4.2v69.87c0,2.32-1.88,4.2-4.2,4.2h-58.45c-2.32,0-4.2-1.88-4.2-4.2v-69.87c0-2.32,1.88-4.2,4.2-4.2h58.45m0-2.1h-58.45c-3.48,0-6.3,2.83-6.3,6.3v69.87c0,3.48,2.83,6.3,6.3,6.3h58.45c3.48,0,6.3-2.83,6.3-6.3v-69.87c0-3.48-2.83-6.3-6.3-6.3h0Z"/>
            </g>
            <g>
              <rect class="cls-12" x="770.5" y="600.06" width="43.26" height="7.72" rx="1.68" ry="1.68"/>
              <rect class="cls-12" x="770.5" y="615.84" width="43.26" height="7.72" rx="1.68" ry="1.68"/>
              <rect class="cls-12" x="770.5" y="631.62" width="43.26" height="7.72" rx="1.68" ry="1.68"/>
              <rect class="cls-12" x="770.5" y="647.41" width="43.26" height="7.72" rx="1.68" ry="1.68"/>
            </g>
          </g>
          <rect class="cls-7" x="620.48" y="350.07" width="225.44" height="349.89" rx="8.4" ry="8.4"/>
          <path class="cls-2" d="M845.92,422.39c25.52-25.15,37.38-49.93,29.92-69.18-16.02-41.35-115.09-41.51-221.28-.36-79.26,30.71-140.08,75.76-159.17,113.83"/>
          <path class="cls-15" d="M770.36,326.09l10.8,5.33c1.22,.6,2.62-.34,2.54-1.69l-.78-12.02c-.09-1.35-1.61-2.1-2.73-1.35l-10.02,6.68c-1.13,.75-1.02,2.44,.2,3.04Z"/>
          <path class="cls-15" d="M555.21,406.28l9.06-.59c1.02-.07,1.58-1.21,1.02-2.06l-5.04-7.55c-.57-.85-1.84-.77-2.29,.15l-4.02,8.14c-.45,.92,.26,1.98,1.28,1.91Z"/>
          <rect class="cls-23" x="630.45" y="357.49" width="225.44" height="350.87" rx="8.4" ry="8.4"/>
          <rect class="cls-29" x="620.48" y="350.07" width="225.44" height="349.89" rx="8.4" ry="8.4"/>
          <g>
            <rect class="cls-14" x="640" y="376.9" width="185.55" height="17.95" rx="1.68" ry="1.68"/>
            <rect class="cls-14" x="640" y="404.76" width="185.55" height="17.95" rx="1.68" ry="1.68"/>
          </g>
          <line class="cls-3" x1="640.84" y1="444.74" x2="825.56" y2="444.74"/>
          <line class="cls-3" x1="640.84" y1="461.01" x2="825.56" y2="461.01"/>
          <line class="cls-3" x1="640.84" y1="477.29" x2="825.56" y2="477.29"/>
          <line class="cls-3" x1="640.84" y1="493.56" x2="825.56" y2="493.56"/>
          <line class="cls-3" x1="640.84" y1="509.83" x2="825.56" y2="509.83"/>
          <line class="cls-3" x1="640.84" y1="526.11" x2="825.56" y2="526.11"/>
          <line class="cls-3" x1="845.92" y1="554.42" x2="620.48" y2="554.42"/>
          <g>
            <circle class="cls-12" cx="686.03" cy="618.23" r="16.77"/>
            <path class="cls-12" d="M719.59,658.21c-8.26,9.09-20.27,14.91-33.55,14.91s-25.29-5.83-33.55-14.91c7.84-9.84,20-16.29,33.55-16.29s25.7,6.46,33.55,16.29Z"/>
            <g class="cls-20">
              <path class="cls-13" d="M686.04,582.73c24.96,0,45.2,20.23,45.2,45.2s-20.23,45.2-45.2,45.2-45.2-20.23-45.2-45.2,20.23-45.2,45.2-45.2m0-2.1c-26.08,0-47.3,21.22-47.3,47.3s21.22,47.3,47.3,47.3,47.3-21.22,47.3-47.3-21.22-47.3-47.3-47.3h0Z"/>
            </g>
          </g>
          <g>
            <g class="cls-20">
              <path class="cls-13" d="M821.35,588.46c2.32,0,4.2,1.88,4.2,4.2v69.87c0,2.32-1.88,4.2-4.2,4.2h-58.45c-2.32,0-4.2-1.88-4.2-4.2v-69.87c0-2.32,1.88-4.2,4.2-4.2h58.45m0-2.1h-58.45c-3.48,0-6.3,2.83-6.3,6.3v69.87c0,3.48,2.83,6.3,6.3,6.3h58.45c3.48,0,6.3-2.83,6.3-6.3v-69.87c0-3.48-2.83-6.3-6.3-6.3h0Z"/>
            </g>
            <g>
              <rect class="cls-12" x="770.5" y="600.06" width="43.26" height="7.72" rx="1.68" ry="1.68"/>
              <rect class="cls-12" x="770.5" y="615.84" width="43.26" height="7.72" rx="1.68" ry="1.68"/>
              <rect class="cls-12" x="770.5" y="631.62" width="43.26" height="7.72" rx="1.68" ry="1.68"/>
              <rect class="cls-12" x="770.5" y="647.41" width="43.26" height="7.72" rx="1.68" ry="1.68"/>
            </g>
          </g>
          <rect class="cls-7" x="620.48" y="350.07" width="225.44" height="349.89" rx="8.4" ry="8.4"/>
        </g>
        <g class="cls-32">
          <g>
            <line class="cls-5" x1="98.77" y1="554.42" x2="98.77" y2="602.75"/>
            <line class="cls-5" x1="122.93" y1="578.58" x2="74.61" y2="578.58"/>
          </g>
          <g>
            <line class="cls-5" x1="126.56" y1="146.12" x2="108.56" y2="125.04"/>
            <line class="cls-5" x1="107.01" y1="144.58" x2="128.1" y2="126.58"/>
          </g>
          <g>
            <line class="cls-5" x1="958.26" y1="767.39" x2="982.31" y2="765.32"/>
            <line class="cls-5" x1="971.32" y1="778.38" x2="969.25" y2="754.33"/>
          </g>
          <circle class="cls-5" cx="180.02" cy="657.52" r="16.53"/>
          <circle class="cls-5" cx="756.32" cy="100.52" r="11.69"/>
          <circle class="cls-5" cx="65.71" cy="193.7" r="7.79"/>
          <polygon class="cls-5" points="67.15 721.99 84.11 692.62 50.19 692.62 67.15 721.99"/>
          <polygon class="cls-5" points="145.83 516.87 169.36 511.48 152.93 493.8 145.83 516.87"/>
          <polygon class="cls-5" points="897.61 710.19 926.36 728.19 927.57 694.3 897.61 710.19"/>
          <polygon class="cls-5" points="823.44 163.1 854.7 176.26 850.47 142.61 823.44 163.1"/>
        </g>
      </g>
      <g class="cls-22">
        <rect class="cls-24" x="-916.81" y="433.28" width="1108.29" height="99.92" transform="translate(237.16 410.74) rotate(46.22)"/>
      </g>
    </g>
  </g>
</svg>