<?xml version="1.0" encoding="UTF-8"?>
<svg xmlns="http://www.w3.org/2000/svg" xmlns:xlink="http://www.w3.org/1999/xlink" viewBox="0 0 1000 1000">
  <defs>
    <style>
      .cls-1, .cls-2, .cls-3, .cls-4, .cls-5, .cls-6, .cls-7, .cls-8, .cls-9, .cls-10 {
        fill: none;
      }

      .cls-11 {
        fill: url(#linear-gradient);
      }

      .cls-12 {
        clip-path: url(#clippath);
      }

      .cls-2 {
        stroke: #fff;
      }

      .cls-2, .cls-3, .cls-4 {
        stroke-miterlimit: 10;
      }

      .cls-2, .cls-3, .cls-4, .cls-5, .cls-13, .cls-14, .cls-6, .cls-7, .cls-8, .cls-9, .cls-10 {
        stroke-width: 1.62px;
      }

      .cls-3, .cls-4, .cls-5, .cls-14, .cls-6 {
        stroke: #c1d7fe;
      }

      .cls-15, .cls-16 {
        fill: #c1d7fe;
      }

      .cls-17, .cls-18 {
        fill: #a4c9ff;
      }

      .cls-19 {
        fill: #d8d8d8;
      }

      .cls-4, .cls-16, .cls-20 {
        opacity: .33;
      }

      .cls-18, .cls-21, .cls-22, .cls-9, .cls-10 {
        mix-blend-mode: multiply;
      }

      .cls-21 {
        fill: #fec972;
      }

      .cls-5, .cls-13, .cls-14, .cls-6, .cls-7, .cls-8, .cls-9, .cls-10 {
        stroke-linecap: round;
        stroke-linejoin: round;
      }

      .cls-5, .cls-7 {
        stroke-dasharray: 0 6.49;
      }

      .cls-23 {
        fill: url(#linear-gradient-3);
      }

      .cls-24 {
        fill: url(#linear-gradient-4);
      }

      .cls-25 {
        fill: url(#linear-gradient-2);
      }

      .cls-26 {
        fill: url(#linear-gradient-6);
      }

      .cls-27 {
        fill: url(#linear-gradient-5);
      }

      .cls-13, .cls-14, .cls-28 {
        fill: #fff;
      }

      .cls-13, .cls-7, .cls-8 {
        stroke: #777;
      }

      .cls-29 {
        opacity: .35;
      }

      .cls-30 {
        opacity: .55;
      }

      .cls-7 {
        opacity: .3;
      }

      .cls-31 {
        fill: url(#radial-gradient);
        opacity: .7;
      }

      .cls-32 {
        isolation: isolate;
      }

      .cls-9 {
        stroke: #a4c9ff;
      }

      .cls-10 {
        stroke: #fec972;
      }

      .cls-28 {
        opacity: .65;
      }
    </style>
    <radialGradient id="radial-gradient" cx="500" cy="748.67" fx="500" fy="748.67" r="713.41" gradientUnits="userSpaceOnUse">
      <stop offset="0" stop-color="#ffbd50" stop-opacity=".8"/>
      <stop offset=".09" stop-color="#ffc05a" stop-opacity=".7"/>
      <stop offset=".33" stop-color="#ffca73" stop-opacity=".45"/>
      <stop offset=".55" stop-color="#ffd287" stop-opacity=".26"/>
      <stop offset=".74" stop-color="#ffd895" stop-opacity=".12"/>
      <stop offset=".9" stop-color="#ffdb9e" stop-opacity=".03"/>
      <stop offset="1" stop-color="#ffdda2" stop-opacity="0"/>
    </radialGradient>
    <clipPath id="clippath">
      <path class="cls-1" d="M225.69,306.81H771.28c7.17,0,12.99,5.82,12.99,12.99v366.73H212.7V319.8c0-7.17,5.82-12.99,12.99-12.99Z"/>
    </clipPath>
    <linearGradient id="linear-gradient" x1="448.95" y1="589.79" x2="590.24" y2="378.02" gradientTransform="translate(-155.32 338.18) rotate(-30.61)" gradientUnits="userSpaceOnUse">
      <stop offset=".13" stop-color="#d8d8d8"/>
      <stop offset=".21" stop-color="#d8d8d8" stop-opacity=".84"/>
      <stop offset=".36" stop-color="#d8d8d8" stop-opacity=".59"/>
      <stop offset=".51" stop-color="#d8d8d8" stop-opacity=".38"/>
      <stop offset=".65" stop-color="#d8d8d8" stop-opacity=".21"/>
      <stop offset=".79" stop-color="#d8d8d8" stop-opacity=".1"/>
      <stop offset=".9" stop-color="#d8d8d8" stop-opacity=".02"/>
      <stop offset="1" stop-color="#d8d8d8" stop-opacity="0"/>
    </linearGradient>
    <linearGradient id="linear-gradient-2" x1="1771.85" y1="-1688.17" x2="1821.48" y2="-1770.39" gradientTransform="translate(-193.33 2132.02) rotate(-21.57) scale(.93 .72) skewX(15.81)" gradientUnits="userSpaceOnUse">
      <stop offset=".13" stop-color="#d8d8d8"/>
      <stop offset=".29" stop-color="#d8d8d8" stop-opacity=".78"/>
      <stop offset=".54" stop-color="#d8d8d8" stop-opacity=".45"/>
      <stop offset=".75" stop-color="#d8d8d8" stop-opacity=".2"/>
      <stop offset=".91" stop-color="#d8d8d8" stop-opacity=".06"/>
      <stop offset="1" stop-color="#d8d8d8" stop-opacity="0"/>
    </linearGradient>
    <linearGradient id="linear-gradient-3" x1="512.19" y1="780.79" x2="911.49" y2="377.57" gradientUnits="userSpaceOnUse">
      <stop offset=".13" stop-color="#d8d8d8"/>
      <stop offset=".14" stop-color="#d8d8d8" stop-opacity=".98"/>
      <stop offset=".27" stop-color="#d8d8d8" stop-opacity=".72"/>
      <stop offset=".4" stop-color="#d8d8d8" stop-opacity=".5"/>
      <stop offset=".52" stop-color="#d8d8d8" stop-opacity=".32"/>
      <stop offset=".65" stop-color="#d8d8d8" stop-opacity=".18"/>
      <stop offset=".77" stop-color="#d8d8d8" stop-opacity=".08"/>
      <stop offset=".89" stop-color="#d8d8d8" stop-opacity=".02"/>
      <stop offset="1" stop-color="#d8d8d8" stop-opacity="0"/>
    </linearGradient>
    <linearGradient id="linear-gradient-4" x1="601.23" y1="671.54" x2="888.3" y2="374.6" gradientUnits="userSpaceOnUse">
      <stop offset="0" stop-color="#ffbd50"/>
      <stop offset=".15" stop-color="#ffc360"/>
      <stop offset=".51" stop-color="#ffd184"/>
      <stop offset=".81" stop-color="#ffd999"/>
      <stop offset="1" stop-color="#ffdda2"/>
    </linearGradient>
    <linearGradient id="linear-gradient-5" x1="182.69" y1="578.41" x2="514.35" y2="140.27" xlink:href="#linear-gradient-3"/>
    <linearGradient id="linear-gradient-6" x1="465.52" y1="278.72" x2="136.51" y2="498.75" gradientUnits="userSpaceOnUse">
      <stop offset="0" stop-color="#a4c9ff"/>
      <stop offset=".23" stop-color="#a0c6fd"/>
      <stop offset=".43" stop-color="#95befa"/>
      <stop offset=".62" stop-color="#83b1f4"/>
      <stop offset=".8" stop-color="#6b9eeb"/>
      <stop offset=".89" stop-color="#5b93e6"/>
    </linearGradient>
  </defs>
  <g class="cls-32">
    <g id="Layer_1" data-name="Layer 1">
      <g>
        <polygon class="cls-31" points="1000 793.03 0 793.03 121.66 704.3 878.35 704.3 1000 793.03"/>
        <polygon class="cls-7" points="1000 760.87 0 760.84 121.66 672.1 878.35 672.1 1000 760.87"/>
        <path class="cls-13" d="M205.72,282.08H791.25c8.96,0,16.24,7.28,16.24,16.24v407.15H189.48V298.32c0-8.96,7.28-16.24,16.24-16.24Z"/>
        <path class="cls-15" d="M771.28,306.81c7.17,0,12.99,5.82,12.99,12.99v366.73H212.7V319.8c0-7.17,5.82-12.99,12.99-12.99H771.28m0-1.62H225.69c-8.06,0-14.61,6.56-14.61,14.61v366.73c0,.9,.73,1.62,1.62,1.62H784.27c.9,0,1.62-.73,1.62-1.62V319.8c0-8.06-6.56-14.61-14.61-14.61h0Z"/>
        <path class="cls-19" d="M169.31,705.47H830.69v10.87c0,6.18-5.02,11.2-11.2,11.2H180.51c-6.18,0-11.2-5.02-11.2-11.2v-10.87h0Z"/>
        <path class="cls-8" d="M169.31,705.47H830.69v10.87c0,6.18-5.02,11.2-11.2,11.2H180.51c-6.18,0-11.2-5.02-11.2-11.2v-10.87h0Z"/>
        <path class="cls-13" d="M440.37,705.47h119.25v2.65c0,3.58-2.91,6.49-6.49,6.49h-106.26c-3.58,0-6.49-2.91-6.49-6.49v-2.65h0Z"/>
        <g class="cls-30">
          <g>
            <line class="cls-6" x1="126.44" y1="381.75" x2="126.44" y2="422.43"/>
            <line class="cls-6" x1="106.1" y1="402.09" x2="146.79" y2="402.09"/>
          </g>
          <g>
            <line class="cls-6" x1="867.91" y1="366.89" x2="844.78" y2="370.04"/>
            <line class="cls-6" x1="857.92" y1="380.03" x2="854.78" y2="356.9"/>
          </g>
          <g>
            <line class="cls-6" x1="696.43" y1="249.15" x2="684.21" y2="265.39"/>
            <line class="cls-6" x1="698.44" y1="263.38" x2="682.2" y2="251.16"/>
          </g>
          <circle class="cls-6" cx="64.64" cy="522.31" r="13.92"/>
          <circle class="cls-6" cx="886.5" cy="476.7" r="9.84"/>
          <circle class="cls-6" cx="874.47" cy="302.48" r="6.56"/>
          <polygon class="cls-6" points="126.44 647.28 112.17 622.55 140.72 622.55 126.44 647.28"/>
          <polygon class="cls-6" points="146.25 282.08 126.44 277.54 140.28 262.66 146.25 282.08"/>
          <polygon class="cls-6" points="796.63 206.97 796.63 235.52 771.9 221.24 796.63 206.97"/>
          <polygon class="cls-6" points="886.86 611.75 913.17 622.83 909.61 594.5 886.86 611.75"/>
          <circle class="cls-6" cx="609.68" cy="235.52" r="9.84"/>
          <polygon class="cls-6" points="474.63 235.88 463.54 262.2 491.88 258.63 474.63 235.88"/>
        </g>
        <line class="cls-5" x1="370.33" y1="395.8" x2="646.11" y2="558.94"/>
        <circle class="cls-14" cx="496.53" cy="470.47" r="26.44"/>
        <g class="cls-12">
          <rect class="cls-11" x="112.09" y="414.3" width="856.39" height="77.21" transform="translate(305.86 -211.98) rotate(30.61)"/>
          <rect class="cls-25" x="44.62" y="502.59" width="856.39" height="13" transform="translate(325.07 -169.8) rotate(30.61)"/>
        </g>
        <rect class="cls-23" x="595.54" y="459.16" width="276.53" height="195.69" rx="6.49" ry="6.49"/>
        <rect class="cls-24" x="586.33" y="448.25" width="274.83" height="193.13" rx="6.49" ry="6.49"/>
        <rect class="cls-8" x="586.33" y="448.25" width="274.83" height="193.13" rx="6.49" ry="6.49"/>
        <rect class="cls-16" x="549.64" y="332.62" width="211.83" height="14.99" rx="1.85" ry="1.85"/>
        <rect class="cls-16" x="549.64" y="354.71" width="170.79" height="14.97" rx="1.66" ry="1.66"/>
        <rect class="cls-28" x="738.82" y="477.35" width="96.68" height="134.93" rx="1.3" ry="1.3"/>
        <line class="cls-10" x1="611.98" y1="524.73" x2="708.66" y2="524.73"/>
        <line class="cls-10" x1="611.98" y1="538.98" x2="708.66" y2="538.98"/>
        <line class="cls-10" x1="611.98" y1="552.43" x2="708.66" y2="552.43"/>
        <line class="cls-10" x1="611.98" y1="566.68" x2="708.66" y2="566.68"/>
        <line class="cls-10" x1="611.98" y1="580.94" x2="708.66" y2="580.94"/>
        <line class="cls-10" x1="611.98" y1="595.19" x2="708.66" y2="595.19"/>
        <line class="cls-10" x1="611.98" y1="609.44" x2="708.66" y2="609.44"/>
        <rect class="cls-21" x="611.98" y="477.35" width="96.68" height="13.29" rx="1.3" ry="1.3"/>
        <rect class="cls-21" x="611.98" y="497.13" width="96.68" height="13.29" rx="1.3" ry="1.3"/>
        <rect class="cls-27" x="245.1" y="238.9" width="178.69" height="278.1" rx="6.49" ry="6.49"/>
        <rect class="cls-26" x="237.19" y="233.01" width="178.69" height="277.32" rx="6.49" ry="6.49"/>
        <rect class="cls-18" x="252.67" y="320.46" width="147.07" height="14.23" rx="1.3" ry="1.3"/>
        <line class="cls-9" x1="253.33" y1="352.15" x2="399.74" y2="352.15"/>
        <line class="cls-9" x1="253.33" y1="365.05" x2="399.74" y2="365.05"/>
        <line class="cls-9" x1="253.33" y1="377.94" x2="399.74" y2="377.94"/>
        <line class="cls-9" x1="415.88" y1="394.98" x2="237.19" y2="394.98"/>
        <g>
          <circle class="cls-28" cx="289.15" cy="445.56" r="13.29"/>
          <path class="cls-28" d="M315.75,477.24c-6.54,7.2-16.07,11.82-26.59,11.82s-20.05-4.62-26.59-11.82c6.22-7.8,15.85-12.91,26.59-12.91s20.37,5.12,26.59,12.92Z"/>
          <g class="cls-22">
            <path class="cls-17" d="M289.16,417.42c19.78,0,35.82,16.04,35.82,35.82s-16.04,35.82-35.82,35.82-35.82-16.04-35.82-35.82,16.04-35.82,35.82-35.82m0-1.62c-20.65,0-37.45,16.8-37.45,37.45s16.8,37.45,37.45,37.45,37.45-16.8,37.45-37.45-16.8-37.45-37.45-37.45h0Z"/>
          </g>
        </g>
        <g>
          <g class="cls-22">
            <path class="cls-17" d="M396.49,421.96c1.79,0,3.25,1.45,3.25,3.25v55.55c0,1.79-1.45,3.25-3.25,3.25h-46.49c-1.79,0-3.25-1.45-3.25-3.25v-55.55c0-1.79,1.45-3.25,3.25-3.25h46.49m0-1.62h-46.49c-2.69,0-4.87,2.18-4.87,4.87v55.55c0,2.69,2.19,4.87,4.87,4.87h46.49c2.69,0,4.87-2.18,4.87-4.87v-55.55c0-2.69-2.19-4.87-4.87-4.87h0Z"/>
          </g>
          <g>
            <rect class="cls-28" x="356.1" y="431.16" width="34.29" height="6.12" rx="1.3" ry="1.3"/>
            <rect class="cls-28" x="356.1" y="443.66" width="34.29" height="6.12" rx="1.3" ry="1.3"/>
            <rect class="cls-28" x="356.1" y="456.17" width="34.29" height="6.12" rx="1.3" ry="1.3"/>
            <rect class="cls-28" x="356.1" y="468.68" width="34.29" height="6.12" rx="1.3" ry="1.3"/>
          </g>
        </g>
        <rect class="cls-8" x="237.19" y="233.01" width="178.69" height="277.32" rx="6.49" ry="6.49"/>
        <rect class="cls-28" x="252.67" y="243.94" width="147.07" height="64.39" rx="1.3" ry="1.3"/>
        <g class="cls-29">
          <g class="cls-22">
            <path class="cls-17" d="M335.8,574.47c-8.06,0-14.61,6.62-14.61,14.75,0,5.98,3.53,11.13,8.58,13.46l-8.08,36.03c-2.22,9.87-7.11,16.9-13.76,19.79-2.88,1.19-6.07,1.64-9.24,1.28-3.09-.35-6.11-1.48-8.73-3.28-5.66-3.74-9.04-10.14-9.04-17.13v-6c.62-.34,1.11-.82,1.34-1.49,.72-2.1,1.12-7.66,1.24-10.08,2.77-.7,10.11-3.26,13.74-11.32,.16-.35,.16-.75,0-1.09-.04-.08-.1-.17-.15-.25,3.4-6.99,7.82-18.5,10.33-29.24,1.75-7.56,2.39-13.84,1.91-18.66-.62-6.62-3.22-10.92-7.73-12.78-1.46-.59-3.14-.89-5-.89h-3.93c-.08-1.53-1.34-2.75-2.88-2.75h-3.24c-1.59,0-2.89,1.3-2.89,2.91v5.5c0,1.63,1.3,2.96,2.89,2.96h3.24c1.52,0,2.76-1.22,2.87-2.75h3.93c1.09,0,2.03,.16,2.84,.48,2.34,.98,3.71,3.63,4.06,7.89,.41,4.18-.18,9.82-1.75,16.74-2.43,10.26-6.55,21.05-9.72,27.58-.24,.01-.48,.04-.7,.12-.39,.13-.7,.43-.84,.81-1.44,4-6.15,6.66-12.01,6.75-5.08,.06-11.08-1.98-12.99-6.79-.18-.45-.59-.77-1.08-.83-.13-.01-.28,0-.41,0-3.22-6.65-7.36-17.5-9.7-27.64-1.61-6.86-2.22-12.5-1.8-16.75,.4-4.26,1.79-6.92,4.09-7.88,.84-.33,1.77-.49,2.86-.49h3.88c.11,1.51,1.37,2.75,2.87,2.75h3.3c1.57,0,2.89-1.36,2.89-2.96v-5.5c0-1.58-1.32-2.91-2.89-2.91h-3.3c-1.51,0-2.79,1.24-2.88,2.75h-3.88c-1.89,0-3.59,.3-5.06,.89-4.5,1.86-7.1,6.16-7.72,12.78-.45,4.96,.2,11.24,1.91,18.65,2.52,10.85,6.95,22.36,10.36,29.29-.04,.08-.11,.17-.14,.25-.14,.33-.13,.71,.02,1.04,3.63,8.06,10.93,10.62,13.69,11.32,.13,2.42,.56,7.99,1.28,10.08,.22,.65,.7,1.13,1.29,1.47v6.03c0,9.06,4.24,17.1,11.63,22.08,3.47,2.3,7.38,3.74,11.29,4.17,.95,.12,1.9,.18,2.85,.18,3.16,0,6.33-.65,9.3-1.91,6-2.57,13.87-8.8,17.25-23.86l8.07-36.03c.11,0,.21,.02,.32,.02,8.06,0,14.61-6.64,14.61-14.8s-6.56-14.75-14.61-14.75Zm-45.75-21.25c0,.15-.09,.32-.25,.32h-3.24c-.16,0-.25-.16-.25-.32v-5.5c0-.13,.1-.26,.25-.26h3.24c.15,0,.25,.14,.25,.26v5.5Zm14.28,25.93c1.63-7.22,2.24-13.14,1.81-17.58-.44-5.31-2.35-8.7-5.7-10.11-1.14-.45-2.43-.67-3.83-.67h-3.91v-.58h3.91c1.51,0,2.86,.23,4,.69,3.53,1.46,5.58,5.02,6.1,10.59,.45,4.54-.17,10.53-1.86,17.8-2.36,10.1-6.44,20.89-9.71,27.8-.16-.11-.32-.2-.48-.3,3.2-6.71,7.27-17.45,9.68-27.65Zm-38.38-31.42c0-.13,.15-.26,.25-.26h3.3c.1,0,.25,.14,.25,.26v5.5c0,.19-.16,.32-.25,.32h-3.3c-.09,0-.25-.13-.25-.32v-5.5Zm-16.65,13.76c.52-5.56,2.57-9.12,6.09-10.58,1.14-.46,2.51-.7,4.06-.7h3.86v.58h-3.86c-1.41,0-2.7,.23-3.86,.68-3.3,1.38-5.22,4.77-5.72,10.08-.44,4.54,.18,10.46,1.86,17.6,2.33,10.12,6.43,20.94,9.69,27.77-.06,.03-.12,.07-.17,.1-.06,.03-.12,.07-.18,.1-.05,.03-.1,.05-.15,.08-3.27-6.85-7.38-17.68-9.76-27.91-1.65-7.14-2.28-13.13-1.86-17.81Zm24.69,57.93c-.09-.01-8.48-1.44-12.45-9.37,.1-.1,.22-.2,.35-.3,.49-.36,1.06-.67,1.56-.82,2.41,4.72,8.09,7.66,15.07,7.53,6.56-.11,11.97-3.07,14.1-7.64,.11,.03,.23,.07,.35,.12,.24,.1,.5,.24,.75,.41,.3,.21,.58,.45,.78,.71-3.98,7.92-12.41,9.34-12.5,9.36-.64,.1-1.12,.66-1.12,1.31,0,1.21-.45,8.34-1.11,10.25-.05,.06-.24,.17-.56,.27-.65,.18-1.56,.18-2.29,.03-.37-.09-.6-.21-.64-.25-.68-1.96-1.18-9.19-1.18-10.3,0-.65-.48-1.2-1.12-1.31Zm50.83,20.04c-3.14,13.97-10.28,19.68-15.71,22.01-3.42,1.46-7.15,1.99-10.8,1.54-3.52-.39-7.03-1.69-10.13-3.75-6.65-4.47-10.46-11.72-10.46-19.89v-5.35c.1,0,.2,.01,.3,.01h0c.08,0,.16,0,.25-.01v5.35c0,7.88,3.82,15.11,10.2,19.32,2.96,2.03,6.39,3.32,9.91,3.71,3.6,.4,7.25-.1,10.56-1.47,7.47-3.24,12.9-10.93,15.31-21.64l8.01-35.73c.19,.05,.37,.11,.55,.14l-8,35.75Zm10.97-38.08c-.37,0-.73-.02-1.1-.06-.05,0-.09-.04-.14-.04-.81-.08-1.67-.27-2.67-.58-4.69-1.65-8.07-6.17-8.07-11.48,0-6.67,5.37-12.1,11.97-12.1s11.97,5.43,11.97,12.1-5.37,12.16-11.97,12.16Z"/>
            <path class="cls-17" d="M335.8,574.47c-8.06,0-14.61,6.62-14.61,14.75,0,5.98,3.53,11.13,8.58,13.46l-8.08,36.03c-2.22,9.87-7.11,16.9-13.76,19.79-2.88,1.19-6.07,1.64-9.24,1.28-3.09-.35-6.11-1.48-8.73-3.28-5.66-3.74-9.04-10.14-9.04-17.13v-6c.62-.34,1.11-.82,1.34-1.49,.72-2.1,1.12-7.66,1.24-10.08,2.77-.7,10.11-3.26,13.74-11.32,.16-.35,.16-.75,0-1.09-.04-.08-.1-.17-.15-.25,3.4-6.99,7.82-18.5,10.33-29.24,1.75-7.56,2.39-13.84,1.91-18.66-.62-6.62-3.22-10.92-7.73-12.78-1.46-.59-3.14-.89-5-.89h-3.93c-.08-1.53-1.34-2.75-2.88-2.75h-3.24c-1.59,0-2.89,1.3-2.89,2.91v5.5c0,1.63,1.3,2.96,2.89,2.96h3.24c1.52,0,2.76-1.22,2.87-2.75h3.93c1.09,0,2.03,.16,2.84,.48,2.34,.98,3.71,3.63,4.06,7.89,.41,4.18-.18,9.82-1.75,16.74-2.43,10.26-6.55,21.05-9.72,27.58-.24,.01-.48,.04-.7,.12-.39,.13-.7,.43-.84,.81-1.44,4-6.15,6.66-12.01,6.75-5.08,.06-11.08-1.98-12.99-6.79-.18-.45-.59-.77-1.08-.83-.13-.01-.28,0-.41,0-3.22-6.65-7.36-17.5-9.7-27.64-1.61-6.86-2.22-12.5-1.8-16.75,.4-4.26,1.79-6.92,4.09-7.88,.84-.33,1.77-.49,2.86-.49h3.88c.11,1.51,1.37,2.75,2.87,2.75h3.3c1.57,0,2.89-1.36,2.89-2.96v-5.5c0-1.58-1.32-2.91-2.89-2.91h-3.3c-1.51,0-2.79,1.24-2.88,2.75h-3.88c-1.89,0-3.59,.3-5.06,.89-4.5,1.86-7.1,6.16-7.72,12.78-.45,4.96,.2,11.24,1.91,18.65,2.52,10.85,6.95,22.36,10.36,29.29-.04,.08-.11,.17-.14,.25-.14,.33-.13,.71,.02,1.04,3.63,8.06,10.93,10.62,13.69,11.32,.13,2.42,.56,7.99,1.28,10.08,.22,.65,.7,1.13,1.29,1.47v6.03c0,9.06,4.24,17.1,11.63,22.08,3.47,2.3,7.38,3.74,11.29,4.17,.95,.12,1.9,.18,2.85,.18,3.16,0,6.33-.65,9.3-1.91,6-2.57,13.87-8.8,17.25-23.86l8.07-36.03c.11,0,.21,.02,.32,.02,8.06,0,14.61-6.64,14.61-14.8s-6.56-14.75-14.61-14.75Zm-45.75-21.25c0,.15-.09,.32-.25,.32h-3.24c-.16,0-.25-.16-.25-.32v-5.5c0-.13,.1-.26,.25-.26h3.24c.15,0,.25,.14,.25,.26v5.5Zm14.28,25.93c1.63-7.22,2.24-13.14,1.81-17.58-.44-5.31-2.35-8.7-5.7-10.11-1.14-.45-2.43-.67-3.83-.67h-3.91v-.58h3.91c1.51,0,2.86,.23,4,.69,3.53,1.46,5.58,5.02,6.1,10.59,.45,4.54-.17,10.53-1.86,17.8-2.36,10.1-6.44,20.89-9.71,27.8-.16-.11-.32-.2-.48-.3,3.2-6.71,7.27-17.45,9.68-27.65Zm-38.38-31.42c0-.13,.15-.26,.25-.26h3.3c.1,0,.25,.14,.25,.26v5.5c0,.19-.16,.32-.25,.32h-3.3c-.09,0-.25-.13-.25-.32v-5.5Zm-16.65,13.76c.52-5.56,2.57-9.12,6.09-10.58,1.14-.46,2.51-.7,4.06-.7h3.86v.58h-3.86c-1.41,0-2.7,.23-3.86,.68-3.3,1.38-5.22,4.77-5.72,10.08-.44,4.54,.18,10.46,1.86,17.6,2.33,10.12,6.43,20.94,9.69,27.77-.06,.03-.12,.07-.17,.1-.06,.03-.12,.07-.18,.1-.05,.03-.1,.05-.15,.08-3.27-6.85-7.38-17.68-9.76-27.91-1.65-7.14-2.28-13.13-1.86-17.81Zm24.69,57.93c-.09-.01-8.48-1.44-12.45-9.37,.1-.1,.22-.2,.35-.3,.49-.36,1.06-.67,1.56-.82,2.41,4.72,8.09,7.66,15.07,7.53,6.56-.11,11.97-3.07,14.1-7.64,.11,.03,.23,.07,.35,.12,.24,.1,.5,.24,.75,.41,.3,.21,.58,.45,.78,.71-3.98,7.92-12.41,9.34-12.5,9.36-.64,.1-1.12,.66-1.12,1.31,0,1.21-.45,8.34-1.11,10.25-.05,.06-.24,.17-.56,.27-.65,.18-1.56,.18-2.29,.03-.37-.09-.6-.21-.64-.25-.68-1.96-1.18-9.19-1.18-10.3,0-.65-.48-1.2-1.12-1.31Zm50.83,20.04c-3.14,13.97-10.28,19.68-15.71,22.01-3.42,1.46-7.15,1.99-10.8,1.54-3.52-.39-7.03-1.69-10.13-3.75-6.65-4.47-10.46-11.72-10.46-19.89v-5.35c.1,0,.2,.01,.3,.01h0c.08,0,.16,0,.25-.01v5.35c0,7.88,3.82,15.11,10.2,19.32,2.96,2.03,6.39,3.32,9.91,3.71,3.6,.4,7.25-.1,10.56-1.47,7.47-3.24,12.9-10.93,15.31-21.64l8.01-35.73c.19,.05,.37,.11,.55,.14l-8,35.75Zm10.97-38.08c-.37,0-.73-.02-1.1-.06-.05,0-.09-.04-.14-.04-.81-.08-1.67-.27-2.67-.58-4.69-1.65-8.07-6.17-8.07-11.48,0-6.67,5.37-12.1,11.97-12.1s11.97,5.43,11.97,12.1-5.37,12.16-11.97,12.16Z"/>
            <path class="cls-17" d="M335.8,574.47c-8.06,0-14.61,6.62-14.61,14.75,0,5.98,3.53,11.13,8.58,13.46l-8.08,36.03c-2.22,9.87-7.11,16.9-13.76,19.79-2.88,1.19-6.07,1.64-9.24,1.28-3.09-.35-6.11-1.48-8.73-3.28-5.66-3.74-9.04-10.14-9.04-17.13v-6c.62-.34,1.11-.82,1.34-1.49,.72-2.1,1.12-7.66,1.24-10.08,2.77-.7,10.11-3.26,13.74-11.32,.16-.35,.16-.75,0-1.09-.04-.08-.1-.17-.15-.25,3.4-6.99,7.82-18.5,10.33-29.24,1.75-7.56,2.39-13.84,1.91-18.66-.62-6.62-3.22-10.92-7.73-12.78-1.46-.59-3.14-.89-5-.89h-3.93c-.08-1.53-1.34-2.75-2.88-2.75h-3.24c-1.59,0-2.89,1.3-2.89,2.91v5.5c0,1.63,1.3,2.96,2.89,2.96h3.24c1.52,0,2.76-1.22,2.87-2.75h3.93c1.09,0,2.03,.16,2.84,.48,2.34,.98,3.71,3.63,4.06,7.89,.41,4.18-.18,9.82-1.75,16.74-2.43,10.26-6.55,21.05-9.72,27.58-.24,.01-.48,.04-.7,.12-.39,.13-.7,.43-.84,.81-1.44,4-6.15,6.66-12.01,6.75-5.08,.06-11.08-1.98-12.99-6.79-.18-.45-.59-.77-1.08-.83-.13-.01-.28,0-.41,0-3.22-6.65-7.36-17.5-9.7-27.64-1.61-6.86-2.22-12.5-1.8-16.75,.4-4.26,1.79-6.92,4.09-7.88,.84-.33,1.77-.49,2.86-.49h3.88c.11,1.51,1.37,2.75,2.87,2.75h3.3c1.57,0,2.89-1.36,2.89-2.96v-5.5c0-1.58-1.32-2.91-2.89-2.91h-3.3c-1.51,0-2.79,1.24-2.88,2.75h-3.88c-1.89,0-3.59,.3-5.06,.89-4.5,1.86-7.1,6.16-7.72,12.78-.45,4.96,.2,11.24,1.91,18.65,2.52,10.85,6.95,22.36,10.36,29.29-.04,.08-.11,.17-.14,.25-.14,.33-.13,.71,.02,1.04,3.63,8.06,10.93,10.62,13.69,11.32,.13,2.42,.56,7.99,1.28,10.08,.22,.65,.7,1.13,1.29,1.47v6.03c0,9.06,4.24,17.1,11.63,22.08,3.47,2.3,7.38,3.74,11.29,4.17,.95,.12,1.9,.18,2.85,.18,3.16,0,6.33-.65,9.3-1.91,6-2.57,13.87-8.8,17.25-23.86l8.07-36.03c.11,0,.21,.02,.32,.02,8.06,0,14.61-6.64,14.61-14.8s-6.56-14.75-14.61-14.75Zm-45.75-21.25c0,.15-.09,.32-.25,.32h-3.24c-.16,0-.25-.16-.25-.32v-5.5c0-.13,.1-.26,.25-.26h3.24c.15,0,.25,.14,.25,.26v5.5Zm14.28,25.93c1.63-7.22,2.24-13.14,1.81-17.58-.44-5.31-2.35-8.7-5.7-10.11-1.14-.45-2.43-.67-3.83-.67h-3.91v-.58h3.91c1.51,0,2.86,.23,4,.69,3.53,1.46,5.58,5.02,6.1,10.59,.45,4.54-.17,10.53-1.86,17.8-2.36,10.1-6.44,20.89-9.71,27.8-.16-.11-.32-.2-.48-.3,3.2-6.71,7.27-17.45,9.68-27.65Zm-38.38-31.42c0-.13,.15-.26,.25-.26h3.3c.1,0,.25,.14,.25,.26v5.5c0,.19-.16,.32-.25,.32h-3.3c-.09,0-.25-.13-.25-.32v-5.5Zm-16.65,13.76c.52-5.56,2.57-9.12,6.09-10.58,1.14-.46,2.51-.7,4.06-.7h3.86v.58h-3.86c-1.41,0-2.7,.23-3.86,.68-3.3,1.38-5.22,4.77-5.72,10.08-.44,4.54,.18,10.46,1.86,17.6,2.33,10.12,6.43,20.94,9.69,27.77-.06,.03-.12,.07-.17,.1-.06,.03-.12,.07-.18,.1-.05,.03-.1,.05-.15,.08-3.27-6.85-7.38-17.68-9.76-27.91-1.65-7.14-2.28-13.13-1.86-17.81Zm24.69,57.93c-.09-.01-8.48-1.44-12.45-9.37,.1-.1,.22-.2,.35-.3,.49-.36,1.06-.67,1.56-.82,2.41,4.72,8.09,7.66,15.07,7.53,6.56-.11,11.97-3.07,14.1-7.64,.11,.03,.23,.07,.35,.12,.24,.1,.5,.24,.75,.41,.3,.21,.58,.45,.78,.71-3.98,7.92-12.41,9.34-12.5,9.36-.64,.1-1.12,.66-1.12,1.31,0,1.21-.45,8.34-1.11,10.25-.05,.06-.24,.17-.56,.27-.65,.18-1.56,.18-2.29,.03-.37-.09-.6-.21-.64-.25-.68-1.96-1.18-9.19-1.18-10.3,0-.65-.48-1.2-1.12-1.31Zm50.83,20.04c-3.14,13.97-10.28,19.68-15.71,22.01-3.42,1.46-7.15,1.99-10.8,1.54-3.52-.39-7.03-1.69-10.13-3.75-6.65-4.47-10.46-11.72-10.46-19.89v-5.35c.1,0,.2,.01,.3,.01h0c.08,0,.16,0,.25-.01v5.35c0,7.88,3.82,15.11,10.2,19.32,2.96,2.03,6.39,3.32,9.91,3.71,3.6,.4,7.25-.1,10.56-1.47,7.47-3.24,12.9-10.93,15.31-21.64l8.01-35.73c.19,.05,.37,.11,.55,.14l-8,35.75Zm10.97-38.08c-.37,0-.73-.02-1.1-.06-.05,0-.09-.04-.14-.04-.81-.08-1.67-.27-2.67-.58-4.69-1.65-8.07-6.17-8.07-11.48,0-6.67,5.37-12.1,11.97-12.1s11.97,5.43,11.97,12.1-5.37,12.16-11.97,12.16Z"/>
            <path class="cls-17" d="M335.8,582.24c-3.82,0-6.92,3.13-6.92,6.98s3.1,7.03,6.92,7.03,6.92-3.15,6.92-7.03-3.1-6.98-6.92-6.98Zm0,11.36c-2.36,0-4.28-1.97-4.28-4.39s1.92-4.33,4.28-4.33,4.28,1.94,4.28,4.33-1.92,4.39-4.28,4.39Z"/>
            <path class="cls-17" d="M335.8,582.24c-3.82,0-6.92,3.13-6.92,6.98s3.1,7.03,6.92,7.03,6.92-3.15,6.92-7.03-3.1-6.98-6.92-6.98Zm0,11.36c-2.36,0-4.28-1.97-4.28-4.39s1.92-4.33,4.28-4.33,4.28,1.94,4.28,4.33-1.92,4.39-4.28,4.39Z"/>
            <path class="cls-17" d="M335.8,582.24c-3.82,0-6.92,3.13-6.92,6.98s3.1,7.03,6.92,7.03,6.92-3.15,6.92-7.03-3.1-6.98-6.92-6.98Zm0,11.36c-2.36,0-4.28-1.97-4.28-4.39s1.92-4.33,4.28-4.33,4.28,1.94,4.28,4.33-1.92,4.39-4.28,4.39Z"/>
          </g>
          <path class="cls-2" d="M277.72,634.02v5.99s-.31,6,4,12.8c4.31,6.8,11.67,9.05,11.67,9.05,0,0,6.64,2.49,12.84,.6,0,0,2.61-.39,7.06-3.35,4.45-2.96,7.43-8.52,7.43-8.52,0,0,2.16-3.51,3.62-9.14,1.46-5.63,6.2-27.51,6.2-27.51l2.32-10.38"/>
          <path class="cls-2" d="M292.7,550.23h4.07s3.48-.37,6.08,1.91c2.6,2.28,3.77,5.11,3.98,11.4,.21,6.3-2.11,15.64-2.11,15.64l-1.85,6.63-2.81,8.29-1.8,4.64s-3.02,7.13-3.53,7.93"/>
          <path class="cls-2" d="M263.32,550.23h-4.07s-3.48-.37-6.08,1.91c-2.6,2.28-3.77,5.11-3.98,11.4-.21,6.3,2.11,15.64,2.11,15.64l1.85,6.63,2.81,8.29,1.8,4.64s3.02,7.13,3.53,7.93"/>
        </g>
        <g class="cls-20">
          <line class="cls-3" x1="382.44" y1="557.01" x2="512.33" y2="557.01"/>
          <line class="cls-3" x1="382.44" y1="581.16" x2="512.33" y2="581.16"/>
          <line class="cls-3" x1="382.44" y1="605.31" x2="512.33" y2="605.31"/>
          <line class="cls-3" x1="382.44" y1="629.46" x2="512.33" y2="629.46"/>
          <line class="cls-3" x1="382.44" y1="653.61" x2="512.33" y2="653.61"/>
        </g>
        <g class="cls-20">
          <line class="cls-3" x1="549.64" y1="386.57" x2="679.52" y2="386.57"/>
          <line class="cls-3" x1="549.64" y1="410.72" x2="679.52" y2="410.72"/>
        </g>
        <rect class="cls-4" x="442.51" y="332.62" width="88.4" height="78.1"/>
      </g>
    </g>
  </g>
</svg>