<?xml version="1.0" encoding="UTF-8"?>
<svg xmlns="http://www.w3.org/2000/svg" xmlns:xlink="http://www.w3.org/1999/xlink" viewBox="0 0 1000 1000">
  <defs>
    <style>
      .cls-1, .cls-2, .cls-3, .cls-4, .cls-5, .cls-6, .cls-7 {
        fill: none;
      }

      .cls-8 {
        fill: url(#linear-gradient);
      }

      .cls-9 {
        clip-path: url(#clippath);
      }

      .cls-10, .cls-11, .cls-12, .cls-13 {
        fill: #fff;
      }

      .cls-14, .cls-15, .cls-16 {
        fill: #c1d7fe;
      }

      .cls-17, .cls-18 {
        fill: #a4c9ff;
      }

      .cls-19 {
        fill: #777;
      }

      .cls-2, .cls-3, .cls-4, .cls-11, .cls-5, .cls-6, .cls-7 {
        stroke-width: 2.1px;
      }

      .cls-2, .cls-3, .cls-4, .cls-11, .cls-5, .cls-6, .cls-7, .cls-12 {
        stroke-linecap: round;
      }

      .cls-2, .cls-3, .cls-4, .cls-11, .cls-5, .cls-7, .cls-12 {
        stroke-linejoin: round;
      }

      .cls-2, .cls-4 {
        stroke-dasharray: 0 8.4;
      }

      .cls-2, .cls-11, .cls-5, .cls-12 {
        stroke: #c1d7fe;
      }

      .cls-3 {
        stroke: #fec972;
      }

      .cls-3, .cls-18, .cls-20, .cls-21, .cls-6 {
        mix-blend-mode: multiply;
      }

      .cls-20 {
        fill: #fec972;
      }

      .cls-4, .cls-7 {
        stroke: #777;
      }

      .cls-4, .cls-15 {
        opacity: .3;
      }

      .cls-22 {
        fill: url(#linear-gradient-3);
      }

      .cls-23 {
        fill: url(#linear-gradient-4);
      }

      .cls-24 {
        fill: url(#linear-gradient-2);
      }

      .cls-25 {
        fill: url(#linear-gradient-6);
      }

      .cls-26 {
        fill: url(#linear-gradient-7);
      }

      .cls-27 {
        fill: url(#linear-gradient-5);
      }

      .cls-6 {
        stroke: #a4c9ff;
        stroke-miterlimit: 10;
      }

      .cls-28 {
        opacity: .55;
      }

      .cls-12 {
        stroke-width: 2.33px;
      }

      .cls-29 {
        fill: url(#radial-gradient);
        opacity: .7;
      }

      .cls-30 {
        isolation: isolate;
      }

      .cls-16 {
        opacity: .4;
      }

      .cls-13 {
        opacity: .65;
      }
    </style>
    <radialGradient id="radial-gradient" cx="500" cy="812.34" fx="500" fy="812.34" r="715.29" gradientUnits="userSpaceOnUse">
      <stop offset="0" stop-color="#ffbd50" stop-opacity=".8"/>
      <stop offset=".09" stop-color="#ffc05a" stop-opacity=".7"/>
      <stop offset=".33" stop-color="#ffca73" stop-opacity=".45"/>
      <stop offset=".55" stop-color="#ffd287" stop-opacity=".26"/>
      <stop offset=".74" stop-color="#ffd895" stop-opacity=".12"/>
      <stop offset=".9" stop-color="#ffdb9e" stop-opacity=".03"/>
      <stop offset="1" stop-color="#ffdda2" stop-opacity="0"/>
    </radialGradient>
    <linearGradient id="linear-gradient" x1="500" y1="77.31" x2="500" y2="1111.78" gradientUnits="userSpaceOnUse">
      <stop offset="0" stop-color="#d8d8d8" stop-opacity="0"/>
      <stop offset=".14" stop-color="#d8d8d8" stop-opacity=".02"/>
      <stop offset=".28" stop-color="#d8d8d8" stop-opacity=".07"/>
      <stop offset=".41" stop-color="#d8d8d8" stop-opacity=".16"/>
      <stop offset=".54" stop-color="#d8d8d8" stop-opacity=".28"/>
      <stop offset=".67" stop-color="#d8d8d8" stop-opacity=".45"/>
      <stop offset=".8" stop-color="#d8d8d8" stop-opacity=".64"/>
      <stop offset=".93" stop-color="#d8d8d8" stop-opacity=".87"/>
      <stop offset=".99" stop-color="#d8d8d8"/>
    </linearGradient>
    <clipPath id="clippath">
      <rect class="cls-1" x="290.92" y="165.81" width="418.16" height="547.83" rx="21.01" ry="21.01"/>
    </clipPath>
    <linearGradient id="linear-gradient-2" x1="279.04" y1="996.46" x2="461.88" y2="722.41" gradientTransform="translate(-101.7 -19.69) rotate(-30.61)" gradientUnits="userSpaceOnUse">
      <stop offset=".13" stop-color="#d8d8d8"/>
      <stop offset=".21" stop-color="#d8d8d8" stop-opacity=".84"/>
      <stop offset=".36" stop-color="#d8d8d8" stop-opacity=".59"/>
      <stop offset=".51" stop-color="#d8d8d8" stop-opacity=".38"/>
      <stop offset=".65" stop-color="#d8d8d8" stop-opacity=".21"/>
      <stop offset=".79" stop-color="#d8d8d8" stop-opacity=".1"/>
      <stop offset=".9" stop-color="#d8d8d8" stop-opacity=".02"/>
      <stop offset="1" stop-color="#d8d8d8" stop-opacity="0"/>
    </linearGradient>
    <linearGradient id="linear-gradient-3" x1="1271.55" y1="-735.24" x2="1335.78" y2="-841.65" gradientTransform="translate(-167.23 1448.9) rotate(-21.57) scale(.93 .72) skewX(15.81)" gradientUnits="userSpaceOnUse">
      <stop offset=".13" stop-color="#d8d8d8"/>
      <stop offset=".29" stop-color="#d8d8d8" stop-opacity=".78"/>
      <stop offset=".54" stop-color="#d8d8d8" stop-opacity=".45"/>
      <stop offset=".75" stop-color="#d8d8d8" stop-opacity=".2"/>
      <stop offset=".91" stop-color="#d8d8d8" stop-opacity=".06"/>
      <stop offset="1" stop-color="#d8d8d8" stop-opacity="0"/>
    </linearGradient>
    <linearGradient id="linear-gradient-4" x1="528.77" y1="547.79" x2="945.8" y2="126.66" gradientUnits="userSpaceOnUse">
      <stop offset=".13" stop-color="#d8d8d8"/>
      <stop offset=".14" stop-color="#d8d8d8" stop-opacity=".98"/>
      <stop offset=".27" stop-color="#d8d8d8" stop-opacity=".72"/>
      <stop offset=".4" stop-color="#d8d8d8" stop-opacity=".5"/>
      <stop offset=".52" stop-color="#d8d8d8" stop-opacity=".32"/>
      <stop offset=".65" stop-color="#d8d8d8" stop-opacity=".18"/>
      <stop offset=".77" stop-color="#d8d8d8" stop-opacity=".08"/>
      <stop offset=".89" stop-color="#d8d8d8" stop-opacity=".02"/>
      <stop offset="1" stop-color="#d8d8d8" stop-opacity="0"/>
    </linearGradient>
    <linearGradient id="linear-gradient-5" x1="865.37" y1="158.73" x2="593.54" y2="493.64" gradientUnits="userSpaceOnUse">
      <stop offset="0" stop-color="#a4c9ff"/>
      <stop offset=".23" stop-color="#a0c6fd"/>
      <stop offset=".43" stop-color="#95befa"/>
      <stop offset=".62" stop-color="#83b1f4"/>
      <stop offset=".8" stop-color="#6b9eeb"/>
      <stop offset=".89" stop-color="#5b93e6"/>
    </linearGradient>
    <linearGradient id="linear-gradient-6" x1="104.53" y1="815.95" x2="522.8" y2="263.38" xlink:href="#linear-gradient-4"/>
    <linearGradient id="linear-gradient-7" x1="76.64" y1="696.37" x2="490.48" y2="417.26" gradientUnits="userSpaceOnUse">
      <stop offset="0" stop-color="#ffbd50"/>
      <stop offset=".15" stop-color="#ffc360"/>
      <stop offset=".51" stop-color="#ffd184"/>
      <stop offset=".81" stop-color="#ffd999"/>
      <stop offset="1" stop-color="#ffdda2"/>
    </linearGradient>
  </defs>
  <g class="cls-30">
    <g id="Layer_1" data-name="Layer 1">
      <g>
        <g>
          <polygon class="cls-29" points="1000 869.76 0 869.76 157.44 754.93 842.54 754.93 1000 869.76"/>
          <polygon class="cls-4" points="1000 828.1 0 828.1 157.44 713.26 842.54 713.26 1000 828.1"/>
          <g>
            <path class="cls-10" d="M276.38,129.19h447.23c12.18,0,22.06,9.89,22.06,22.06V750.2c0,12.18-9.89,22.06-22.06,22.06H276.38c-12.18,0-22.06-9.89-22.06-22.06V151.25c0-12.18,9.89-22.06,22.06-22.06Z"/>
            <path class="cls-19" d="M723.62,130.24c11.6,0,21.01,9.41,21.01,21.01V750.2c0,11.6-9.41,21.01-21.01,21.01H276.38c-11.6,0-21.01-9.41-21.01-21.01V151.25c0-11.6,9.41-21.01,21.01-21.01h447.23m0-2.1H276.38c-12.74,0-23.11,10.37-23.11,23.11V750.2c0,12.74,10.37,23.11,23.11,23.11h447.23c12.74,0,23.11-10.37,23.11-23.11V151.25c0-12.74-10.37-23.11-23.11-23.11h0Z"/>
          </g>
          <rect class="cls-8" x="255.37" y="130.24" width="489.26" height="640.98" rx="21.01" ry="21.01"/>
          <g>
            <path class="cls-10" d="M311.93,164.76h376.13c12.18,0,22.06,9.89,22.06,22.06v505.81c0,12.18-9.89,22.06-22.06,22.06H311.93c-12.18,0-22.06-9.89-22.06-22.06V186.83c0-12.18,9.89-22.06,22.06-22.06Z"/>
            <path class="cls-14" d="M688.07,165.81c11.6,0,21.01,9.41,21.01,21.01v505.81c0,11.6-9.41,21.01-21.01,21.01H311.93c-11.6,0-21.01-9.41-21.01-21.01V186.83c0-11.6,9.41-21.01,21.01-21.01h376.13m0-2.1H311.93c-12.74,0-23.11,10.37-23.11,23.11v505.81c0,12.74,10.37,23.11,23.11,23.11h376.13c12.74,0,23.11-10.37,23.11-23.11V186.83c0-12.74-10.37-23.11-23.11-23.11h0Z"/>
          </g>
          <circle class="cls-7" cx="500" cy="742.43" r="14.08"/>
          <path class="cls-12" d="M667.75,531.67c0,1.32-.31,2.66-.52,3.96-.23,1.4-.48,2.82-.71,4.22-.09,.6-.18,1.22-.3,1.83-.07,.43-.22,1.09-.8,1.06-1.24-.04-1.35-1.9-1.63-2.77-.63-1.81-2.63-3.37-4.59-2.45-.85,.38-1.51,1.19-1.61,2.14-.05,.54,.13,1.03,.29,1.53,.18,.6,.13,1.04-.39,1.44-.38,.3-.85,.5-1.29,.7-.58,.26-1.14,.54-1.71,.86-1.02,.54-2,1.15-2.96,1.81-2,1.31-3.91,2.73-5.93,4.02-2.42,1.53-4.92,2.69-7.64,3.6-2.91,.97-5.82,1.91-8.74,2.87,.15-.56-.77-.78-.97-.2-.63,1.75-.31,3.84,.8,5.36,.53,.73,1.22,1.26,2,1.71,.72,.42,1.58,.79,2.13,1.44,.75,.88,.26,1.91-.01,2.89-.31,1.01-.28,2.06,.14,3.04,.85,2.1,2.71,3.66,4.25,5.25,1.89,1.91,3.78,3.84,5.65,5.77,1.56,1.58,3.15,3.23,5.2,4.15,1.03,.47,2.16,.74,3.12,1.39,.86,.57,1.46,1.47,1.86,2.41,.42,.94,.67,1.97,.9,2.97,.17,.68,.41,1.74-.08,2.33-.59,.75-1.98-.12-2.72-.17-.99-.06-1.77,.61-2.17,1.45-.47,1.01-.35,2.2-.88,3.15-.49,.9-1.41,1.48-2.32,1.86-1.98,.82-4.38,1.04-5.81,2.82-.61,.77-1,1.72-.85,2.71,.11,.79,.56,1.46,1.1,2.08,.51,.59,1.12,1.11,1.58,1.76,.53,.75,.51,1.39,.11,2.21-.38,.8-.79,1.72-.16,2.52,.55,.71,1.56,.71,2.15,1.34,.59,.61,.78,1.67,.27,2.4-.49,.69-1.54,.93-2.28,.56-.86-.45-1.15-1.61-1.82-2.28-.69-.71-1.66-1.02-2.61-1.16-1.17-.18-2.35-.26-3.51-.35-.66-.07-1.32-.12-1.98-.18-.29-.03-.6-.05-.89-.08-.39-.03-.58,.07-.91,.23-2.4,1.2-4.81,2.4-7.21,3.6-2.27,1.14-4.54,2.26-7.12,2.32-2.5,.04-4.93-.74-7.2-1.69-1.13-.49-2.24-1.01-3.34-1.56-.35-.17-.68,.11-.73,.4-.48,.43-.76,1.04-.77,1.7,0,.37,.09,.75,.29,1.08,.16,.31,.73,.65,.73,1,.03,.41-.68,.84-.95,1.08-.48,.41-.98,.83-1.45,1.24-.33,.28-.82,.87-1.29,.81-.47-.05-.75-.59-.94-.94-.86-1.52-1.41-3.29-2.93-4.28-1.62-1.06-3.73-.83-5.41-1.76-1.6-.89-2.84-2.28-4.2-3.46-1.12-.97-3.32-2.95-4.75-1.48-.59,.61-.48,1.5,.15,2.03,.27,.23,.59,.38,.88,.57,.14,.09,.43,.32,.43,.54-.02,.21-.39,.14-.56,.14-.54-.03-1.11-.1-1.67-.15-.6-.05-1.22-.06-1.81-.21-1.05-.26-1.63-1.24-2.39-1.9-.79-.67-1.76-1.19-2.83-1.1-.95,.07-1.81,.61-2.13,1.54-.15,.41-.16,.87-.02,1.3,.16,.46,.69,.8,.76,1.29,.05,.46-.32,.92-.74,1.08-.58,.2-1.24-.06-1.71-.42-.16-.13-.35-.13-.52-.07-1.83-.48-3.68,.39-5.49,.68-.99,.15-2.01,.11-2.84-.48-.9-.65-1.42-1.7-1.53-2.77-.12-1.28,.27-2.45,.72-3.6,.43-1.07,.84-2.18,.65-3.34-.19-1.06-1.08-2.08-.67-3.19,.37-.99,1.29-1.78,1.88-2.66,1.38-2.08,2.14-4.53,2.24-7.03,1.63-2.74,3.47-5.32,5.56-7.72,.25-.29,.11-.68-.23-.81-4.76-1.89-9.57-3.79-14.68-4.37-1.22-.14-2.44-.2-3.63-.53-1.11-.31-2.03-.9-2.82-1.72-.75-.76-1.34-1.67-1.92-2.57-.64-1-1.29-2-1.81-3.05-1.06-2.17-1.55-5.11,.38-6.96,.25-.24,.14-.76-.23-.81-3.01-.4-5.36-3.08-5.09-6.14,.13-1.49,.85-2.94,1.98-3.93,.59-.49,1.29-.87,1.82-1.46,.51-.57,.79-1.27,.82-2.05,.07-1.71-1-3.3-1.93-4.64-1.03-1.48-2.18-2.89-3.03-4.49-.84-1.56-1.37-3.33-1.03-5.08,.25-1.34,.89-2.55,1.59-3.71,1.32-2.21,3.01-4.46,3.07-7.08,.02-.08,.04-.16,.02-.25l-.02-.02c0-.29-.03-.56-.07-.85-.04-.27-.24-.36-.43-.34-.52-.84-1.24-1.55-1.91-2.26-.95-1.03-1.82-2.45-.68-3.69,1.54-1.67,4-.91,5.9-.52,1.73,.38,4,.37,4.78-1.56,.13-.35,.18-.72,.14-1.09-.08-.48-.38-.92-.35-1.43,.04-.89,.91-1.56,1.58-2.02,1.29-.87,3-1.73,3.05-3.5,.07-1.92-1.87-2.92-3.24-3.79-.74-.45-1.47-1.04-1.58-1.95-.13-.95,.5-1.36,1.37-1.42,.87-.03,1.74,0,2.45-.6,.65-.51,.95-1.33,1.21-2.09,.76-2.2,1.5-4.4,2.24-6.6,.39-1.11,.76-2.22,1.15-3.35,.28-.82,.57-1.75,.19-2.6-.38-.89-1.28-1.05-1.94-1.62-.59-.49-.76-1.31-.69-2.04,.17-1.86,1.78-2.97,3.36-3.62,.92-.38,1.89-.71,2.85-.99,1-.33,2.07-.57,3.13-.55,.91,.04,1.87,.3,2.59,.89,.77,.63,1.09,1.57,1.39,2.48,.49,1.48,1.25,3.3,3.02,3.52,1.79,.24,3.22-1.39,3.64-2.96,.51-1.93-.04-3.97,.61-5.88,.28-.78,.79-1.5,1.58-1.81,.89-.32,1.84-.28,2.62-.87,1.42-1.07,1.62-3.05,1.13-4.65-.22-.69-.54-1.35-.88-1.98,.29-.18,.42-.67,0-.83-1.03-.47-.82-1.87-.45-2.73,.54-1.27,1.63-2.23,1.92-3.61,.54-2.55-1.97-3.54-3.32-5.16-.79-.96-.67-2.12,.27-2.95,1.26-1.1,3.11-.86,4.62-.61,2.82,.46,5.79,.96,8.24,2.51,2.58,1.65,3.65,4.5,5.26,6.96,1.39,2.11,3.69,4.13,6.38,3.97,1.26-.06,2.24-.69,3.12-1.56,.69-.69,1.62-2.04,2.74-1.84,1.09,.18,1.17,1.57,.93,2.41-.33,1.28-1.56,2.12-2.45,2.98-.88,.89-1.6,1.87-1.62,3.16,0,.95,.36,2.05,1.26,2.54,.51,.28,1.11,.27,1.67,.11,.66-.18,1.29-.6,1.99-.32,.6,.24,1.08,.68,1.68,.89,.62,.2,1.26,.1,1.84-.18,.6-.3,1.09-.79,1.57-1.28,.52-.53,1.03-1.04,1.61-1.5,1.23-.99,2.57-1.78,3.95-2.52,1.38-.74,2.81-1.44,4.23-2.1,1.56-.7,3.22-1.35,4.94-1.49,5.15-.41,8.28,4.29,11.59,7.44,.83,.8,1.71,1.54,2.67,2.19,1.08,.7,2.25,1.17,3.45,1.56,1.36,.42,2.78,.85,3.71,2.02,.87,1.11,1.2,2.58,1.47,3.95,.63,3.11,1.22,6.38-.3,9.35-.64,1.23-1.49,2.45-1.7,3.86-.19,1.28,.21,2.46,1.02,3.45,.83,1.01,1.93,1.75,2.91,2.61,1.08,.95,1.93,2.1,2.59,3.37,1.46,2.88,1.76,6.17,1.63,9.37-.05,1.61-.22,3.22-.39,4.83-.1,.06-.19,.16-.25,.31-.59,2.3,.94,4.39,2.51,5.89,.79,.76,1.63,1.49,2.28,2.37,.73,.98,1.1,2.04,1.1,3.26Z"/>
          <path class="cls-12" d="M482.02,242.74c.22,1.06-.53,1.67-1.1,2.46-.69,.96-.54,.9-.47,2.02,.06,.91,.18,1.56-.94,1.74-.58,.09-1.15-.37-1.71-.41-1.05-.08-1.49,.29-2.29,.91-.78,.61-1.5,1.28-2.3,1.88-.7,.52-1.65,.86-2.28,1.45-1.03,.96-.89,2.42-1.09,3.7-.34,2.08-1.94,2.81-2.62,4.59-.27,.71,.11,1.4,.06,2.13-.06,.87-.55,1.67-.94,2.43-.75,1.47-1.26,2.87-3.04,3.1-1.86,.24-2.29-.07-2.18,2.09,.04,.84,.09,1.59-.25,2.38-.31,.73-1.08,1.16-1.35,1.85-.51,1.34,.79,2.98,.34,4.45-.55,1.78-2.31,1.64-3.14,.12-.34-.62-.31-1.38-.5-2.05-.2-.75-.62-1.27-.94-1.94-.37-.78-.45-4-1.21-4.36-1.29-.6-1.4,2.46-1.97,3.01-1.57,1.52-1.94-.7-2.36-1.72-.5-1.21-1.21-2.07-.77-3.47,.57-1.79,2.17-1.97,3.63-2.75,.95-.51,1.02-.81,1.49-1.66,.2-.37,1.07-1.31,1.14-1.72,.31-1.69-2.9-1.72-4-1.71-1.8,.02-3.62,.23-5.42,.08-1.08-.09-4.41-.25-5.01-1.31-.58-1.01,1.3-2.79,.42-3.71-.25-.26-1.5-.16-1.86-.34-.67-.33-.9-1.1-1.53-1.41-.47-.23-1.13-.09-1.65-.23-.89-.24-.85-.81-1.78-.2-1.48,.97-1.14,2.65,0,3.58,.63,.52,2.89,1.61,1.79,2.86-.57,.65-.89-.2-1.45,.04-.75,.32-.25,.87-.81,1.46-.77,.8-1.84-.29-2.22,1.07-.5,1.78,1.98,1.9,2.99,2.42,1.67,.87,1.13,1.88,.49,3.2-.71,1.45,.59,1.99,1.2,3.42,.67,1.56,.17,3.14,.4,4.76,.2,1.38,1.63,3.9,.66,5.19-.87,1.15-3.18,.6-4.39,.51-1.85-.13-2.67-1.13-4.54-.47-1.35,.47-2.63,1.01-2.88,2.58-.33,2.07,.27,3.38-1.37,5.13-2.42,2.57-6.35,3.49-9.08,5.74-1.42,1.16-2.66,2.52-3.66,4.05-.94,1.44-1.88,1.83-3.29,2.8-1.29,.89-2.12,2.23-3.43,3.11-1.33,.9-3.35,1.55-3.93,3.22-.51,1.46-.14,2.2-1.96,2.71-1.53,.43-2.8,.08-3.82,1.53-1.01,1.44-1.2,1.84-3,2.21-1.39,.29-2.13,.83-2.66,2.19-.72,1.87-.11,3.67-.06,5.57,.05,1.81,.51,3.53,.6,5.34,.1,1.9-.2,3.75-.93,5.51-.86,2.07-1.73,3.47-1.58,5.8,.09,1.44,.78,4.16-.16,5.47-.72,.99-1.77,.23-2.64,.89-.51,.39-1.52,2.29-1.78,2.87-.67,1.51,.75,2.25-1.27,2.87-1.51,.46-2.77,.67-3.31,2.33-.48,1.5-.4,2.47-1.92,3.33-3.26,1.84-5.2-2.21-6.22-4.72-1.5-3.7-2.48-7.38-4.59-10.83-1.85-3.04-4-5.33-4.99-8.86-1.08-3.86-1.6-7.6-3.38-11.24-1.85-3.79-3.7-7.39-4.75-11.51-1-3.93-2.04-7.92-2.81-11.9-.36-1.83-.48-3.47-.39-5.33,.08-1.76,.48-3.43,.12-5.2-.36-1.77-.44-3.19,.12-4.95,.4-1.26,1.04-3.5-.82-4.06-1.51-.46-2.47,1.44-2.93,2.56-.67,1.61-1.18,3.14-2.39,4.45-2.32,2.52-6.04,2.39-8.36-.15-1.03-1.13-1.6-2.35-2.85-3.32-1.1-.85-2.96-1.74-3.01-3.37-.05-1.43,2.12-1.45,3.28-2.09,.61-.33,3.98-1.9,3.55-2.67-1.87,.47-3.34,2-5.38,1.55-1.62-.36-3.7-2.04-4.7-3.33-2.26-2.93,1.28-6.12,4.31-5.59,.85,.15,1.44,.45,2.32,.33s1.57-.62,2.39-.77c1.93-.37,2.56,1.09,4.46-.26,1.74-1.24,.56-2.03-.08-3.76-.61-1.66-.05-3.55-2.01-4.21-1.33-.45-2.3-.13-2.71-1.77-.47-1.87,.38-2.68-1.23-4.03-1.32-1.1-1.36-2.07-.8-3.77,.47-1.45,1.55-3.13,2.82-4.01,1.7-1.17,1.65,.08,2.68,.91,1.04,.84,2.96-.65,4.29-.82,.61-.07,1.07,.08,1.59-.33,.67-.53,1.22-2.1,1.63-2.84,.94-1.67,2.14-2.85,3.61-4.07,1.44-1.2,2.01-2.68,2.91-4.29,.39-.7,.72-1.33,1.4-1.79,.74-.5,1.49-.42,1.9-1.28,.27-.58,.11-1.33,.4-1.95,.37-.79,1.12-1.3,1.65-1.98,.86-1.08,1.56-2.33,1.28-3.68-.33-1.61-.43-2.61,1.11-3.58,.83-.52,3.31-.84,2.1-2.23-.81-.94-2.55-.4-3.55-1.19-1.37-1.08-3.22-2.6-4.23-4.04-.98-1.4-1-3.5-1.31-5.15-.29-1.53-.81-3.22,.2-4.6,.85-1.15,2.9-1.45,3.41-2.8,.62-1.64-1.75-2.07-2.92-2.52-.62-.24-1.24-.4-1.75-.86s-.62-1.23-1.11-1.63c-1.17-.94-2.82,.27-2.59-1.96,.41-3.8,4.54-3.96,7.32-5.08,3.4-1.37,6.39-2.62,9.11,.58,1.11,1.31,2.18,1.92,3.67,2.8,1.73,1.02,2.55,1.49,2.89,3.46,.63,3.68,5.48,2.46,7.86,1.17,2.79-1.51,6.08-3.85,9.09-1.4,2.24,1.82,2.34,4.9,.74,7.15-.52,.73-1.26,1.25-1.58,2.11-.24,.65-.09,1.32-.45,1.95-.81,1.39-2.79,1.18-3.39,2.84-.92,2.56,5.33,4.72,2.39,7.45-1.36,1.27-2.69,.7-4.16,.31-.75-.2-.02-.77-.96,0-.19,.16-.34,.54-.4,.76-.27,1.04,.43,1.72,.85,2.61,.63,1.34,.13,2.74,.66,4.04,.72,1.77,2.63,1.75,4.23,2.09s2.35,.88,3.27,2.18c.44,.62,.67,1.09,1.38,1.45,.65,.33,1.41,.25,2.01,.71,2.91,2.18-2.47,5.69-2.33,8.41,.18,3.57,5.51,4.63,7.97,6.05,1.74,1,3.33,2.36,5.15,3.22,2.29,1.09,3.94-.11,6.21-.01,1.39,.06,3.51,.96,4.25,2.17,1.04,1.7,1.17,2.26,3.31,2.67,1.91,.37,3.81,.34,5.74,.47,2.08,.13,3.83,1,5.83,1.42,4.93,1.03,2.3-5.04,3.03-7.62,.34-1.19,1.2-1.93,2.33-2.38,2.16-.87,2.82,.9,2.67,2.83-.13,1.62-.57,2.54,.93,3.5,1.8,1.15,3.72,.98,5.74,.91,1.89-.07,3.7,.53,5.59,.45,1.3-.06,4.48-.1,4.79-1.73,.35-1.84-1.3-1.57-2.15-2.28-1.63-1.36,.9-2.28,2.15-2.5,.76-.14,1.58,.07,2.23-.4,.39-.29,.51-1.01,.94-1.36,.5-.4,1.22-.47,1.75-.86,.71-.54,.89-1.47,1.55-2,.96-.79,2.45-.13,3.36-1.07,1.18-1.21,.94-3.19,2.98-3.68,1.75-.43,2.87,1.18,4.61,1.04,1.36-.11,2.71-1.95,4.02-1.68,1.75,.36,.47,1.77,.94,2.64,.6,1.11,2,.15,1.45,2.2-.17,.62-.72,.86-.3,1.37,.42,.51,1.1,.15,1.6,.13,1.59-.07,2.31,.27,3.1,1.71Z"/>
          <line class="cls-2" x1="634.65" y1="360.08" x2="373.33" y2="514.66"/>
          <circle class="cls-11" cx="518.84" cy="428.58" r="31.33"/>
          <g class="cls-9">
            <rect class="cls-24" x="103.19" y="433.28" width="1108.29" height="99.92" transform="translate(551.44 -325.71) rotate(46.22)"/>
            <rect class="cls-22" x="-.47" y="521.35" width="1108.29" height="16.83" transform="translate(553.09 -236.53) rotate(46.22)"/>
          </g>
          <g>
            <circle class="cls-16" cx="612.61" cy="508.83" r="12.19"/>
            <circle class="cls-15" cx="612.61" cy="508.83" r="9.51"/>
            <circle class="cls-14" cx="612.61" cy="508.83" r="6.83"/>
          </g>
          <rect class="cls-23" x="615.26" y="211.47" width="289.92" height="205.18" rx="8.4" ry="8.4"/>
          <rect class="cls-27" x="605.6" y="200.04" width="288.14" height="202.48" rx="8.4" ry="8.4"/>
          <rect class="cls-7" x="605.6" y="200.04" width="288.14" height="202.48" rx="8.4" ry="8.4"/>
          <g>
            <line class="cls-6" x1="765.48" y1="288.99" x2="866.85" y2="288.99"/>
            <line class="cls-6" x1="765.48" y1="303.94" x2="866.85" y2="303.94"/>
            <line class="cls-6" x1="765.48" y1="318.03" x2="866.85" y2="318.03"/>
            <line class="cls-6" x1="765.48" y1="332.98" x2="866.85" y2="332.98"/>
            <line class="cls-6" x1="765.48" y1="347.92" x2="866.85" y2="347.92"/>
            <line class="cls-6" x1="765.48" y1="362.86" x2="866.85" y2="362.86"/>
            <line class="cls-6" x1="765.48" y1="377.81" x2="866.85" y2="377.81"/>
            <rect class="cls-18" x="765.48" y="233.15" width="101.36" height="13.93" rx="1.68" ry="1.68"/>
            <rect class="cls-18" x="775.37" y="253.89" width="81.58" height="13.93" rx="1.68" ry="1.68"/>
          </g>
          <g>
            <rect class="cls-25" x="183.19" y="387.69" width="225.44" height="350.87" rx="8.4" ry="8.4"/>
            <rect class="cls-26" x="173.21" y="380.27" width="225.44" height="349.89" rx="8.4" ry="8.4"/>
            <rect class="cls-7" x="173.21" y="380.27" width="225.44" height="349.89" rx="8.4" ry="8.4"/>
            <g>
              <rect class="cls-13" x="200.16" y="405.66" width="172.15" height="114.65" rx="1.68" ry="1.68"/>
              <line class="cls-3" x1="200.16" y1="622.33" x2="372.3" y2="622.33"/>
              <line class="cls-3" x1="200.16" y1="642.94" x2="372.3" y2="642.94"/>
              <line class="cls-3" x1="200.16" y1="663.55" x2="372.3" y2="663.55"/>
              <line class="cls-3" x1="200.16" y1="684.15" x2="372.3" y2="684.15"/>
              <line class="cls-3" x1="200.16" y1="704.76" x2="372.3" y2="704.76"/>
              <rect class="cls-20" x="199.57" y="543.07" width="172.74" height="21.5" rx="1.68" ry="1.68"/>
              <rect class="cls-20" x="220.49" y="575.07" width="130.9" height="21.5" rx="1.68" ry="1.68"/>
            </g>
          </g>
          <path class="cls-14" d="M414.52,310.8l9.45-7.47c1.06-.84,2.64-.22,2.83,1.13l1.75,11.92c.2,1.34-1.13,2.39-2.39,1.89l-11.19-4.45c-1.26-.5-1.51-2.18-.44-3.02Z"/>
          <path class="cls-14" d="M555.49,457.86l6.08-6.73c.68-.76,1.93-.49,2.25,.48l2.79,8.64c.31,.97-.54,1.92-1.54,1.71l-8.87-1.9c-1-.21-1.39-1.43-.71-2.19Z"/>
          <g>
            <circle class="cls-16" cx="373.55" cy="260.82" r="12.19"/>
            <circle class="cls-15" cx="373.55" cy="260.82" r="9.51"/>
            <circle class="cls-14" cx="373.55" cy="260.82" r="6.83"/>
          </g>
          <line class="cls-2" x1="373.55" y1="260.82" x2="614.31" y2="512.05"/>
          <g>
            <circle class="cls-13" cx="683.18" cy="256.24" r="16.77"/>
            <path class="cls-13" d="M716.73,296.22c-8.26,9.09-20.27,14.91-33.55,14.91s-25.29-5.83-33.55-14.91c7.84-9.84,20-16.29,33.55-16.29s25.7,6.46,33.55,16.29Z"/>
            <g class="cls-21">
              <path class="cls-17" d="M683.18,220.74c24.96,0,45.2,20.23,45.2,45.2s-20.23,45.2-45.2,45.2-45.2-20.23-45.2-45.2,20.23-45.2,45.2-45.2m0-2.1c-26.08,0-47.3,21.22-47.3,47.3s21.22,47.3,47.3,47.3,47.3-21.22,47.3-47.3-21.22-47.3-47.3-47.3h0Z"/>
            </g>
          </g>
          <g>
            <g class="cls-21">
              <path class="cls-17" d="M732.98,325.58c2.32,0,4.2,1.88,4.2,4.2v47.83c0,2.32-1.88,4.2-4.2,4.2h-99.59c-2.32,0-4.2-1.88-4.2-4.2v-47.83c0-2.32,1.88-4.2,4.2-4.2h99.59m0-2.1h-99.59c-3.48,0-6.3,2.83-6.3,6.3v47.83c0,3.48,2.83,6.3,6.3,6.3h99.59c3.48,0,6.3-2.83,6.3-6.3v-47.83c0-3.48-2.83-6.3-6.3-6.3h0Z"/>
            </g>
            <g>
              <rect class="cls-13" x="641.61" y="337.57" width="84.41" height="11.92" rx="1.68" ry="1.68"/>
              <rect class="cls-13" x="641.61" y="357.9" width="84.41" height="11.92" rx="1.68" ry="1.68"/>
            </g>
          </g>
        </g>
        <g class="cls-28">
          <g>
            <line class="cls-5" x1="66.4" y1="343.93" x2="66.4" y2="392.26"/>
            <line class="cls-5" x1="90.56" y1="368.09" x2="42.24" y2="368.09"/>
          </g>
          <g>
            <line class="cls-5" x1="218.48" y1="164.96" x2="200.48" y2="143.87"/>
            <line class="cls-5" x1="198.94" y1="163.42" x2="220.03" y2="145.42"/>
          </g>
          <g>
            <line class="cls-5" x1="895.3" y1="458.96" x2="919.34" y2="456.89"/>
            <line class="cls-5" x1="908.35" y1="469.94" x2="906.28" y2="445.9"/>
          </g>
          <circle class="cls-5" cx="107.09" cy="485.27" r="16.53"/>
          <circle class="cls-5" cx="807.07" cy="663.55" r="11.69"/>
          <circle class="cls-5" cx="173.21" cy="233.15" r="7.79"/>
          <polygon class="cls-5" points="79.83 648.82 96.78 619.44 62.87 619.44 79.83 648.82"/>
          <polygon class="cls-5" points="86.58 234.85 110.1 229.46 93.67 211.78 86.58 234.85"/>
          <polygon class="cls-5" points="803.06 497.69 831.8 515.69 833.01 481.79 803.06 497.69"/>
          <polygon class="cls-5" points="800.53 158.08 831.79 171.24 827.56 137.59 800.53 158.08"/>
          <g>
            <line class="cls-5" x1="873.95" y1="593.21" x2="844.02" y2="597.28"/>
            <line class="cls-5" x1="861.02" y1="610.21" x2="856.95" y2="580.27"/>
          </g>
          <circle class="cls-5" cx="972.6" cy="756.01" r="12.73"/>
          <circle class="cls-5" cx="899.35" cy="191.64" r="8.49"/>
          <polygon class="cls-5" points="918.02 628.47 952.08 642.81 947.47 606.15 918.02 628.47"/>
        </g>
      </g>
    </g>
  </g>
</svg>