<svg width="154" height="40" viewBox="0 0 154 40" fill="none" xmlns="http://www.w3.org/2000/svg">
<path d="M45.2252 18.6812C44.4865 18.6812 43.8055 18.5919 43.1833 18.4131C42.5611 18.2343 41.9547 17.9325 41.363 17.5065V14.9817H42.8654L43.0939 16.5383C43.3281 16.7241 43.6313 16.8727 44.0057 16.9864C44.3802 17.099 44.7863 17.1547 45.2252 17.1547C45.6257 17.1547 45.9628 17.0967 46.2377 16.9829C46.5115 16.868 46.7208 16.7043 46.8633 16.4907C47.0059 16.2772 47.0783 16.0299 47.0783 15.7455C47.0783 15.4611 47.0138 15.2301 46.8848 15.0223C46.7558 14.8145 46.5454 14.6253 46.2513 14.457C45.9572 14.2886 45.5612 14.1285 45.0601 13.9764C44.2591 13.7465 43.5917 13.4854 43.0577 13.1917C42.5237 12.898 42.1244 12.5451 41.8597 12.1307C41.5949 11.7174 41.4626 11.224 41.4626 10.6518C41.4626 10.0795 41.6164 9.57102 41.9242 9.12874C42.2319 8.68646 42.6584 8.33705 43.2048 8.08283C43.7512 7.82861 44.379 7.6986 45.0895 7.69395C45.8814 7.68467 46.5794 7.7845 47.1857 7.99461C47.791 8.20472 48.308 8.48912 48.7379 8.84666V11.195H47.2717L47.007 9.71961C46.8169 9.58727 46.5658 9.47467 46.2558 9.3818C45.9459 9.28894 45.5884 9.2425 45.1834 9.2425C44.8349 9.2425 44.5272 9.29822 44.2602 9.4085C43.9933 9.51878 43.7828 9.67898 43.6313 9.88909C43.4785 10.0992 43.4027 10.3523 43.4027 10.646C43.4027 10.9002 43.4695 11.1231 43.603 11.3134C43.7365 11.5038 43.9605 11.6803 44.275 11.8416C44.5894 12.003 45.0159 12.1701 45.5556 12.3408C46.6948 12.6588 47.5591 13.0883 48.1485 13.6293C48.7367 14.1702 49.032 14.8702 49.032 15.7316C49.032 16.3282 48.8736 16.8483 48.5557 17.2906C48.239 17.7328 47.7955 18.0764 47.2253 18.3179C46.6552 18.5594 45.9888 18.6812 45.2264 18.6812H45.2252Z" fill="#003F94"/>
<path d="M49.8749 21.5812V20.3704L50.9043 20.1499V12.0182L49.7742 11.7977V10.5869H52.6714L52.7788 11.5191C53.0119 11.172 53.2958 10.905 53.6296 10.7193C53.9633 10.5335 54.3592 10.4407 54.8163 10.4407C55.4407 10.4407 55.9758 10.6148 56.4216 10.9654C56.8673 11.3148 57.2089 11.8058 57.4476 12.4373C57.6863 13.0688 57.8051 13.8024 57.8051 14.6394V14.7938C57.8051 15.5716 57.6863 16.253 57.4476 16.838C57.2089 17.4231 56.8673 17.8758 56.4216 18.1985C55.9758 18.5212 55.4385 18.6826 54.8084 18.6826C54.3796 18.6826 54.0029 18.6048 53.6782 18.4481C53.3535 18.2914 53.0752 18.0615 52.8411 17.7574V20.1499L53.8999 20.3704V21.5812H49.8737H49.8749ZM54.2235 17.148C54.7857 17.148 55.1987 16.9355 55.4611 16.5095C55.7236 16.0835 55.8548 15.5124 55.8548 14.7926V14.6382C55.8548 14.1147 55.7971 13.6562 55.6794 13.2627C55.5629 12.868 55.3831 12.5604 55.1398 12.3375C54.8966 12.1146 54.5866 12.0032 54.2099 12.0032C53.8999 12.0032 53.6296 12.0751 53.3977 12.2202C53.1657 12.3642 52.9813 12.5662 52.8433 12.8262V16.3853C52.9813 16.6302 53.1669 16.8183 53.3977 16.9495C53.6284 17.0818 53.9045 17.148 54.2235 17.148Z" fill="#003F94"/>
<path d="M58.8867 18.527V17.3232L59.924 17.1026V12.017L58.8086 11.7965V10.5857H61.7273L61.8133 11.5771L61.828 11.7454C62.0237 11.3194 62.2669 10.9955 62.5576 10.7726C62.8484 10.5497 63.1923 10.4395 63.5871 10.4395C63.7161 10.4395 63.8552 10.4499 64.0057 10.472C64.1562 10.494 64.284 10.5219 64.3881 10.5567L64.1663 12.3989L63.1437 12.3397C62.8337 12.3246 62.5791 12.3838 62.3823 12.5162C62.1843 12.6485 62.0146 12.8366 61.871 13.0815V17.1038L62.9084 17.3244V18.5281H58.8889L58.8867 18.527Z" fill="#003F94"/>
<path d="M67.5126 18.6814C66.7354 18.6814 66.1233 18.4724 65.6776 18.0534C65.2319 17.6355 65.009 17.062 65.009 16.333C65.009 15.8338 65.1414 15.3951 65.4061 15.0155C65.6708 14.6359 66.0623 14.3399 66.5793 14.1274C67.0962 13.915 67.7275 13.8082 68.4707 13.8082H69.5726V13.1848C69.5726 12.7832 69.4572 12.4605 69.2253 12.2155C68.9934 11.9706 68.654 11.8487 68.206 11.8487C67.9628 11.8487 67.7445 11.88 67.5521 11.9404C67.3587 12.0019 67.1856 12.089 67.034 12.2016L66.87 13.2661H65.4536L65.4389 11.2544C65.8303 11.0094 66.2602 10.8132 66.7297 10.6635C67.1992 10.5137 67.723 10.4395 68.2999 10.4395C69.2966 10.4395 70.0817 10.6774 70.6564 11.1557C71.2311 11.6328 71.5184 12.3165 71.5184 13.2069V16.5896C71.5184 16.6975 71.5184 16.802 71.5218 16.9053C71.5241 17.0075 71.532 17.1084 71.5467 17.206L72.3409 17.3232V18.527H69.8735C69.8215 18.3749 69.7717 18.2205 69.7265 18.0615C69.6812 17.9025 69.6495 17.7423 69.6303 17.5809C69.378 17.9094 69.076 18.1741 68.7253 18.3772C68.3746 18.5804 67.9707 18.6814 67.5126 18.6814ZM67.9911 17.1769C68.3203 17.1769 68.6291 17.0992 68.9176 16.9424C69.2061 16.7857 69.4244 16.5872 69.5726 16.3481V15.0561H68.464C67.9628 15.0561 67.585 15.1745 67.3304 15.4125C67.0747 15.6504 66.948 15.9302 66.948 16.2529C66.948 16.5466 67.0385 16.7741 67.2196 16.9355C67.4006 17.0968 67.6585 17.1769 67.9922 17.1769H67.9911Z" fill="#003F94"/>
<path d="M76.7675 18.6814C76.0333 18.6814 75.3975 18.5119 74.8613 18.1718C74.3251 17.8317 73.911 17.3604 73.6203 16.7591C73.3295 16.1566 73.1836 15.4648 73.1836 14.6824V14.4409C73.1836 13.6678 73.3307 12.9806 73.6237 12.3781C73.9167 11.7768 74.3307 11.3032 74.8647 10.9584C75.3986 10.6136 76.0276 10.4407 76.7528 10.4407C77.4349 10.4407 78.0243 10.551 78.5232 10.7704C79.021 10.9909 79.426 11.2544 79.736 11.5632V13.7653H78.2619L77.9904 12.3491C77.8671 12.2214 77.7087 12.1192 77.5187 12.0415C77.3286 11.9637 77.125 11.9242 76.9112 11.9242C76.5254 11.9242 76.1996 12.0287 75.9349 12.2365C75.6701 12.4443 75.4699 12.7345 75.3342 13.1094C75.1984 13.4832 75.1305 13.9278 75.1305 14.4409V14.6824C75.1305 15.2349 75.2018 15.6934 75.3455 16.0579C75.4891 16.4224 75.6849 16.6952 75.9349 16.8763C76.186 17.0574 76.4654 17.148 76.7754 17.148C77.1668 17.148 77.4836 17.0423 77.7268 16.8287C77.97 16.6151 78.1318 16.3168 78.2133 15.9291H79.8796L79.9011 15.9732C79.8344 16.5107 79.6805 16.9843 79.4396 17.3929C79.1986 17.8015 78.8604 18.1184 78.4237 18.3436C77.987 18.5688 77.4349 18.6814 76.7675 18.6814Z" fill="#003F94"/>
<path d="M80.7519 18.5269V17.3232L81.7893 17.1026V8.50894L80.6592 8.28839V7.07764H83.7272V11.606C83.975 11.2392 84.2815 10.9525 84.6458 10.747C85.0112 10.5416 85.4241 10.4394 85.8868 10.4394C86.6787 10.4394 87.3021 10.7029 87.7568 11.2288C88.2116 11.7546 88.4401 12.5684 88.4401 13.6688V17.1038L89.4775 17.3243V18.5281H85.5361V17.3243L86.4943 17.1038V13.6549C86.4943 13.0629 86.3823 12.6392 86.1583 12.385C85.9343 12.1307 85.6051 12.0031 85.1707 12.0031C84.8653 12.0031 84.5892 12.0704 84.3415 12.205C84.0937 12.3397 83.889 12.5324 83.7261 12.7808V17.1038L84.6843 17.3243V18.5281H80.7508L80.7519 18.5269Z" fill="#003F94"/>
<path d="M93.7979 18.6814C93.0637 18.6814 92.4234 18.5142 91.877 18.1787C91.3306 17.8444 90.9075 17.3812 90.6077 16.7915C90.3068 16.2018 90.1575 15.5285 90.1575 14.7694V14.4687C90.1575 13.6909 90.3011 12.9968 90.5896 12.3885C90.8781 11.7791 91.282 11.302 91.8023 10.9572C92.3227 10.6124 92.9234 10.4395 93.6045 10.4395C94.2855 10.4395 94.8941 10.5822 95.3715 10.869C95.8478 11.1557 96.2087 11.5643 96.4519 12.0983C96.6951 12.6311 96.8173 13.273 96.8173 14.0206V15.1292H92.1757L92.161 15.1733C92.1802 15.5552 92.2639 15.8942 92.411 16.1902C92.558 16.4862 92.7662 16.7196 93.0332 16.8914C93.3002 17.062 93.6237 17.1479 94.0061 17.1479C94.4111 17.1479 94.7821 17.0945 95.1181 16.9866C95.4541 16.8786 95.7743 16.7196 96.0797 16.5095L96.6374 17.7492C96.3275 18.0139 95.9338 18.2345 95.4575 18.4132C94.9812 18.592 94.4281 18.6814 93.7979 18.6814ZM92.1949 13.7722H94.9846V13.5807C94.9846 13.2487 94.9371 12.9585 94.8421 12.7112C94.7471 12.4639 94.6 12.2724 94.402 12.1354C94.2041 11.9985 93.9473 11.93 93.6328 11.93C93.3465 11.93 93.1011 12.0101 92.8963 12.1691C92.6915 12.3281 92.5298 12.5429 92.4098 12.8145C92.2911 13.0862 92.2119 13.3938 92.1745 13.7362L92.196 13.7734L92.1949 13.7722Z" fill="#003F94"/>
<path d="M97.7448 18.5269V17.3231L98.7822 17.1026V12.017L97.6667 11.7964V10.5857H100.584L100.677 11.7302C100.935 11.3239 101.255 11.007 101.639 10.7795C102.022 10.552 102.458 10.4382 102.944 10.4382C103.721 10.4382 104.33 10.689 104.771 11.1905C105.212 11.6919 105.433 12.479 105.433 13.5504V17.1026L106.47 17.3231V18.5269H102.529V17.3231L103.48 17.1026V13.5655C103.48 12.9979 103.371 12.5962 103.151 12.3583C102.932 12.1214 102.605 12.0019 102.172 12.0019C101.847 12.0019 101.565 12.0738 101.324 12.219C101.083 12.3641 100.884 12.5672 100.727 12.8319V17.1026L101.642 17.3231V18.5269H97.7437H97.7448Z" fill="#003F94"/>
<path d="M109.79 18.6814C109.012 18.6814 108.4 18.4724 107.955 18.0534C107.509 17.6355 107.286 17.062 107.286 16.333C107.286 15.8338 107.418 15.3951 107.683 15.0155C107.948 14.6359 108.339 14.3399 108.856 14.1274C109.373 13.915 110.005 13.8082 110.748 13.8082H111.85V13.1848C111.85 12.7832 111.734 12.4605 111.502 12.2155C111.271 11.9706 110.931 11.8487 110.483 11.8487C110.24 11.8487 110.022 11.88 109.829 11.9404C109.636 12.0019 109.463 12.089 109.311 12.2016L109.147 13.2661H107.731L107.716 11.2544C108.107 11.0094 108.537 10.8132 109.007 10.6635C109.476 10.5137 110 10.4395 110.577 10.4395C111.574 10.4395 112.359 10.6774 112.933 11.1557C113.508 11.6328 113.796 12.3165 113.796 13.2069V16.5896C113.796 16.6975 113.796 16.802 113.799 16.9053C113.801 17.0075 113.809 17.1084 113.824 17.206L114.618 17.3232V18.527H112.151C112.099 18.3749 112.049 18.2205 112.004 18.0615C111.958 17.9025 111.927 17.7423 111.907 17.5809C111.655 17.9094 111.353 18.1741 111.002 18.3772C110.652 18.5804 110.248 18.6814 109.79 18.6814ZM110.269 17.1769C110.599 17.1769 110.907 17.0992 111.196 16.9424C111.484 16.7857 111.703 16.5872 111.851 16.3481V15.0561H110.742C110.241 15.0561 109.863 15.1745 109.609 15.4125C109.353 15.6504 109.226 15.9302 109.226 16.2529C109.226 16.5466 109.317 16.7741 109.498 16.9355C109.679 17.0968 109.937 17.1769 110.27 17.1769H110.269Z" fill="#003F94"/>
<path d="M118.209 18.6744C117.522 18.6744 116.989 18.477 116.61 18.0835C116.231 17.69 116.041 17.0643 116.041 16.2088V12.0031H114.947V10.5868H116.041V8.64941H117.979V10.5868H119.46V12.0031H117.979V16.2088C117.979 16.5315 118.046 16.7648 118.179 16.9064C118.313 17.048 118.491 17.1189 118.715 17.1189C118.84 17.1189 118.976 17.1096 119.124 17.0887C119.272 17.0689 119.395 17.0504 119.496 17.0295L119.683 18.4457C119.468 18.5095 119.231 18.5629 118.971 18.607C118.711 18.6512 118.457 18.6732 118.21 18.6732L118.209 18.6744Z" fill="#003F94"/>
<path d="M123.98 18.6814C123.246 18.6814 122.606 18.5142 122.059 18.1787C121.513 17.8444 121.09 17.3812 120.79 16.7915C120.489 16.2018 120.34 15.5285 120.34 14.7694V14.4687C120.34 13.6909 120.484 12.9968 120.772 12.3885C121.06 11.7791 121.464 11.302 121.985 10.9572C122.505 10.6124 123.106 10.4395 123.787 10.4395C124.468 10.4395 125.077 10.5822 125.554 10.869C126.03 11.1557 126.391 11.5643 126.634 12.0983C126.878 12.6311 127 13.273 127 14.0206V15.1292H122.358L122.343 15.1733C122.363 15.5552 122.446 15.8942 122.593 16.1902C122.74 16.4862 122.949 16.7196 123.216 16.8914C123.483 17.062 123.806 17.1479 124.188 17.1479C124.593 17.1479 124.965 17.0945 125.301 16.9866C125.636 16.8786 125.957 16.7196 126.262 16.5095L126.82 17.7492C126.51 18.0139 126.116 18.2345 125.64 18.4132C125.164 18.592 124.61 18.6814 123.98 18.6814ZM122.377 13.7722H125.167V13.5807C125.167 13.2487 125.12 12.9585 125.024 12.7112C124.929 12.4639 124.782 12.2724 124.584 12.1354C124.386 11.9985 124.13 11.93 123.815 11.93C123.529 11.93 123.283 12.0101 123.079 12.1691C122.874 12.3281 122.712 12.5429 122.592 12.8145C122.473 13.0862 122.394 13.3938 122.357 13.7362L122.378 13.7734L122.377 13.7722Z" fill="#003F94"/>
<path d="M127.886 18.5269V17.3232L128.93 17.1026V8.50894L127.806 8.28839V7.07764H130.874V17.1026L131.919 17.3232V18.5269H127.884H127.886Z" fill="#003F94"/>
<path d="M132.605 18.5269V17.3232L133.643 17.1026V12.017L132.519 11.7964V10.5857H135.587V17.1026L136.625 17.3232V18.5269H132.605ZM133.571 8.84675V7.07764H135.588V8.84675H133.571Z" fill="#003F94"/>
<path d="M141.046 18.6814C140.312 18.6814 139.671 18.5142 139.125 18.1787C138.578 17.8444 138.155 17.3812 137.856 16.7915C137.555 16.2018 137.405 15.5285 137.405 14.7694V14.4687C137.405 13.6909 137.549 12.9968 137.837 12.3885C138.126 11.7791 138.53 11.302 139.05 10.9572C139.571 10.6124 140.171 10.4395 140.852 10.4395C141.533 10.4395 142.142 10.5822 142.619 10.869C143.096 11.1557 143.456 11.5643 143.7 12.0983C143.943 12.6311 144.065 13.273 144.065 14.0206V15.1292H139.423L139.409 15.1733C139.428 15.5552 139.512 15.8942 139.659 16.1902C139.807 16.4862 140.014 16.7196 140.281 16.8914C140.548 17.062 140.872 17.1479 141.254 17.1479C141.659 17.1479 142.03 17.0945 142.366 16.9866C142.702 16.8786 143.022 16.7196 143.328 16.5095L143.885 17.7492C143.575 18.0139 143.182 18.2345 142.705 18.4132C142.229 18.592 141.676 18.6814 141.046 18.6814ZM139.444 13.7722H142.234V13.5807C142.234 13.2487 142.186 12.9585 142.091 12.7112C141.996 12.4639 141.849 12.2724 141.651 12.1354C141.453 11.9985 141.196 11.93 140.882 11.93C140.595 11.93 140.35 12.0101 140.145 12.1691C139.94 12.3281 139.779 12.5429 139.659 12.8145C139.54 13.0862 139.461 13.3938 139.423 13.7362L139.445 13.7734L139.444 13.7722Z" fill="#003F94"/>
<path d="M145.179 18.527V17.3232L146.217 17.1026V12.017L145.101 11.7965V10.5857H148.02L148.106 11.5771L148.121 11.7454C148.316 11.3194 148.56 10.9955 148.85 10.7726C149.141 10.5497 149.485 10.4395 149.88 10.4395C150.009 10.4395 150.148 10.4499 150.298 10.472C150.449 10.494 150.577 10.5219 150.681 10.5567L150.459 12.3989L149.436 12.3397C149.126 12.3246 148.872 12.3838 148.675 12.5162C148.477 12.6485 148.307 12.8366 148.164 13.0815V17.1038L149.201 17.3244V18.5281H145.182L145.179 18.527Z" fill="#003F94"/>
<path d="M40.9015 30.1503V29.4317L41.5724 29.3005V24.6259L40.9015 24.4947V23.7715H43.4718V24.4947L42.7331 24.6259V29.239H44.5827L44.6506 28.2883H45.5386V30.1514H40.9004L40.9015 30.1503Z" fill="#053F92"/>
<path d="M50.4576 30.2421C49.9937 30.2421 49.6283 30.1167 49.3625 29.8671C49.0966 29.6175 48.9631 29.2751 48.9631 28.8398C48.9631 28.5414 49.0423 28.2791 49.2007 28.0527C49.358 27.8264 49.5921 27.6499 49.901 27.5222C50.2098 27.3945 50.5865 27.3307 51.03 27.3307H51.6884V26.9581C51.6884 26.7189 51.6194 26.5262 51.4814 26.38C51.3433 26.2337 51.1408 26.1606 50.8727 26.1606C50.7268 26.1606 50.5978 26.1791 50.4824 26.2163C50.3671 26.2523 50.2641 26.3045 50.1725 26.3718L50.0741 27.008H49.229L49.2199 25.8077C49.453 25.6614 49.7098 25.5442 49.9903 25.4548C50.2709 25.3654 50.5831 25.3213 50.9282 25.3213C51.5232 25.3213 51.9916 25.4641 52.3355 25.7485C52.6783 26.0329 52.8502 26.4415 52.8502 26.9732V28.993C52.8502 29.0569 52.8502 29.1195 52.8525 29.1811C52.8547 29.2426 52.8593 29.3018 52.8672 29.361L53.3412 29.4306V30.1492H51.8671C51.8355 30.0587 51.8072 29.9658 51.78 29.8706C51.7529 29.7754 51.7336 29.6802 51.7223 29.5839C51.5719 29.7801 51.3909 29.9379 51.1816 30.0598C50.9723 30.1817 50.7313 30.2421 50.4576 30.2421ZM50.7438 29.3447C50.9406 29.3447 51.1239 29.2983 51.297 29.2043C51.4689 29.1114 51.6001 28.993 51.6884 28.8491V28.0783H51.0266C50.7279 28.0783 50.5017 28.1491 50.3501 28.2907C50.1974 28.4323 50.1216 28.5995 50.1216 28.7922C50.1216 28.9675 50.1759 29.1033 50.2833 29.1996C50.3919 29.296 50.5447 29.3447 50.7449 29.3447H50.7438Z" fill="#053F92"/>
<path d="M56.6388 30.1504V29.4319L57.2576 29.3007V26.2651L56.5913 26.1339V25.4107H58.3335L58.3889 26.0945C58.5428 25.8518 58.734 25.6626 58.9636 25.5268C59.1921 25.391 59.4523 25.3225 59.7431 25.3225C60.2069 25.3225 60.5712 25.4723 60.8336 25.7718C61.0961 26.0712 61.2284 26.5402 61.2284 27.181V29.3018L61.8472 29.433V30.1516H59.4942V29.433L60.0621 29.3018V27.1903C60.0621 26.8513 59.9965 26.611 59.8652 26.4694C59.734 26.3278 59.5394 26.257 59.2804 26.257C59.0869 26.257 58.9183 26.2999 58.7747 26.3858C58.631 26.4717 58.5122 26.5936 58.4183 26.7527V29.3018L58.9647 29.433V30.1516H56.6377L56.6388 30.1504Z" fill="#053F92"/>
<path d="M67.1336 32.0645C66.9028 32.0645 66.6449 32.0332 66.3609 31.9705C66.0758 31.9078 65.8258 31.8207 65.6098 31.7093L65.8405 30.8503C66.0317 30.9373 66.2376 31.007 66.4571 31.0581C66.6777 31.1091 66.8847 31.1347 67.0782 31.1347C67.4221 31.1347 67.6743 31.036 67.8339 30.841C67.9934 30.6448 68.0737 30.372 68.0737 30.0214V29.6802C67.9345 29.8612 67.7694 29.9994 67.5782 30.0957C67.3881 30.1921 67.1687 30.2408 66.9209 30.2408C66.5453 30.2408 66.2218 30.1445 65.9514 29.9518C65.681 29.7591 65.474 29.4875 65.3303 29.1392C65.1867 28.7898 65.1143 28.3823 65.1143 27.9192V27.8275C65.1143 27.3272 65.1855 26.8895 65.3303 26.5122C65.474 26.1361 65.6788 25.8424 65.9446 25.6335C66.2105 25.4245 66.5306 25.3201 66.9028 25.3201C67.1822 25.3201 67.4232 25.3793 67.6268 25.4977C67.8305 25.6161 68.0035 25.7844 68.145 26.0038L68.2298 25.4083H69.2378V30.0273C69.2378 30.4417 69.1541 30.8015 68.9855 31.108C68.8169 31.4133 68.576 31.6489 68.2615 31.8149C67.947 31.9821 67.5703 32.0645 67.1325 32.0645H67.1336ZM67.2445 29.3087C67.4356 29.3087 67.5985 29.2669 67.7354 29.1856C67.8723 29.1032 67.9843 28.9871 68.0726 28.8351V26.7491C67.9877 26.5935 67.8746 26.4728 67.7354 26.3857C67.5963 26.2975 67.4334 26.2545 67.249 26.2545C67.0239 26.2545 66.8395 26.3207 66.6958 26.4542C66.5521 26.5865 66.4458 26.7711 66.3779 27.0056C66.31 27.2412 66.275 27.5152 66.275 27.8275V27.9192C66.275 28.3487 66.3507 28.6865 66.5035 28.9361C66.6562 29.1845 66.9028 29.3087 67.2445 29.3087ZM69.085 26.2859L68.5895 25.4095H69.7853V26.1327L69.085 26.2859Z" fill="#053F92"/>
<path d="M75.0062 30.2422C74.5141 30.2422 74.1283 30.082 73.8511 29.7627C73.574 29.4423 73.4348 28.9455 73.4348 28.2711V26.264L72.9224 26.1328V25.4096H74.5967V28.2792C74.5967 28.653 74.6577 28.9188 74.7777 29.0744C74.8987 29.2311 75.0842 29.3088 75.3354 29.3088C75.5435 29.3088 75.7245 29.2659 75.8773 29.1812C76.0311 29.0964 76.1544 28.9757 76.2483 28.8178V26.2628L75.685 26.1316V25.4084H77.4102V29.2996L77.9611 29.4307V30.1493H76.3852L76.3083 29.5271C76.1624 29.7581 75.9802 29.9345 75.7596 30.0576C75.539 30.1806 75.2879 30.2422 75.0062 30.2422Z" fill="#053F92"/>
<path d="M82.8323 30.2421C82.3685 30.2421 82.0031 30.1167 81.7372 29.8671C81.4714 29.6175 81.3379 29.2751 81.3379 28.8398C81.3379 28.5414 81.4171 28.2791 81.5755 28.0527C81.7327 27.8264 81.9669 27.6499 82.2757 27.5222C82.5846 27.3945 82.9613 27.3307 83.4047 27.3307H84.0631V26.9581C84.0631 26.7189 83.9941 26.5262 83.8561 26.38C83.7181 26.2337 83.5156 26.1606 83.2475 26.1606C83.1016 26.1606 82.9726 26.1791 82.8572 26.2163C82.7418 26.2523 82.6389 26.3045 82.5472 26.3718L82.4488 27.008H81.6037L81.5947 25.8077C81.8277 25.6614 82.0845 25.5442 82.3651 25.4548C82.6457 25.3654 82.9579 25.3213 83.3029 25.3213C83.898 25.3213 84.3663 25.4641 84.7102 25.7485C85.053 26.0329 85.225 26.4415 85.225 26.9732V28.993C85.225 29.0569 85.225 29.1195 85.2272 29.1811C85.2295 29.2426 85.234 29.3018 85.2419 29.361L85.7159 29.4306V30.1492H84.2419C84.2102 30.0587 84.1819 29.9658 84.1548 29.8706C84.1276 29.7754 84.1084 29.6802 84.0971 29.5839C83.9466 29.7801 83.7656 29.9379 83.5563 30.0598C83.347 30.1817 83.1061 30.2421 82.8323 30.2421ZM83.1185 29.3447C83.3154 29.3447 83.4986 29.2983 83.6717 29.2043C83.8437 29.1114 83.9749 28.993 84.0631 28.8491V28.0783H83.4013C83.1027 28.0783 82.8764 28.1491 82.7248 28.2907C82.5721 28.4323 82.4963 28.5995 82.4963 28.7922C82.4963 28.9675 82.5506 29.1033 82.6581 29.1996C82.7667 29.296 82.9194 29.3447 83.1197 29.3447H83.1185Z" fill="#053F92"/>
<path d="M91.0909 32.0645C90.8601 32.0645 90.6022 32.0332 90.3182 31.9705C90.0331 31.9078 89.7831 31.8207 89.567 31.7093L89.7978 30.8503C89.989 30.9373 90.1949 31.007 90.4144 31.0581C90.635 31.1091 90.842 31.1347 91.0354 31.1347C91.3793 31.1347 91.6316 31.036 91.7911 30.841C91.9506 30.6448 92.031 30.372 92.031 30.0214V29.6802C91.8918 29.8612 91.7267 29.9994 91.5355 30.0957C91.3454 30.1921 91.1259 30.2408 90.8782 30.2408C90.5026 30.2408 90.1791 30.1445 89.9087 29.9518C89.6383 29.7591 89.4313 29.4875 89.2876 29.1392C89.1439 28.7898 89.0715 28.3823 89.0715 27.9192V27.8275C89.0715 27.3272 89.1428 26.8895 89.2876 26.5122C89.4313 26.1361 89.636 25.8424 89.9019 25.6335C90.1677 25.4245 90.4879 25.3201 90.8601 25.3201C91.1395 25.3201 91.3805 25.3793 91.5841 25.4977C91.7877 25.6161 91.9608 25.7844 92.1022 26.0038L92.1871 25.4083H93.195V30.0273C93.195 30.4417 93.1113 30.8015 92.9428 31.108C92.7742 31.4133 92.5333 31.6489 92.2188 31.8149C91.9043 31.9821 91.5275 32.0645 91.0897 32.0645H91.0909ZM91.2017 29.3087C91.3929 29.3087 91.5558 29.2669 91.6927 29.1856C91.8296 29.1032 91.9416 28.9871 92.0298 28.8351V26.7491C91.945 26.5935 91.8319 26.4728 91.6927 26.3857C91.5536 26.2975 91.3907 26.2545 91.2063 26.2545C90.9811 26.2545 90.7967 26.3207 90.6531 26.4542C90.5094 26.5865 90.4031 26.7711 90.3352 27.0056C90.2673 27.2412 90.2322 27.5152 90.2322 27.8275V27.9192C90.2322 28.3487 90.308 28.6865 90.4607 28.9361C90.6135 29.1845 90.8601 29.3087 91.2017 29.3087ZM93.0423 26.2859L92.5468 25.4095H93.7426V26.1327L93.0423 26.2859Z" fill="#053F92"/>
<path d="M99.134 30.2419C98.6951 30.2419 98.3139 30.1421 97.9869 29.9413C97.66 29.7405 97.4088 29.4653 97.229 29.1125C97.0491 28.7607 96.9597 28.3591 96.9597 27.9052V27.7253C96.9597 27.2609 97.0457 26.8465 97.2176 26.482C97.3896 26.1187 97.6306 25.8331 97.9417 25.6276C98.2516 25.421 98.6103 25.3188 99.0175 25.3188C99.4248 25.3188 99.7879 25.4048 100.072 25.5754C100.357 25.746 100.571 25.991 100.717 26.309C100.861 26.6271 100.935 27.0102 100.935 27.4571V28.1188H98.1634L98.1543 28.1443C98.1657 28.3718 98.2154 28.575 98.3037 28.7514C98.3919 28.9279 98.5152 29.0672 98.6747 29.1705C98.8342 29.2726 99.0277 29.3237 99.2551 29.3237C99.4972 29.3237 99.7189 29.2912 99.9191 29.2274C100.119 29.1635 100.312 29.0683 100.494 28.9418L100.826 29.6824C100.641 29.8403 100.407 29.9726 100.122 30.0794C99.8366 30.1862 99.5062 30.2396 99.1306 30.2396L99.134 30.2419ZM98.177 27.3108H99.8422V27.1971C99.8422 26.9986 99.8139 26.8256 99.7574 26.6782C99.7008 26.5308 99.6126 26.4158 99.4949 26.3346C99.3773 26.2533 99.2234 26.2115 99.0356 26.2115C98.8648 26.2115 98.7177 26.2591 98.5955 26.3543C98.4734 26.4495 98.3761 26.5772 98.3048 26.7397C98.2335 26.9022 98.1872 27.0856 98.1634 27.2899L98.1758 27.312L98.177 27.3108Z" fill="#053F92"/>
<path d="M111.844 30.2421C111.403 30.2421 110.997 30.1887 110.625 30.082C110.253 29.9752 109.89 29.7952 109.537 29.541V28.0331H110.434L110.571 28.9617C110.71 29.0732 110.893 29.1614 111.115 29.2287C111.338 29.2961 111.582 29.3297 111.843 29.3297C112.082 29.3297 112.284 29.2949 112.447 29.2264C112.61 29.1579 112.735 29.0604 112.82 28.9327C112.905 28.8062 112.948 28.6576 112.948 28.4881C112.948 28.3186 112.91 28.1805 112.833 28.0563C112.756 27.9321 112.63 27.8195 112.455 27.7197C112.28 27.6187 112.043 27.5235 111.743 27.4329C111.265 27.2948 110.867 27.1392 110.548 26.9639C110.229 26.7887 109.99 26.5774 109.833 26.3313C109.674 26.084 109.595 25.7892 109.595 25.4479C109.595 25.1066 109.687 24.8036 109.87 24.539C110.053 24.2743 110.308 24.0665 110.635 23.9144C110.961 23.7624 111.336 23.6858 111.76 23.6823C112.233 23.6765 112.649 23.7357 113.012 23.8622C113.374 23.9887 113.682 24.1571 113.938 24.3706V25.7729H113.062L112.904 24.8919C112.79 24.8129 112.64 24.7456 112.456 24.691C112.271 24.6353 112.058 24.6075 111.816 24.6075C111.608 24.6075 111.424 24.64 111.265 24.7061C111.105 24.7723 110.98 24.8675 110.889 24.9929C110.799 25.1194 110.752 25.2691 110.752 25.4444C110.752 25.5965 110.792 25.7288 110.872 25.8426C110.953 25.9563 111.086 26.062 111.274 26.1583C111.462 26.2547 111.716 26.3545 112.039 26.4567C112.719 26.647 113.234 26.9036 113.586 27.2251C113.938 27.5478 114.113 27.9669 114.113 28.4812C114.113 28.8375 114.018 29.1486 113.829 29.4133C113.641 29.678 113.375 29.8823 113.035 30.0262C112.695 30.1713 112.297 30.2433 111.842 30.2433L111.844 30.2421Z" fill="#053F92"/>
<path d="M119.298 30.2375C118.889 30.2375 118.571 30.1202 118.343 29.8846C118.117 29.6489 118.004 29.2763 118.004 28.7655V26.2546H117.35V25.4095H118.004V24.2522H119.161V25.4095H120.045V26.2546H119.161V28.7655C119.161 28.9582 119.201 29.0975 119.281 29.1811C119.362 29.2658 119.468 29.3088 119.601 29.3088C119.676 29.3088 119.756 29.303 119.845 29.2914C119.933 29.2798 120.006 29.2682 120.066 29.2566L120.177 30.1028C120.049 30.1399 119.907 30.1724 119.752 30.1991C119.597 30.2258 119.445 30.2386 119.297 30.2386L119.298 30.2375Z" fill="#053F92"/>
<path d="M125.484 30.2422C124.992 30.2422 124.606 30.082 124.329 29.7627C124.052 29.4423 123.913 28.9455 123.913 28.2711V26.264L123.4 26.1328V25.4096H125.074V28.2792C125.074 28.653 125.136 28.9188 125.255 29.0744C125.376 29.2311 125.562 29.3088 125.813 29.3088C126.021 29.3088 126.202 29.2659 126.355 29.1812C126.509 29.0964 126.632 28.9757 126.726 28.8178V26.2628L126.163 26.1316V25.4084H127.888V29.2996L128.439 29.4307V30.1493H126.863L126.786 29.5271C126.64 29.7581 126.458 29.9345 126.237 30.0576C126.017 30.1806 125.766 30.2422 125.484 30.2422Z" fill="#053F92"/>
<path d="M133.558 30.2421C133.191 30.2421 132.874 30.1457 132.61 29.953C132.345 29.7603 132.143 29.4887 132.001 29.1404C131.86 28.791 131.79 28.3836 131.79 27.9204V27.8287C131.79 27.3284 131.86 26.8907 132.001 26.5135C132.143 26.1374 132.345 25.8437 132.61 25.6347C132.874 25.4258 133.189 25.3213 133.553 25.3213C133.815 25.3213 134.043 25.3735 134.237 25.4768C134.43 25.5802 134.596 25.7287 134.735 25.9214V24.1686L134.066 24.0374V23.3142H135.897V29.2995L136.516 29.4306V30.1492H134.894L134.804 29.5757C134.66 29.7951 134.484 29.96 134.279 30.0726C134.075 30.1852 133.834 30.2409 133.558 30.2409V30.2421ZM133.895 29.3088C134.085 29.3088 134.251 29.2658 134.39 29.1811C134.53 29.0963 134.645 28.9756 134.737 28.8177V26.7665C134.648 26.6063 134.534 26.4798 134.395 26.3904C134.256 26.301 134.092 26.2546 133.904 26.2546C133.684 26.2546 133.505 26.3208 133.363 26.4543C133.222 26.5866 133.118 26.7712 133.051 27.0057C132.984 27.2413 132.95 27.5153 132.95 27.8275V27.9192C132.95 28.3487 133.025 28.6865 133.172 28.9361C133.32 29.1845 133.561 29.3088 133.894 29.3088H133.895Z" fill="#053F92"/>
<path d="M139.77 30.1504V29.4318L140.389 29.3006V26.265L139.718 26.1339V25.4107H141.549V29.3018L142.168 29.433V30.1515H139.769L139.77 30.1504ZM140.346 24.3706V23.3142H141.55V24.3706H140.346Z" fill="#053F92"/>
<path d="M147.651 30.2421C147.199 30.2421 146.812 30.1399 146.49 29.9356C146.168 29.7313 145.92 29.4469 145.746 29.0835C145.573 28.7202 145.486 28.3011 145.486 27.8275V27.7358C145.486 27.2657 145.573 26.8489 145.746 26.4868C145.92 26.1246 146.168 25.8402 146.49 25.6324C146.811 25.4246 147.195 25.3213 147.642 25.3213C148.089 25.3213 148.478 25.4246 148.8 25.6301C149.121 25.8355 149.369 26.1199 149.541 26.4821C149.713 26.8443 149.799 27.2622 149.799 27.7347V27.8264C149.799 28.3 149.713 28.7179 149.541 29.0824C149.369 29.4457 149.121 29.7301 148.8 29.9344C148.478 30.1387 148.095 30.2409 147.651 30.2409V30.2421ZM147.651 29.3273C147.876 29.3273 148.062 29.2646 148.209 29.1393C148.356 29.0139 148.465 28.8375 148.536 28.6111C148.607 28.3847 148.642 28.1235 148.642 27.8299V27.7381C148.642 27.4468 148.607 27.1879 148.536 26.9627C148.465 26.7375 148.355 26.5622 148.207 26.4345C148.059 26.3068 147.871 26.243 147.643 26.243C147.416 26.243 147.228 26.3068 147.082 26.4345C146.935 26.5611 146.827 26.7375 146.755 26.9627C146.684 27.1879 146.648 27.4468 146.648 27.7381V27.8299C146.648 28.1282 146.684 28.3894 146.755 28.6146C146.827 28.8398 146.936 29.0151 147.083 29.1404C147.232 29.2658 147.421 29.3285 147.651 29.3285V29.3273Z" fill="#053F92"/>
<path d="M4.85873 12.3233L17.9623 33.2857L38.1319 1.33838L10.5887 1.49509C5.1868 1.52527 1.94229 7.65796 4.85873 12.3233Z" fill="#003F94"/>
<path d="M36.5471 27.1218L22.5227 4.93945L3.32031 38.6628H30.4382C36.2134 38.6628 39.691 32.0948 36.5483 27.123L36.5471 27.1218Z" fill="#FFA000"/>
</svg>
